<?xml version="1.0" encoding="UTF-8" standalone="no"?>
<svg width="108px" height="90px" viewBox="0 0 108 90" version="1.1" xmlns="http://www.w3.org/2000/svg" xmlns:xlink="http://www.w3.org/1999/xlink" xmlns:sketch="http://www.bohemiancoding.com/sketch/ns">
    <!-- Generator: Sketch 3.2 (9961) - http://www.bohemiancoding.com/sketch -->
    <title>Fill 1 + Fill 3 + Fill 7</title>
    <desc>Created with Sketch.</desc>
    <defs>
        <linearGradient x1="53.548112%" y1="27.5589229%" x2="73.86261%" y2="90.7426847%" id="linearGradient-1">
            <stop stop-color="#51A94C" offset="0%"></stop>
            <stop stop-color="#257F61" offset="100%"></stop>
        </linearGradient>
    </defs>
    <g id="Page-1" stroke="none" stroke-width="1" fill="none" fill-rule="evenodd" sketch:type="MSPage">
        <g id="Home" sketch:type="MSArtboardGroup" transform="translate(-428.000000, -61.000000)">
            <g id="Fill-1-+-Fill-3-+-Fill-7" sketch:type="MSLayerGroup" transform="translate(428.000000, 61.000000)">
                <path d="M62.048,18.363 C57.038,18.363 52.977,14.301 52.977,9.291 C52.977,4.282 57.038,0.219 62.048,0.219 C67.058,0.219 71.12,4.282 71.12,9.291 C71.12,14.301 67.058,18.363 62.048,18.363" id="Fill-1" fill="#51A94C" sketch:type="MSShapeGroup"></path>
                <path d="M82.995,90 L72.337,90 C71.489,90 71.194,89.668 70.993,88.471 C70.267,84.189 66.538,80.928 62.048,80.928 C57.61,80.928 53.914,84.117 53.131,88.328 C52.934,89.387 52.723,90 51.902,90 L41.12,90 C40.128,90 39.739,89.748 39.088,88.625 C37.544,85.947 34.105,79.988 32.061,76.443 C30.052,72.968 27.664,71.999 24.757,71.999 C23.214,71.999 21.525,72.272 19.669,72.588 C18.689,72.754 17.697,72.837 16.703,72.837 C10.32,72.837 3.936,69.4 1.289,62.334 C-2.072,53.359 1.413,44.182 8.595,39.11 C8.757,38.996 8.903,38.946 9.038,38.946 C9.66,38.946 10.039,39.989 10.536,40.58 C11.205,41.382 12.329,41.603 11.381,42.749 C8.87,45.785 7.008,49.572 7.147,53.697 C7.362,59.966 10.499,62.735 13.791,62.735 C14.706,62.735 15.632,62.521 16.512,62.109 C20.159,60.4 20.19,55.709 19.425,51.74 C17.456,41.501 22.009,30.701 31.548,25.194 C35.514,22.906 39.844,21.816 44.116,21.816 L44.139,21.816 L79.96,21.816 L79.983,21.816 C84.255,21.816 88.586,22.906 92.552,25.194 C101.729,30.494 106.309,40.7 104.89,50.584 C104.68,52.059 104.503,53.307 104.575,54.609 C104.747,57.687 105.903,59.943 107.528,61.539 C107.878,61.883 107.734,62.346 107.321,62.355 C107.284,62.356 107.247,62.357 107.21,62.357 C105.439,62.357 103.126,61.497 101.802,59.527 L101.767,59.594 C101.767,59.594 85.175,88.332 84.862,88.873 C84.214,90 83.745,90 82.995,90 M31.974,45.607 C30.222,45.607 28.8,47.029 28.8,48.781 C28.8,50.535 30.222,51.953 31.974,51.953 C33.727,51.953 35.146,50.535 35.146,48.781 C35.146,47.029 33.727,45.607 31.974,45.607 M52.977,25.758 C51.662,25.758 50.599,26.822 50.599,28.135 C50.599,29.45 51.662,30.515 52.977,30.515 L71.12,30.515 C72.435,30.515 73.501,29.45 73.501,28.135 C73.501,26.822 72.435,25.758 71.12,25.758 L52.977,25.758" id="Fill-3" fill="url(#linearGradient-1)" sketch:type="MSShapeGroup"></path>
                <path d="M12.29,38.406 C12.142,38.406 12.065,38.237 12.139,37.897 C12.399,36.701 12.249,35.287 11.702,33.919 C10.701,31.417 9.16,31.063 8.778,28.8 C8.372,26.386 10.085,24.11 12.565,23.811 C12.753,23.788 12.939,23.777 13.123,23.777 C15.327,23.777 17.249,25.357 17.556,27.597 C17.914,30.236 16.687,35.43 12.496,38.326 C12.42,38.379 12.349,38.406 12.29,38.406" id="Fill-5" fill="#51A94C" sketch:type="MSShapeGroup"></path>
            </g>
        </g>
    </g>
</svg>