<?xml version="1.0" encoding="UTF-8" standalone="no"?>
<svg width="145px" height="65px" viewBox="0 0 145 65" version="1.1" xmlns="http://www.w3.org/2000/svg" xmlns:xlink="http://www.w3.org/1999/xlink" xmlns:sketch="http://www.bohemiancoding.com/sketch/ns">
    <!-- Generator: Sketch 3.2 (9961) - http://www.bohemiancoding.com/sketch -->
    <title>Group 4</title>
    <desc>Created with Sketch.</desc>
    <defs></defs>
    <g id="Page-1" stroke="none" stroke-width="1" fill="none" fill-rule="evenodd" sketch:type="MSPage">
        <g id="Home" sketch:type="MSArtboardGroup" transform="translate(-415.000000, -238.000000)" fill="#13BC1F">
            <g id="Group-4" sketch:type="MSLayerGroup" transform="translate(415.000000, 238.000000)">
                <path d="M18.5950281,19.001125 C18.5950281,15.96725 16.4004775,13.31525 13.1648596,13.31525 C9.81438202,13.31525 7.81126404,15.8900625 7.81126404,19.001125 C7.81126404,22.036625 10.0066292,24.6861875 13.2422472,24.6861875 C16.5919101,24.6861875 18.5950281,22.113 18.5950281,19.001125 L18.5950281,19.001125 Z M2.03407303,19.001125 C2.03407303,13.0853125 6.81011236,8.282625 13.2422472,8.282625 C19.6352809,8.282625 24.3722191,13.008125 24.3722191,19.001125 C24.3722191,24.9169375 19.5969944,29.719625 13.1648596,29.719625 C6.77101124,29.719625 2.03407303,24.9933125 2.03407303,19.001125 L2.03407303,19.001125 Z" id="Fill-15" sketch:type="MSShapeGroup"></path>
                <path d="M47.6634551,29.258125 L41.809691,29.258125 L41.809691,21.3825625 L34.6061236,21.3825625 L34.6061236,29.258125 L28.7523596,29.258125 L28.7523596,8.66775 L34.6061236,8.66775 L34.6061236,16.5815 L41.809691,16.5815 L41.809691,8.66775 L47.6634551,8.66775 L47.6634551,29.258125" id="Fill-16" sketch:type="MSShapeGroup"></path>
                <path d="M72.2719101,8.66775 L72.2719101,29.258125 L66.4173315,29.258125 L66.4173315,13.661375 L61.1794101,13.661375 C61.1794101,27.3 58.8300843,29.4880625 53.6695506,29.4880625 C52.8989326,29.4880625 51.4733708,29.3353125 50.7027528,29.1419375 L51.0888764,24.4180625 C51.3194101,24.454625 52.0517416,24.532625 52.3213764,24.532625 C54.5175562,24.532625 55.6710393,23.265125 55.6710393,8.66775 L72.2719101,8.66775" id="Fill-17" sketch:type="MSShapeGroup"></path>
                <path d="M89.8894101,21.9968125 L89.8894101,20.9600625 C88.889073,20.4985625 87.5791854,20.193875 86.1544382,20.193875 C83.6503371,20.193875 82.1099157,21.19 82.1099157,23.112375 C82.1099157,24.6861875 83.4198034,25.608375 85.3064326,25.608375 C88.0410674,25.608375 89.8894101,24.110125 89.8894101,21.9968125 L89.8894101,21.9968125 Z M76.4483989,23.265125 C76.4483989,18.7711875 79.8770787,16.69525 84.7679775,16.69525 C86.8468539,16.69525 88.3498034,17.041375 89.8136517,17.5410625 L89.8136517,17.1965625 C89.8136517,14.7753125 88.3107022,13.43225 85.3830056,13.43225 C83.1493539,13.43225 81.5706461,13.8539375 79.6823876,14.5445625 L78.2193539,10.088 C80.4929213,9.088625 82.726573,8.437 86.2310112,8.437 C89.4275281,8.437 91.7377528,9.2811875 93.2016011,10.74125 C94.7436517,12.2785 95.4352528,14.5445625 95.4352528,17.3095 L95.4352528,29.258125 L89.7745506,29.258125 L89.7745506,27.03025 C88.3498034,28.604875 86.3849719,29.641625 83.5346629,29.641625 C79.6449157,29.641625 76.4483989,27.41375 76.4483989,23.265125 L76.4483989,23.265125 Z" id="Fill-18" sketch:type="MSShapeGroup"></path>
                <path d="M104.076601,0.8701875 L107.503652,0.2543125 C108.005449,1.82975 108.928399,2.8275 110.546208,2.8275 C112.163202,2.8275 113.08941,1.82975 113.588764,0.2543125 L117.016629,0.8701875 C116.478174,4.5573125 114.090562,6.708 110.546208,6.708 C107.003483,6.708 104.615871,4.5573125 104.076601,0.8701875 L104.076601,0.8701875 Z M119.981798,29.258125 L114.321096,29.258125 L114.321096,17.2713125 L106.271152,29.258125 L100.763596,29.258125 L100.763596,8.66775 L106.425112,8.66775 L106.425112,20.6903125 L114.475056,8.66775 L119.981798,8.66775 L119.981798,29.258125 L119.981798,29.258125 Z" id="Fill-19" sketch:type="MSShapeGroup"></path>
                <path d="M144.406152,29.258125 L138.552388,29.258125 L138.552388,21.3825625 L131.349635,21.3825625 L131.349635,29.258125 L125.496685,29.258125 L125.496685,8.66775 L131.349635,8.66775 L131.349635,16.5815 L138.552388,16.5815 L138.552388,8.66775 L144.406152,8.66775 L144.406152,29.258125" id="Fill-20" sketch:type="MSShapeGroup"></path>
                <path d="M22.1002809,43.48175 L22.1002809,64.0729375 L16.2457022,64.0729375 L16.2457022,48.475375 L11.0077809,48.475375 C11.0077809,62.1131875 8.65845506,64.3036875 3.49792135,64.3036875 C2.72730337,64.3036875 1.30174157,64.1493125 0.531123596,63.9575625 L0.917247191,59.23125 C1.1477809,59.2710625 1.88011236,59.3458125 2.14974719,59.3458125 C4.34592697,59.3458125 5.50022472,58.079125 5.50022472,43.48175 L22.1002809,43.48175" id="Fill-21" sketch:type="MSShapeGroup"></path>
                <path d="M41.0203371,52.1633125 C40.6741292,49.551125 39.1328933,47.7839375 36.6678933,47.7839375 C34.2411798,47.7839375 32.6632865,49.5129375 32.1997753,52.1633125 L41.0203371,52.1633125 L41.0203371,52.1633125 Z M26.4608708,53.815125 C26.4608708,47.9375 30.6601685,43.0958125 36.6678933,43.0958125 C43.5627247,43.0958125 46.7209551,48.4371875 46.7209551,54.2758125 C46.7209551,54.7389375 46.6818539,55.2751875 46.6435674,55.8130625 L32.2763483,55.8130625 C32.8555337,58.4634375 34.704691,59.847125 37.3228371,59.847125 C39.2876685,59.847125 40.7124157,59.23125 42.3302247,57.7338125 L45.6807022,60.6896875 C43.7557865,63.0751875 40.981236,64.533625 37.246264,64.533625 C31.0430337,64.533625 26.4608708,60.19325 26.4608708,53.815125 L26.4608708,53.815125 Z" id="Fill-22" sketch:type="MSShapeGroup"></path>
                <path d="M54.466236,35.683375 L57.8941011,35.0675 C58.3958989,36.64375 59.3188483,37.643125 60.9374719,37.643125 C62.5552809,37.643125 63.4798596,36.64375 63.9792135,35.0675 L67.406264,35.683375 C66.867809,39.3713125 64.4810112,41.5211875 60.9374719,41.5211875 C57.3947472,41.5211875 55.0055056,39.3713125 54.466236,35.683375 L54.466236,35.683375 Z M70.3730618,64.0729375 L64.7115449,64.0729375 L64.7115449,52.0869375 L56.6624157,64.0729375 L51.1548596,64.0729375 L51.1548596,43.48175 L56.8163764,43.48175 L56.8163764,55.505125 L64.8671348,43.48175 L70.3730618,43.48175 L70.3730618,64.0729375 L70.3730618,64.0729375 Z" id="Fill-23" sketch:type="MSShapeGroup"></path>
                <path d="M75.8863202,43.48175 L81.7400843,43.48175 L81.7400843,51.933375 L89.1350843,43.48175 L95.8751404,43.48175 L88.2878933,51.933375 L96.8388202,64.0729375 L89.9048876,64.0729375 L84.3965169,56.2355625 L81.7400843,59.1175 L81.7400843,64.0729375 L75.8863202,64.0729375 L75.8863202,43.48175" id="Fill-24" sketch:type="MSShapeGroup"></path>
                <path d="M111.420281,56.811625 L111.420281,55.7740625 C110.419944,55.313375 109.110056,55.0054375 107.684494,55.0054375 C105.182022,55.0054375 103.640787,56.005625 103.640787,57.9271875 C103.640787,59.501 104.950674,60.4215625 106.836489,60.4215625 C109.571938,60.4215625 111.420281,58.9249375 111.420281,56.811625 L111.420281,56.811625 Z M97.9792697,58.079125 C97.9792697,53.5851875 101.40632,51.50925 106.298034,51.50925 C108.378539,51.50925 109.880674,51.855375 111.344522,52.3566875 L111.344522,52.011375 C111.344522,49.5893125 109.842388,48.2454375 106.914691,48.2454375 C104.681039,48.2454375 103.101517,48.667125 101.214073,49.35775 L99.7502247,44.902 C102.022978,43.9034375 104.257444,43.251 107.762697,43.251 C110.959213,43.251 113.269438,44.0968125 114.734101,45.55525 C116.274522,47.0933125 116.966938,49.35775 116.966938,52.1235 L116.966938,64.0729375 L111.306236,64.0729375 L111.306236,61.8434375 C109.880674,63.4196875 107.916657,64.455625 105.066348,64.455625 C101.175787,64.455625 97.9792697,62.229375 97.9792697,58.079125 L97.9792697,58.079125 Z" id="Fill-25" sketch:type="MSShapeGroup"></path>
            </g>
        </g>
    </g>
</svg>