<?xml version="1.0" encoding="UTF-8" standalone="no"?>
<svg width="192px" height="176px" viewBox="0 0 192 176" version="1.1" xmlns="http://www.w3.org/2000/svg" xmlns:xlink="http://www.w3.org/1999/xlink" xmlns:sketch="http://www.bohemiancoding.com/sketch/ns">
    <!-- Generator: Sketch 3.2.2 (9983) - http://www.bohemiancoding.com/sketch -->
    <title>Слой_x0020_1</title>
    <desc>Created with Sketch.</desc>
    <defs></defs>
    <g id="Page-1" stroke="none" stroke-width="1" fill="none" fill-rule="evenodd" sketch:type="MSPage">
        <g id="Artboard-5" sketch:type="MSArtboardGroup" transform="translate(-316.000000, -303.000000)">
            <g id="Слой_x0020_1" sketch:type="MSLayerGroup" transform="translate(316.000000, 303.000000)">
                <g id="_76252616" sketch:type="MSShapeGroup">
                    <g id="Group" transform="translate(19.217582, 19.198007)">
                        <path d="M36.409811,38.0271682 C36.4988022,37.6610163 36.5923896,37.2961168 36.6905727,36.9316328 C39.7668346,25.5296387 47.291814,15.7661965 57.5433199,9.87431167 C67.8483467,3.95208638 79.9779221,2.37279729 91.4614913,5.45964513 C103.21168,8.61822331 112.929342,16.324497 118.72957,26.5437898 C113.560551,14.8298691 103.296428,5.73861987 90.4215968,2.27776055 C79.323181,-0.705247473 67.6042606,0.820661551 57.6452979,6.54438936 C47.7392795,12.2376644 40.4695265,21.6703804 37.4965507,32.6888299 C37.0210954,34.4507793 36.6584447,36.2335782 36.4098546,38.0272159 L36.409811,38.0271682 Z" id="_76311376" fill="#C91F2F"></path>
                        <path d="M101.743121,0.121000751 C112.417055,5.06487691 120.898813,14.109401 125.003253,25.5439258 C129.014548,36.7190476 128.418757,48.9133609 123.339154,59.6444116 C118.285447,70.3211837 109.144376,78.5979867 98.0066884,82.5805723 C97.6507232,82.7077661 97.2935047,82.8307903 96.9346152,82.9488092 C98.7060789,82.5563842 100.457077,82.0509457 102.178002,81.435831 C112.939679,77.5870746 121.770722,69.5913804 126.655259,59.2753801 C131.56524,48.9038656 132.140959,37.1219492 128.264205,26.3214005 C123.767016,13.7925983 113.85886,4.31651276 101.743167,0.121080779 L101.743121,0.121000751 Z" id="_76310128" fill="#C91F2F"></path>
                        <path d="M46.4043604,60.0825999 C43.2696123,49.1747856 44.2497688,37.8841006 49.2123851,28.2741437 C54.5969793,17.8471712 64.0751543,10.6104231 75.2759982,7.81969285 C62.7223771,9.59749347 51.7726664,16.9822372 45.8729916,28.4071025 C40.7871156,38.2556551 40.029229,49.9266275 43.7526646,61.0496749 L46.4044308,60.0825844 L46.4043604,60.0825999 Z" id="_76308832" fill="#C91F2F"></path>
                        <path d="M5.32254945,114.310966 C5.8849069,111.31587 6.6599258,108.568481 7.61251165,106.035441 C32.7085292,100.878873 56.790393,119.326151 88.1463138,115.220084 C100.906324,110.327496 123.363474,98.7037121 150.594419,70.2881616 C150.932837,70.3940869 149.574154,71.9571101 149.80645,72.1860603 C122.556797,101.503259 99.917395,113.829254 89.7812016,118.96003 C49.0165774,123.290457 44.2781862,107.109739 5.3225818,114.310994 L5.32254945,114.310966 Z" id="_76307672" fill="#0F3076"></path>
                        <path d="M0.418883516,105.527965 C1.99148308,98.362161 7.70865231,88.286708 11.671476,84.8066139 C9.40282374,88.6299298 7.63344176,93.7160171 6.4832422,98.9551403 C25.7930971,90.2375656 49.0803763,113.386854 80.2202444,114.612545 L83.3357785,114.46867 C57.9791191,118.944228 26.5476642,97.0176558 0.418925714,105.527986 L0.418883516,105.527965 Z" id="_76306560" fill="#C91F2F"></path>
                        <path d="M104.28582,57.1337793 C104.62173,61.4137461 98.2477785,67.8660234 93.8470963,69.1621398 C95.57888,67.7992885 98.363513,65.9831334 98.835622,61.5359362 C84.9283376,64.1344448 47.7938637,62.072653 47.2469802,62.2886738 C61.0886752,58.2943648 82.6609231,59.0358451 104.285749,57.1337765 L104.28582,57.1337793 Z" id="_76305400" fill="#C91F2F"></path>
                        <path d="M10.4234198,93.4444414 C13.4286488,84.0946456 18.9093415,77.0059914 24.8283429,72.4170183 C30.6378409,67.3571998 38.366298,65.7683214 47.0398593,63.4638244 C62.521811,63.9659269 77.6169495,63.3712439 92.6480879,63.0092626 C76.6188308,66.1236288 64.0400879,65.4480522 45.2608,65.614019 C30.3708835,70.3126867 22.605222,76.3241502 16.1585231,93.0290793 L10.4233916,93.44444 L10.4234198,93.4444414 Z" id="_76304608" fill="#0F3076"></path>
                        <path d="M62.9020132,75.0523258 C57.9748993,78.4144137 58.7795833,81.1684715 61.6582245,83.1476899 C67.7664549,88.0127455 85.1242817,88.4977572 93.6533015,86.7116169 C121.762805,81.6342905 143.269899,56.0295896 153.328871,64.4464276 C134.552959,88.6383257 106.533618,107.137286 90.1546817,113.567464 C104.90422,106.702748 127.878673,90.3252314 145.131666,70.3102325 C140.537957,65.5064755 115.624994,87.5005243 86.6602817,90.7388497 C74.9882149,92.7168185 49.7456443,89.1291219 51.2263652,82.4750056 C52.580871,79.7071886 59.0287669,75.773771 62.9021876,75.0523117 L62.9020132,75.0523258 Z" id="_76303384" fill="#C91F2F"></path>
                        <path d="M103.717275,60.8257369 L104.204429,60.8812018 C95.0295575,83.7018134 71.2296594,70.9570339 61.3829429,81.3572742 C60.057683,80.5382299 60.2239676,80.4202097 60.4374632,79.4668869 C69.3725243,65.5456259 95.3365929,79.4085028 103.717358,60.8257017 L103.717275,60.8257369 Z" id="_76302592" fill="#0F3076"></path>
                        <path d="M63.6908308,91.0803867 C68.3768686,92.1233759 83.4585319,96.1268531 93.9858989,94.8599258 C106.588821,89.6729191 115.781204,82.8949419 126.12051,77.1853945 C115.96966,81.979141 109.141099,87.1031784 93.170778,91.0962238 C83.8876976,93.236832 75.058356,92.5137019 63.6908308,91.0803767 L63.6908308,91.0803867 Z" id="_76301928" fill="#0F3076"></path>
                        <path d="M107.064067,36.8766059 C110.448957,36.9007287 113.213335,34.2877152 113.238479,31.0402768 C113.263623,27.7928385 110.540011,25.1407142 107.155121,25.1165914 C103.770232,25.0924686 101.005854,27.7054821 100.98071,30.9529205 C100.955566,34.2003588 103.679178,36.8524831 107.064067,36.8766059 L107.064067,36.8766059 Z" id="_76300864" fill="#0F3076"></path>
                        <path d="M84.1637978,43.3867967 C102.117415,45.0494975 113.99469,44.6049378 109.284431,27.5463102 C120.112542,40.5071512 121.843481,64.4166066 100.80519,82.1899796 L98.1325222,81.9689549 C112.091204,67.145245 112.720443,48.4236107 84.2139569,44.4567498 L84.163821,43.3866535 L84.1637978,43.3867967 Z" id="_76254472" fill="#0F3076"></path>
                    </g>
                    <path d="M13.1367244,122.694946 L14.5518136,122.244971 L13.0139007,117.425784 C12.8446917,116.895741 12.5371921,116.701405 12.0905635,116.843611 C11.7951789,116.937443 11.6184503,117.065889 11.559123,117.228529 C11.4993777,117.390753 11.5140006,117.610945 11.6025741,117.888269 L13.1367314,122.694946 L13.1367244,122.694946 Z M17.6243059,124.325116 L8.57518418,127.202613 L5.27331868,116.857382 L7.45965714,116.162194 L9.87536879,123.73169 L11.1141444,123.338014 L9.3263782,117.736477 C9.01762391,116.769386 9.01135754,115.993299 9.30715949,115.407789 C9.60296186,114.823114 10.1974895,114.388571 11.0907481,114.104574 C12.1945736,113.753852 13.0656896,113.763861 13.7036641,114.135017 C14.2505631,114.452375 14.6650201,115.05248 14.9466172,115.935338 L17.6242929,124.32512 L17.6243059,124.325116 Z M2.55547077,99.8609824 L11.9722479,98.6294963 L12.3516104,101.517833 L5.36725521,102.431126 L6.04116536,107.564332 C8.76354251,107.208189 10.6661992,107.195261 11.7466317,107.525965 C12.7155087,107.826643 13.2674265,108.497642 13.4040348,109.539385 L13.5832714,110.904738 L11.1500055,111.222931 C11.0605963,110.540254 10.7192545,110.179524 10.1234722,110.141574 C9.52977864,110.103625 7.48381679,110.31339 3.98725064,110.770454 L2.55545108,99.8609828 L2.55547077,99.8609824 Z M2.56842255,90.8710879 L2.94820277,85.8805007 L12.7476859,81.9233134 L12.4894859,85.3166825 L10.8341646,86.0940238 L10.3958926,91.8498611 L11.9145915,92.8678283 L11.6563916,96.2611973 L2.56841974,90.871102 L2.56842255,90.8710879 Z M4.90516805,88.3130285 L4.8709085,88.762168 L8.03156608,90.5816674 L8.30397118,87.0039813 L4.90517733,88.3130355 L4.90516805,88.3130285 Z M3.7758564,77.970296 L5.89452365,68.810672 L5.9095645,68.7460326 L8.30021065,69.2969284 L6.82328757,75.6828948 L13.6860568,77.264683 L13.0296939,80.1029807 L3.77585654,77.9702911 L3.7758564,77.970296 Z M15.7892612,55.5599332 C17.9363276,56.4048335 19.1174441,57.1688326 19.3326107,57.8510923 C19.564489,58.5871489 19.1258007,60.3595203 18.0165428,63.1682077 C17.2055939,65.2212344 16.5997797,66.5390566 16.1987037,67.1212251 C15.691496,67.8514425 15.0794197,68.1984102 14.3612285,68.1629634 C13.8109875,68.1358565 12.7543784,67.8151618 11.1913859,67.2000442 C9.04389754,66.3551439 7.86110721,65.5948935 7.64301491,64.9209876 C7.40278001,64.1815951 7.83729218,62.4075473 8.94654862,59.5988599 C10.0528808,56.7985123 10.9419561,55.2083843 11.6150392,54.8280548 C12.2505113,54.471078 13.6417855,54.71504 15.7892739,55.5599402 L15.7892612,55.5599332 Z M12.2617782,64.4901858 C13.3885833,64.9334875 14.0959197,65.0623494 14.3833571,64.8767715 C14.6708029,64.6907766 15.1207735,63.8216881 15.7336839,62.2699231 C16.3499378,60.7098126 16.616912,59.763573 16.5337697,59.4324537 C16.4506277,59.100916 15.8456544,58.7134963 14.7188563,58.2697776 C13.5832783,57.82314 12.872182,57.6926102 12.5847306,57.878605 C12.2977026,58.0641829 11.8477319,58.9332714 11.2348215,60.4850323 C10.6181499,62.0451427 10.3515934,62.9909612 10.4343179,63.3229088 C10.51746,63.6540295 11.1266109,64.0435355 12.2617782,64.4901731 L12.2617782,64.4901858 Z M15.148347,51.9784843 L13.0213245,50.7578399 L18.6474168,40.9889362 L20.7744393,42.2095806 L18.6921324,45.825638 L24.7986889,49.3295159 L23.3443276,51.8550447 L17.2377711,48.3511668 L15.148361,51.9784843 L15.148347,51.9784843 Z M27.2636876,39.2945542 L30.5730784,35.4812348 C30.752315,35.2748061 30.9315501,35.152199 31.1103689,35.1142489 C31.2896055,35.0767164 31.4926557,35.1555348 31.7203564,35.3523729 C32.0813347,35.6643108 32.0759039,36.0342155 31.7057335,36.4608363 L28.3963427,40.2737345 L27.263689,39.29455 L27.2636876,39.2945542 Z M21.0317896,37.7594771 L28.2104234,43.9665318 L33.9860788,37.3115871 C34.6691811,36.5242367 35.0080153,35.8302972 35.0025845,35.2301997 C34.9954819,34.6284271 34.6315786,34.0158115 33.9083673,33.3902721 C33.0727693,32.6679774 32.2196254,32.5086725 31.3522777,32.9148595 C31.4383443,32.6266928 31.4149476,32.3034948 31.280834,31.9423482 C31.1483915,31.5824525 30.8952051,31.2409057 30.5208572,30.9172908 C29.670217,30.1816511 28.8926972,29.9180895 28.1849416,30.1236842 C27.7124106,30.2638059 27.177628,30.6779159 26.5814251,31.3647624 L21.0317952,37.7594897 L21.0317896,37.7594771 Z M24.686696,37.0663744 L28.0742089,33.1633955 C28.230466,32.9832385 28.3858875,32.8781477 28.5404735,32.8485388 C28.6950596,32.8185127 28.859254,32.8789818 29.0330583,33.0291128 C29.2001785,33.1734046 29.2799774,33.3272886 29.2728755,33.4907633 C29.2661907,33.6534041 29.1872266,33.821884 29.0368182,33.9953679 L25.6493052,37.8987539 L24.686696,37.0663645 L24.686696,37.0663744 Z M44.2518476,21.450247 C45.7626133,23.1913471 46.4553184,24.4144835 46.329147,25.118435 C46.1933622,25.8782614 44.9821622,27.2465335 42.6959584,29.2228316 C41.0247566,30.6678422 39.8766529,31.5556895 39.2507891,31.8859804 C38.4628197,32.2988392 37.7588296,32.3234443 37.1392252,31.9602116 C36.6637699,31.6820539 35.8762182,30.9092981 34.7761483,29.6415341 C33.2649746,27.9000269 32.5693298,26.6797967 32.6883979,25.9812647 C32.8187513,25.2151821 34.0270276,23.8435768 36.3132313,21.8668575 C38.5927426,19.8964001 40.1185448,18.8980299 40.8914819,18.8721682 C41.6205418,18.8492317 42.7402379,19.7083118 44.2518476,21.4502347 L44.2518476,21.450247 Z M36.9821368,27.7344515 C37.7751193,28.6485789 38.3424913,29.0893786 38.6834116,29.0581017 C39.0239183,29.0259904 39.8260929,28.463835 41.0895162,27.3716313 C42.3592087,26.273594 43.0347927,25.5583937 43.1150107,25.226432 C43.1952281,24.8940604 42.8388458,24.2710186 42.0458619,23.3573012 C41.2466116,22.4365007 40.6767331,21.991531 40.33581,22.0236433 C39.9953033,22.0557546 39.1931287,22.6179101 37.9301273,23.7096925 C36.6595993,24.8081468 35.9844289,25.5229301 35.9042249,25.855313 C35.8240075,26.1868507 36.1833156,26.8136453 36.9821467,27.7344403 L36.9821368,27.7344515 Z M44.9261685,15.5096714 L51.112943,11.9590825 C52.4620166,11.1846601 53.4459329,10.838942 54.0646933,10.9215141 C54.835951,11.021184 55.605954,11.7376394 56.3738696,13.0708832 C57.1376062,14.3966184 57.3724102,15.4150011 57.0778611,16.1260428 C56.8351197,16.7132193 56.0387937,17.394228 54.6897187,18.1686518 L51.0327165,20.2675612 L52.189603,22.2763899 L49.6602527,23.7280695 L44.9261657,15.5096869 L44.9261685,15.5096714 Z M49.8094107,18.1440382 L53.4664129,16.0451289 C53.7651396,15.87373 53.9539846,15.678977 54.0312783,15.4587863 C54.1273721,15.2002285 54.0684624,14.8853717 53.855803,14.5163009 C53.6473205,14.1547373 53.404579,13.9453883 53.1275786,13.8899233 C52.8982068,13.8461352 52.634576,13.9107748 52.3358494,14.0825914 L48.6788472,16.1815008 L49.8094121,18.1440397 L49.8094107,18.1440382 Z M58.5372384,7.98187419 L61.3014054,7.04814697 L63.3937412,13.2185011 C63.4058574,13.475391 63.4167202,13.7276939 63.4263296,13.9762426 C63.446384,14.0629846 63.4706163,14.1476415 63.4990267,14.2314645 C63.5575186,14.2114471 63.5955384,14.1380501 63.6135037,14.0108568 C63.6306335,13.88408 63.6460921,13.7577199 63.6594616,13.6321939 L66.138681,5.41381126 L70.662201,3.88581028 L73.6983469,12.840675 L70.9341799,13.7744022 L68.8376665,7.59152435 C68.8347419,7.58318378 68.8280571,7.32921368 68.8176121,6.82961301 C68.7892017,6.74579016 68.7645516,6.66071606 68.7444972,6.57480812 C68.6860053,6.59440852 68.6484034,6.66989078 68.6325271,6.80083804 C68.6162329,6.93261914 68.6003564,7.05689389 68.5840623,7.17407873 L66.0969098,15.4083125 L61.5733898,16.9367206 L58.5372439,7.98185593 L58.5372384,7.98187419 Z M75.32479,5.19361497 L74.8936213,2.78276492 L86.0062437,0.802296942 L86.4374124,3.21314699 L82.3241817,3.94628336 L83.5621217,10.8673 L80.6893375,11.3794117 L79.4513975,4.45839507 L75.32479,5.19361778 L75.32479,5.19361497 Z M89.7944164,10.1103799 L89.5541815,0.633395774 L99.7647837,0.375254981 L99.8228579,2.6651645 L92.5297554,2.84949141 L92.5631793,4.17272465 L99.5249727,3.99715588 L99.582629,6.27371336 L92.6208356,6.44969911 L92.6538417,7.7466593 L99.9473661,7.56233239 L100.00544,9.85224191 L89.7944302,10.1103827 L89.7944164,10.1103799 Z M116.638408,2.6722561 L114.969302,12.00453 L112.096517,11.4928352 L113.334458,4.57141143 L108.228538,3.66145393 C107.745979,6.35963253 107.183621,8.1737125 106.541469,9.10200904 C105.961563,9.93314739 105.153958,10.2555113 104.117811,10.0707674 L102.759545,9.82889058 L103.191131,7.41721217 C103.870055,7.5381506 104.317519,7.32254665 104.533939,6.76706342 C104.749523,6.2136657 105.167322,4.20358456 105.786919,0.738499194 L116.638422,2.6722561 L116.638408,2.6722561 Z M117.945283,12.6701101 L120.989784,3.6906473 L123.753952,4.62437451 L123.005673,6.8317148 L127.001088,8.18122109 C128.475507,8.6791538 129.390482,9.18876358 129.746449,9.70922207 C130.187645,10.3618727 130.163412,11.4111225 129.672916,12.8577897 C129.179914,14.3123896 128.564912,15.1622868 127.828338,15.4075094 C127.229213,15.6055983 126.188053,15.4542167 124.705292,14.9533646 L117.945303,12.6701241 L117.945283,12.6701101 Z M122.219372,9.1516306 L121.496579,11.2834778 L125.491993,12.6329841 C125.827068,12.7464161 126.096548,12.7630971 126.301271,12.6830276 C126.559053,12.5837746 126.75709,12.3293867 126.896218,11.9194469 C127.029496,11.5266049 127.025318,11.2079953 126.883684,10.9648675 C126.764611,10.7659446 126.541506,10.6116436 126.214787,10.5011306 L122.219372,9.15162428 L122.219372,9.1516306 Z M135.478231,8.79924071 L138.008425,10.2513415 L136.3552,13.1204991 L141.817508,16.2557288 L143.470734,13.3861499 L146.000506,14.8382507 L141.279374,23.033706 L138.749602,21.5816052 L140.59418,18.3792363 L135.131872,15.2444278 L133.287293,18.4467968 L130.757521,16.994696 L135.478231,8.79924071 L135.478231,8.79924071 Z M159.666293,25.3365323 L161.871859,27.2440204 L155.653746,34.4094172 L153.447771,32.5019291 L159.666293,25.3365323 L159.666293,25.3365323 Z M143.81286,24.1713529 L150.031381,17.0059561 L152.236948,18.9130229 L150.70822,20.6745512 L153.896868,23.4315293 C155.066289,24.4428247 155.714708,25.2597897 155.840893,25.8824074 C155.995897,26.647239 155.57559,27.6034864 154.579557,28.7511439 C153.578092,29.9054802 152.693189,30.4601345 151.925273,30.4146729 C151.289383,30.3788085 150.383183,29.8525185 149.207074,28.8353839 L143.812872,24.1713389 L143.81286,24.1713529 Z M149.101777,22.5257529 L147.625276,24.2268109 L150.813925,26.983789 C151.080899,27.2148228 151.324476,27.3320076 151.544238,27.3349279 C151.807869,27.3411834 152.081529,27.181044 152.365213,26.8540931 C152.648899,26.5271423 152.77424,26.2414775 152.740815,25.9962647 C152.707809,25.751886 152.5574,25.513762 152.290008,25.2827282 L149.101782,22.5257501 L149.101777,22.5257529 Z M164.864907,30.1586396 L166.668132,32.4489562 L161.528369,36.4812154 C161.289805,36.5779661 161.052914,36.6738834 160.821871,36.7656292 C160.746667,36.8135876 160.674806,36.864048 160.605033,36.9186792 C160.643471,36.9674716 160.72536,36.9791484 160.851535,36.9532926 C160.977292,36.9270198 161.101797,36.8994958 161.224629,36.8703038 L169.823782,36.4566111 L172.774702,40.204448 L165.317816,46.0541146 L163.514592,43.7637979 L168.664805,39.7236202 C168.671908,39.7177818 168.909635,39.6268695 169.37966,39.4492155 C169.449432,39.3945847 169.521294,39.3432901 169.59608,39.2957485 C169.55806,39.2473731 169.474082,39.2369474 169.344564,39.2657224 C169.215464,39.2940804 169.09263,39.3203531 168.976482,39.3441238 L160.35896,39.7561486 L157.408039,36.0083118 L164.864925,30.1586452 L164.864907,30.1586396 Z M171.894386,36.1292467 L168.992766,32.443958 L167.970411,33.2459044 L170.87203,36.9311931 L171.894386,36.1292467 L171.894386,36.1292467 Z M186.773472,74.3924512 C187.02457,75.2757187 186.950618,76.0488901 186.550784,76.7127995 C186.094129,77.466371 185.236387,78.0214367 183.977562,78.3779993 C182.72667,78.7324741 181.710161,78.7132899 180.927209,78.3204493 C180.229484,77.9676425 179.753611,77.3454361 179.500009,76.4534105 L178.511079,72.9766439 L177.5539,73.2477127 L176.757156,70.4456943 L177.713917,70.1742085 L176.724986,66.6974418 C176.471382,65.8054162 176.548675,65.0268225 176.956865,64.3604141 C177.416026,63.6156006 178.270844,63.0663728 179.521323,62.7118938 C180.771796,62.3574189 181.789554,62.38119 182.575024,62.7823716 C183.272749,63.1351785 183.747369,63.752798 183.998468,64.6360584 L184.987399,68.1132462 L185.893187,67.8563564 L186.690349,70.658796 L185.78456,70.9152689 L186.773491,74.3924567 L186.773472,74.3924512 Z M182.626806,68.7821666 L181.902341,66.2345389 C181.80583,65.895494 181.643724,65.6661282 181.416859,65.5464414 C181.135261,65.3971457 180.743784,65.3933914 180.241589,65.5355987 C179.739812,65.6778056 179.411422,65.8808984 179.256836,66.1452954 C179.120634,66.3763292 179.100579,66.661994 179.197091,67.0014558 L179.921555,69.5486623 L182.6268,68.7821627 L182.626806,68.7821666 Z M183.423968,71.584185 L180.718723,72.3511016 L181.443187,74.8983081 C181.539699,75.23777 181.701387,75.4671358 181.928252,75.5868226 C182.210267,75.7361183 182.601745,75.7398726 183.103522,75.5976653 C183.596943,75.4575436 183.918648,75.2632087 184.068639,75.0146586 C184.218628,74.765693 184.24495,74.47127 184.148439,74.1318082 L183.423974,71.5841805 L183.423968,71.584185 Z M185.117731,94.6354737 C182.81608,94.8102085 181.419375,94.6371419 180.928038,94.1166902 C180.397433,93.5553697 180.017653,91.7692308 179.788281,88.7591255 C179.620743,86.5584683 179.590244,85.1092879 179.696783,84.4107699 C179.833821,83.5329233 180.233238,82.9536709 180.894614,82.6734326 C181.401404,82.4578288 182.492701,82.2864299 184.167658,82.1592359 C186.469309,81.9849181 187.866014,82.1538145 188.356929,82.6650914 C188.896309,83.2259949 189.280684,85.0117085 189.509638,88.0218277 C189.738175,91.023186 189.632889,92.8414359 189.193364,93.4765632 C188.777654,94.0745829 187.419383,94.4607516 185.117732,94.6354864 L185.117731,94.6354737 Z M184.389089,85.063832 C183.181232,85.1555783 182.488514,85.3478288 182.31096,85.6397484 C182.133813,85.932085 182.108327,86.9104356 182.23492,88.5735463 C182.362349,90.2458363 182.535736,91.2133465 182.75508,91.4752346 C182.974842,91.7375453 183.688861,91.8226192 184.896295,91.7308735 C186.113344,91.63871 186.810654,91.4464596 186.987801,91.154123 C187.164947,90.8622034 187.190433,89.8838529 187.063422,88.2207464 C186.936411,86.5484564 186.763025,85.5809461 186.543681,85.3186368 C186.324336,85.0567432 185.60572,84.9716692 184.389089,85.063832 L184.389089,85.063832 Z M189.607818,98.570562 L189.284858,101.465581 L185.989252,101.09943 L185.292362,107.349854 L188.587969,107.716006 L188.265009,110.611432 L178.851988,109.565524 L179.174947,106.670505 L182.853259,107.079194 L183.550149,100.828348 L179.871837,100.419659 L180.194796,97.5246398 L189.607818,98.570548 L189.607818,98.570562 Z M180.387401,113.679565 C180.311362,113.933536 180.72373,114.265907 181.627012,114.678349 C182.530712,115.090374 184.290481,115.686726 186.903819,116.466567 L183.769901,126.932332 L177.0216,124.918912 L176.8127,125.616602 L173.520864,124.634499 L174.356462,121.84374 L174.733316,121.956338 C174.932606,122.015973 175.090117,122.014305 175.205429,121.951751 C175.319071,121.889196 175.409733,121.748241 175.475328,121.528049 L177.166166,115.883142 C177.287745,115.476956 177.159899,115.217563 176.784714,115.1058 L176.40786,114.99362 L177.243876,112.20244 L180.535304,113.184543 L180.387404,113.679557 L180.387401,113.679565 Z M177.857207,122.128161 L182.254541,123.440134 L183.717258,118.556307 C182.492687,118.190989 181.506262,117.839018 180.75673,117.499973 C180.006363,117.161345 179.582714,116.889442 179.487038,116.685932 L177.857204,122.128158 L177.857207,122.128161 Z" id="_76253576" fill="#C91F2F"></path>
                    <path d="M5.21858813,162.14425 L5.21858813,166.561008 C5.21858813,167.149853 5.36607086,167.58273 5.66103771,167.859636 C5.95600457,168.13696 6.45067815,168.284172 7.14464211,168.30127 L7.14464211,169.41849 L6.416,169.41849 C4.64619604,169.193294 2.86762901,169.193294 1.08028484,169.41849 L0.351642725,169.41849 L0.351642725,168.30127 C1.01092993,168.214945 1.47510576,168.063146 1.74416738,167.846708 C2.01323042,167.63027 2.14776123,167.201565 2.14776123,166.561008 L2.14776123,153.597247 C2.14776123,152.922077 2.01322985,152.467516 1.74416738,152.233561 C1.47510435,151.999609 1.01092993,151.856985 0.351642725,151.804856 L0.351642725,150.687636 L1.08028484,150.687636 C1.42747569,150.653022 1.8786996,150.618409 2.43395516,150.583795 C2.98921073,150.549182 3.61382119,150.514569 4.30779077,150.479955 C5.62636519,150.376115 6.61571516,150.323986 7.27499956,150.323986 C8.80163165,150.341501 10.0207824,150.653022 10.9315798,151.259383 C11.8423828,151.865325 12.4757662,152.601382 12.8317327,153.467551 C13.1872802,154.333304 13.3652621,155.277462 13.3652621,156.29918 C13.3652621,157.234577 13.1484244,158.191238 12.71433,159.170009 C12.2806548,160.148359 11.4651105,160.949466 10.2681094,161.572926 C9.07069609,162.196385 7.38779991,162.386967 5.21857969,162.144256 L5.21858813,162.14425 Z M5.21858813,160.377709 C5.56577899,160.464451 5.93010075,160.507822 6.31196835,160.507822 C7.35312457,160.507822 8.2380167,160.187544 8.96666022,159.546571 C9.69530233,158.905597 10.0508498,157.78003 10.0337203,156.169474 C10.0337203,155.355434 9.83401213,154.493857 9.43501363,153.584317 C9.03601512,152.675194 8.22047086,152.186019 6.98838505,152.116787 C5.80851903,152.081756 5.2185811,152.488776 5.2185811,153.337431 L5.2185811,160.377718 L5.21858813,160.377709 Z M24.4264651,162.222228 L26.9771253,153.519255 C27.0987049,153.138507 27.0769793,152.753172 26.9119485,152.36325 C26.7473349,151.973746 26.1962583,151.813606 25.2595529,151.882833 L25.2595529,150.687627 L26.0404204,150.687627 C26.7168371,150.791467 27.3848987,150.843596 28.0441831,150.843596 C28.8425978,150.843596 29.6318191,150.791467 30.4126894,150.687627 L31.1676531,150.687627 L31.1676531,151.882833 C31.1154281,151.882833 31.0632033,151.89159 31.0113961,151.908688 C30.9767188,151.908688 30.9027682,151.921616 30.7899631,151.947889 C30.6771573,151.973745 30.5777208,151.99543 30.4908187,152.012528 C30.0918202,152.116786 29.792258,152.272337 29.5929676,152.480435 C29.3932595,152.688116 29.206921,153.034667 29.0331167,153.519255 L25.2595501,163.884928 C24.7042945,165.478398 24.0621368,166.842075 23.3335017,167.976815 C22.6048596,169.111135 21.6501892,169.712903 20.4703246,169.782134 C19.6723276,169.79965 19.0172152,169.561527 18.5054121,169.067764 C17.9936076,168.574001 17.7374965,168.015599 17.7374965,167.392146 C17.7374965,166.907142 17.8720279,166.491364 18.1410903,166.14523 C18.4101534,165.79868 18.7786527,165.625613 19.2474225,165.625613 C19.7851308,165.625613 20.2100317,165.920036 20.5225458,166.50888 C20.5919006,166.647334 20.6441254,166.747004 20.6788028,166.807473 C20.7134802,166.868359 20.7740612,166.993885 20.8609637,167.184467 C21.0518975,167.461373 21.2599622,167.6261 21.4855742,167.677813 C21.7111861,167.677813 21.9585229,167.48306 22.2271682,167.093555 C22.4962312,166.703633 22.6654402,166.335814 22.7347951,165.989263 L17.4772021,153.51926 C17.130429,152.705637 16.6010773,152.203117 15.8899881,152.01253 C15.8548929,151.995432 15.6815056,151.960818 15.3694107,151.90869 C15.3171857,151.891591 15.2390573,151.882834 15.1350258,151.882834 L15.1350258,150.687628 L15.8899895,150.687628 C16.7573414,150.791469 17.5987895,150.843597 18.4143323,150.843597 C19.4379413,150.843597 20.4444264,150.791469 21.433346,150.687628 L22.2142135,150.687628 L22.2142135,151.882834 C21.7629896,151.882834 21.4032646,151.921617 21.1342015,151.999602 C20.8651385,152.077586 20.7222511,152.272339 20.7047039,152.584277 C20.7222514,152.670602 20.7393812,152.76193 20.7569288,152.857013 C20.7740586,152.952096 20.7828324,153.02591 20.7828324,153.077621 C20.8175097,153.181878 20.8392352,153.255275 20.8480091,153.298646 C20.8563651,153.342017 20.8780907,153.415414 20.912768,153.519253 L24.4264665,162.222226 L24.4264651,162.222228 Z M32.3646593,151.804845 L32.3646593,150.687624 L33.0673976,150.687624 C34.0391989,150.80898 34.8806513,150.869449 35.5921625,150.869449 C36.529287,150.869449 37.3966389,150.80898 38.1946416,150.687624 L38.8973799,150.687624 L38.8973799,151.804845 C38.2727694,151.804845 37.8131903,151.917442 37.5182249,152.142638 C37.223258,152.367834 37.0757753,152.809468 37.0757753,153.46754 L37.0757753,166.638559 C37.0757753,167.244919 37.227437,167.673626 37.5311768,167.924676 C37.8349166,168.175728 38.2903181,168.301253 38.8973813,168.301253 L38.8973813,169.418473 L38.194643,169.418473 C36.4941982,169.176179 34.7853982,169.176179 33.0674131,169.418473 L32.3646748,169.418473 L32.3646748,168.301253 C33.1284114,168.232026 33.5967648,168.050201 33.7701514,167.75578 C33.9439557,167.461357 34.0304401,167.08895 34.0304401,166.638559 L34.0304401,153.46754 C34.0304401,152.809468 33.9088605,152.380762 33.6661197,152.181423 C33.4233783,151.9825 32.9892853,151.856974 32.3646748,151.804846 L32.3646593,151.804845 Z M48.1629538,168.951051 L46.0547376,169.704205 C45.4129976,169.946916 44.593273,169.630808 43.5955763,168.755882 C42.5978711,167.881373 41.6348413,166.768745 40.7064897,165.417985 C39.7781394,164.066811 38.984327,162.759427 38.3250286,161.494999 C37.6657414,160.230567 37.3360978,159.416532 37.3360978,159.052882 C37.3360978,158.949042 37.3879048,158.810588 37.4919371,158.637522 C37.7522258,158.290971 38.0559655,157.98779 38.4031578,157.727981 C39.0102196,157.122039 39.8474901,156.225842 40.9145459,155.039392 C41.981606,153.852945 42.5673635,153.077681 42.6713952,152.714045 C42.7754272,152.315783 42.6972987,152.047216 42.4370103,151.908763 C42.2118161,151.87415 42.0814629,151.848294 42.0467861,151.830779 C41.3699516,151.796165 40.9450493,151.787408 40.7716628,151.804923 L40.7716628,150.687703 L41.5003049,150.687703 C42.2811724,150.809058 43.1138504,150.869528 43.9987383,150.869528 C44.9876691,150.869528 45.8988913,150.809058 46.7315664,150.687703 L47.4602085,150.687703 L47.4602085,151.804923 C47.4430788,151.822438 47.3908538,151.830779 47.3043692,151.830779 C47.2521442,151.848294 47.0699844,151.882907 46.7574702,151.934619 C46.2022147,152.073489 45.5517018,152.454236 44.8055124,153.077695 C44.7537054,153.129824 44.6927066,153.190293 44.6233516,153.259937 C44.5539968,153.329164 44.4846422,153.398391 44.4152869,153.467618 C43.0620343,154.905117 41.5437545,156.481065 39.860442,158.195896 C41.2141124,160.429926 42.6108104,162.599302 44.0509651,164.70321 C45.4911198,166.807539 46.5669528,167.911827 47.278042,168.015667 C47.5383307,168.033182 47.8332976,167.989811 48.1629412,167.885971 L48.1629412,168.951063 L48.1629538,168.951051 Z M59.3808598,162.975867 L54.3576615,162.975867 C54.3229842,163.11432 54.2924848,163.239847 54.2665812,163.352443 C54.2402599,163.465041 54.2101784,163.573468 54.1755009,163.677309 C53.9670185,164.369995 53.8195358,164.898371 53.7330514,165.262018 C53.4898921,166.162383 53.4117643,166.768748 53.4986665,167.080268 C53.5333438,167.565272 53.8542139,167.920581 54.4616935,168.145777 C54.4963708,168.145777 54.5615475,168.158705 54.6568063,168.184561 C54.7520646,168.210416 54.8347881,168.232102 54.9041431,168.249617 C54.9734978,168.249617 55.0211269,168.253787 55.0470304,168.262545 C55.0733517,168.271303 55.1034333,168.284231 55.1385285,168.301329 L55.1385285,169.418549 L54.4094686,169.418549 C52.9346414,169.193353 51.4426818,169.193353 49.933168,169.418549 L49.1523004,169.418549 L49.1523004,168.301329 C49.7246855,168.162875 50.1500056,167.993978 50.4274238,167.795056 C50.7052597,167.595716 50.9655499,167.22748 51.2082913,166.690764 L57.3766816,149.778605 C57.4982612,149.449569 57.7063252,149.258987 58.0012921,149.206858 C58.296259,149.155147 58.4959671,149.311115 58.5999987,149.674765 L63.9616233,166.69082 C64.0827852,166.933114 64.1437842,167.054469 64.1437842,167.054469 C64.213139,167.262567 64.2824936,167.418117 64.3518489,167.521959 C64.6814925,167.937736 65.1498459,168.206303 65.7573255,168.327658 L65.7573255,169.418605 L64.8724263,169.418605 C63.1891138,169.193409 61.5321186,169.193409 59.9010329,169.418605 L59.146487,169.418605 L59.146487,168.301385 C59.528356,168.301385 59.8663548,168.232158 60.1613216,168.093704 C60.4562885,167.95525 60.6125455,167.764668 60.6300928,167.521957 C60.6647701,167.175824 60.621319,166.898499 60.4997394,166.690819 L59.3808731,162.97592 L59.3808598,162.975867 Z M58.8602824,161.209326 L56.9860389,154.94847 L54.8519131,161.209326 L58.8602824,161.209326 L58.8602824,161.209326 Z M81.9721593,168.301322 L81.9721593,169.418542 L81.1912918,169.418542 C79.4737146,169.176248 77.7557296,169.176248 76.0381524,169.418542 L75.3090926,169.418542 L75.3090926,168.301322 C75.933703,168.24961 76.3936999,168.102399 76.6886667,167.859688 C76.9836336,167.617394 77.1311163,167.201617 77.1311163,166.612772 L77.1311163,153.4676 C77.1311163,152.878756 76.9794546,152.462978 76.6757148,152.220684 C76.371975,151.977973 75.9165735,151.839519 75.3090926,151.804906 L75.3090926,150.687686 L76.0381524,150.687686 C76.9055044,150.809042 77.660461,150.869511 78.3022052,150.869511 C78.6665255,150.869511 79.0224907,150.856583 79.3692652,150.830727 C79.7164561,150.804872 80.1025027,150.774429 80.527405,150.739815 C80.9527251,150.705202 81.2865463,150.687686 81.5297055,150.687686 L85.3036941,150.687686 C85.6157904,150.687686 86.0670129,150.7223 86.6569466,150.791527 C87.2468789,150.861171 87.7586834,150.895784 88.1923559,150.895784 C88.9214157,150.895784 89.7716367,150.826557 90.7430161,150.687686 L91.5238836,150.687686 L91.5238836,151.804906 C90.9168218,151.839519 90.4610025,151.977973 90.1576791,152.220684 C89.8539393,152.462978 89.7018599,152.878755 89.7018599,153.4676 L89.7018599,166.612772 C89.7018599,167.201616 89.8493426,167.617394 90.1443095,167.859688 C90.4392763,168.102399 90.8992731,168.249609 91.5238836,168.301322 L91.5238836,169.418542 L90.7430161,169.418542 C89.0601255,169.176248 87.3421264,169.176248 85.5898767,169.418542 L84.8349131,169.418542 L84.8349131,168.301322 C85.4423926,168.214997 85.8936165,168.054858 86.1885834,167.820904 C86.4835502,167.586951 86.631033,167.184517 86.631033,166.61277 L86.631033,154.506839 C86.631033,153.88338 86.5963557,153.463016 86.5265831,153.246578 C86.4572284,153.03014 86.192762,152.848315 85.7327637,152.701104 C85.2731846,152.553894 84.4793652,152.480497 83.3513026,152.480497 C82.2930169,152.497595 81.5426485,152.571409 81.1002046,152.701104 C80.657755,152.831217 80.3974663,153.013042 80.3193371,153.246578 C80.2412085,153.480531 80.2023532,153.90048 80.2023532,154.506839 L80.2023532,166.61277 C80.2023532,167.201615 80.349836,167.617393 80.6448028,167.859686 C80.9397697,168.102397 81.3822193,168.249608 81.9721516,168.30132 L81.9721593,168.301322 Z M93.5021742,160.404048 C93.5021742,158.498638 93.8577217,156.797159 94.5692343,155.299203 C95.2807469,153.800813 96.2350066,152.614784 97.4319895,151.739867 C98.6294027,150.865358 99.878618,150.393281 101.180069,150.32406 C102.15187,150.254833 103.140804,150.42373 104.147277,150.830751 C105.153338,151.237772 106.034054,151.830786 106.789029,152.610208 C107.543575,153.389636 108.159411,154.372579 108.636533,155.559015 C109.114077,156.745045 109.360997,158.065772 109.378545,159.520793 C109.395674,161.391174 109.057675,163.092653 108.363292,164.625638 C107.669327,166.158216 106.723851,167.379275 105.526432,168.288406 C104.329437,169.19753 102.993312,169.695467 101.518485,169.782206 C100.459782,169.834335 99.4407638,169.643752 98.4601994,169.210876 C97.4800415,168.777584 96.6168728,168.132439 95.870675,167.275449 C95.1244856,166.418037 94.5475038,165.400491 94.1397352,164.222802 C93.7319624,163.045112 93.5193037,161.772345 93.5021728,160.404063 L93.5021742,160.404048 Z M97.1457997,158.845187 C97.0939927,160.663844 97.1934288,162.165983 97.4453619,163.352433 C97.6968777,164.538881 98.0570205,165.478454 98.5253739,166.171131 C98.9937273,166.863817 99.5101271,167.357579 100.073738,167.652 C100.637766,167.946423 101.18007,168.076119 101.700646,168.041505 C102.724255,167.95518 103.665559,167.340062 104.524551,166.196986 C105.383546,165.05391 105.786722,162.958338 105.734916,159.910268 C105.700239,158.230481 105.496352,156.805899 105.123258,155.636971 C104.750163,154.467621 104.242536,153.580181 103.600381,152.973822 C102.958641,152.367879 102.229999,152.047183 101.414451,152.012571 C100.373294,151.977957 99.4232207,152.502162 98.5642282,153.584348 C97.7056506,154.666956 97.2327019,156.420568 97.1458054,158.845163 L97.1457997,158.845187 Z M121.741211,163.781145 L126.374192,150.687682 C127.085287,150.843651 127.779251,150.921635 128.456091,150.921635 C129.132925,150.921635 129.835665,150.84365 130.564307,150.687682 L131.345175,150.687682 L131.345175,151.804902 C130.564307,151.804902 129.974375,151.91333 129.575371,152.129768 C129.176372,152.346206 129.002568,152.792009 129.054793,153.467597 L129.627178,166.638617 C129.661856,167.158234 129.80516,167.561085 130.056676,167.84675 C130.308192,168.132415 130.78114,168.284214 131.475099,168.301312 L131.475099,169.418532 L130.694231,169.418532 C128.959114,169.193336 127.206864,169.193336 125.43706,169.418532 L124.656193,169.418532 L124.656193,168.301312 C125.29835,168.266699 125.775477,168.137002 126.08757,167.911807 C126.400084,167.686611 126.547567,167.262493 126.53002,166.638618 L126.1657,155.571927 L121.480914,168.951048 C121.376882,169.262569 121.229398,169.418538 121.038464,169.418538 C120.830399,169.418538 120.64824,169.236713 120.491983,168.873064 L115.468785,155.234134 C115.451237,156.27337 115.429511,157.208354 115.403608,158.039901 C115.377704,158.871039 115.355979,159.79768 115.338431,160.819399 C115.321301,161.841537 115.312527,163.053836 115.312527,164.456727 C115.312527,165.56519 115.347205,166.352955 115.41656,166.820445 C115.485914,167.288352 115.676848,167.639072 115.989362,167.872609 C116.301459,168.106562 116.813263,168.249603 117.524772,168.301315 L117.524772,169.418535 L116.770226,169.418535 C115.173812,169.193339 113.586176,169.193339 112.007318,169.418535 L111.278258,169.418535 L111.278258,168.301315 C111.278258,168.301315 111.382707,168.275459 111.590772,168.22333 C111.677674,168.188717 111.755385,168.162861 111.825157,168.145763 C111.894511,168.128248 111.980996,168.102392 112.085445,168.067779 C112.761862,167.877197 113.195539,167.496032 113.386473,166.924702 C113.577406,166.352956 113.690212,165.530574 113.72489,164.456724 C113.759568,163.694395 113.781293,163.118477 113.790067,162.728976 C113.798841,162.339471 113.820567,161.763553 113.855244,161.001228 C113.872374,160.602965 113.898277,160.022877 113.933372,159.26097 C113.96805,158.498642 113.98518,157.918554 113.98518,157.520291 C114.002727,157.17374 114.015679,156.702081 114.024453,156.104484 C114.032809,155.506881 114.04576,154.948479 114.063308,154.428866 C114.132663,153.840022 114.132663,153.398388 114.063308,153.103965 C113.924599,152.411279 113.256538,151.977987 112.059123,151.80492 L112.059123,150.6877 L112.839991,150.6877 C113.568633,150.809055 114.210791,150.869525 114.766039,150.869525 C115.477552,150.869525 116.145613,150.809055 116.770224,150.6877 L121.741195,163.781162 L121.741211,163.781145 Z M133.479289,160.404048 C133.479289,158.498638 133.834836,156.797159 134.546349,155.299203 C135.257862,153.800813 136.212121,152.614784 137.409104,151.739867 C138.606517,150.865358 139.855733,150.393281 141.157183,150.32406 C142.128985,150.254833 143.117918,150.42373 144.124392,150.830751 C145.130452,151.237772 146.011168,151.830786 146.766143,152.610208 C147.520689,153.389636 148.136525,154.372579 148.613647,155.559015 C149.091192,156.745045 149.338112,158.065772 149.355659,159.520793 C149.372789,161.391174 149.03479,163.092653 148.340407,164.625638 C147.646441,166.158216 146.700966,167.379275 145.503547,168.288406 C144.306552,169.19753 142.970427,169.695467 141.4956,169.782206 C140.436896,169.834335 139.417879,169.643752 138.437314,169.210876 C137.457156,168.777584 136.593988,168.132439 135.84779,167.275449 C135.1016,166.418037 134.524619,165.400491 134.11685,164.222802 C133.709077,163.045112 133.496418,161.772345 133.479288,160.404063 L133.479289,160.404048 Z M137.122914,158.845187 C137.071107,160.663844 137.170544,162.165983 137.422477,163.352433 C137.673992,164.538881 138.034135,165.478454 138.502489,166.171131 C138.970842,166.863817 139.487242,167.357579 140.050853,167.652 C140.614881,167.946423 141.157185,168.076119 141.677761,168.041505 C142.70137,167.95518 143.642673,167.340062 144.501666,166.196986 C145.360661,165.05391 145.763837,162.958338 145.712031,159.910268 C145.677354,158.230481 145.473467,156.805899 145.100372,155.636971 C144.727278,154.467621 144.219651,153.580181 143.577496,152.973822 C142.935756,152.367879 142.207114,152.047183 141.391565,152.012571 C140.350409,151.977957 139.400335,152.502162 138.541343,153.584348 C137.682765,154.666956 137.209817,156.420568 137.12292,158.845163 L137.122914,158.845187 Z M167.209947,151.804901 L167.209947,150.687681 L167.939007,150.687681 C168.910391,150.809036 169.760616,150.869506 170.48926,150.869506 C171.391706,150.869506 172.233154,150.809036 173.014024,150.687681 L173.768988,150.687681 L173.768988,151.804901 C173.144378,151.857029 172.693155,151.990896 172.415318,152.20775 C172.1379,152.424188 171.99919,152.844137 171.99919,153.467594 L171.99919,166.561057 C171.99919,167.53065 172.320059,167.937669 172.961799,167.781702 C173.100926,167.747088 173.21791,167.721232 173.313169,167.704134 C173.408845,167.686619 173.491151,167.677861 173.560506,167.677861 C173.924826,167.695377 174.133308,167.998556 174.185116,168.587402 C174.254471,169.799705 173.73431,171.964499 172.623797,175.081799 L171.556737,175.081799 C171.660769,174.40663 171.712577,173.531699 171.712577,172.458271 C171.573867,170.501152 170.97516,169.453164 169.916877,169.314702 C169.795298,169.297187 169.647814,169.297187 169.474428,169.314702 C169.301041,169.3318 169.075429,169.358073 168.797593,169.392686 C168.571981,169.409785 168.225208,169.418542 167.756437,169.418542 L157.970739,169.418542 C157.623548,169.418542 157.120518,169.383929 156.460817,169.314702 C155.80153,169.245475 155.15979,169.210862 154.535176,169.210862 C153.910566,169.210862 153.112154,169.280089 152.140353,169.418543 L151.411711,169.418543 L151.411711,168.301323 C152.001643,168.214998 152.431141,168.059029 152.700204,167.833833 C152.969267,167.608637 153.10338,167.201617 153.10338,166.612771 L153.10338,153.467599 C153.10338,152.844141 152.96467,152.424193 152.687252,152.207755 C152.409416,151.9909 151.984513,151.857033 151.411711,151.804906 L151.411711,150.687685 L152.140353,150.687685 C153.146831,150.809041 153.988279,150.86951 154.665118,150.86951 C155.567564,150.86951 156.409012,150.809041 157.189882,150.687685 L157.996652,150.687685 L157.996652,151.804906 C157.389173,151.857034 156.937949,151.9909 156.642982,152.207755 C156.348015,152.424193 156.200532,152.844142 156.200532,153.467599 L156.200532,166.534779 C156.200532,167.314207 156.678076,167.704128 157.632332,167.704128 L159.662426,167.704128 C160.061425,167.704128 160.386891,167.595701 160.638405,167.379263 C160.889921,167.162825 161.015677,166.88133 161.015677,166.534779 L161.015677,153.467599 C161.015677,153.051822 160.9505,152.722786 160.820564,152.480492 C160.690211,152.237781 160.443292,152.055956 160.078553,151.934602 C159.870488,151.899988 159.705876,151.88289 159.584295,151.88289 C159.584295,151.88289 159.506167,151.857034 159.349911,151.804905 L159.349911,150.687685 L160.130778,150.687685 C161.050354,150.809041 161.848355,150.86951 162.52518,150.86951 C163.340724,150.86951 164.147488,150.809041 164.945913,150.687685 L165.726363,150.687685 L165.726363,151.804905 C164.841464,151.943359 164.303762,152.203168 164.112817,152.584333 C164.07814,152.688173 164.06101,152.8529 164.06101,153.077679 C164.026333,153.181936 164.008785,153.311632 164.008785,153.467601 L164.008785,166.53478 C164.008785,166.881331 164.117413,167.162826 164.334251,167.379264 C164.551089,167.595702 164.850233,167.70413 165.232102,167.70413 L167.70464,167.70413 C168.103639,167.70413 168.398606,167.630316 168.589539,167.483105 C168.780473,167.335894 168.875732,167.019787 168.875732,166.534782 L168.875732,153.467602 C168.875732,152.861243 168.745796,152.44588 168.485508,152.220686 C168.225219,151.99549 167.799899,151.857037 167.209967,151.804908 L167.209947,151.804901 Z M180.249462,165.651511 L187.771516,150.687682 C188.292093,150.843651 188.838576,150.921635 189.410957,150.921635 C189.931534,150.921635 190.478017,150.84365 191.05082,150.687682 L191.831687,150.687682 L191.831687,151.804902 C191.657883,151.857031 191.562624,151.882887 191.545077,151.882887 C191.406367,151.882887 191.215433,151.899985 190.972692,151.934598 C190.556146,152.055954 190.295857,152.272392 190.191824,152.58433 C190.174694,152.601428 190.122469,152.774912 190.035567,153.103947 C190.035567,153.190272 190.031389,153.255329 190.022615,153.2987 C190.013842,153.342071 190.009664,153.39837 190.009664,153.467597 L190.009664,166.612769 C190.009664,167.201614 190.157146,167.617392 190.452113,167.859685 C190.74708,168.102396 191.207077,168.249607 191.831687,168.301319 L191.831687,169.418539 L191.05082,169.418539 C189.246343,169.176245 187.467776,169.176245 185.715105,169.418539 L184.986462,169.418539 L184.986462,168.301319 C186.305037,168.301319 186.964738,167.738748 186.964738,166.612771 L186.964738,155.078169 L179.729292,169.418482 C178.584104,169.193286 177.430144,169.193286 176.267412,169.418482 L175.512866,169.418482 L175.512866,168.301262 C175.547543,168.284163 175.582221,168.271236 175.616898,168.262478 C175.651575,168.25372 175.686253,168.24955 175.72093,168.24955 C175.807832,168.232035 175.898912,168.210349 175.994171,168.184493 C176.089847,168.158638 176.16338,168.14571 176.215604,168.14571 C176.597055,168.006839 176.848987,167.825015 176.97015,167.599819 C177.091729,167.374623 177.152311,167.045588 177.152311,166.612712 L177.152311,153.46754 C177.152311,153.017148 177.095908,152.679356 176.983102,152.45416 C176.870296,152.228964 176.614602,152.055897 176.215604,151.934542 C176.007121,151.899929 175.842509,151.882831 175.720929,151.882831 C175.720929,151.865315 175.651574,151.83946 175.512864,151.804846 L175.512864,150.687626 L176.26741,150.687626 C177.239211,150.808981 178.071886,150.869451 178.766265,150.869451 C179.685841,150.869451 180.536069,150.808982 181.316926,150.687626 L182.097375,150.687626 L182.097375,151.804846 C181.490314,151.839459 181.030315,151.977913 180.71822,152.220624 C180.405706,152.462918 180.249449,152.878695 180.249449,153.46754 L180.249449,165.651463 L180.249462,165.651511 Z" id="_76252656" fill="#0F3076"></path>
                </g>
            </g>
        </g>
    </g>
</svg>