<?xml version="1.0" encoding="UTF-8" standalone="no"?>
<svg width="351px" height="76px" viewBox="0 0 351 76" version="1.1" xmlns="http://www.w3.org/2000/svg" xmlns:xlink="http://www.w3.org/1999/xlink" xmlns:sketch="http://www.bohemiancoding.com/sketch/ns">
    <!-- Generator: Sketch 3.3.1 (12002) - http://www.bohemiancoding.com/sketch -->
    <title>СОДЕЙСТВИЕ + Path 16 + Path 16 + РЕГИОНАЛЬНАЯ ОБЩЕСТВ</title>
    <desc>Created with Sketch.</desc>
    <defs>
        <linearGradient x1="50%" y1="0%" x2="50%" y2="100%" id="linearGradient-1">
            <stop stop-color="#D67728" offset="0%"></stop>
            <stop stop-color="#FCB614" offset="100%"></stop>
        </linearGradient>
    </defs>
    <g id="Page-1" stroke="none" stroke-width="1" fill="none" fill-rule="evenodd" sketch:type="MSPage">
        <g id="Artboard-5" sketch:type="MSArtboardGroup" transform="translate(-227.000000, -159.000000)">
            <g id="СОДЕЙСТВИЕ-+-Path-16-+-Path-16-+-РЕГИОНАЛЬНАЯ-ОБЩЕСТВ" sketch:type="MSLayerGroup" transform="translate(227.000000, 159.000000)">
                <g id="СОДЕЙСТВИЕ-+-Path-16-+-Path-16" sketch:type="MSShapeGroup">
                    <path d="M33.5001548,6.66903218 L31.2894735,12.3591705 C29.1997644,10.771217 25.8892748,9.97725216 21.3579054,9.97725216 C16.9365208,9.97725216 13.4885524,11.8684323 11.0138968,15.6508494 C8.53924118,19.4332665 7.30193195,24.0922964 7.30193195,29.6280788 C7.30193195,34.8771475 8.55573864,39.2825497 11.0633896,42.8444177 C13.5710406,46.4062857 17.0245082,48.1871929 21.4238959,48.1871929 C25.9112714,48.1871929 29.3757372,46.5882359 31.8173974,43.390274 L35.4798694,48.4849327 C31.6304051,52.2783773 26.6921665,54.1750711 20.6650053,54.1750711 C14.2858931,54.1750711 9.30366128,51.8703676 5.71816029,47.2608913 C2.1326593,42.6514151 0.339935698,36.6635968 0.339935698,29.2972568 C0.339935698,22.2396856 2.23714319,16.2628946 6.0316151,11.3667046 C9.826087,6.4705145 14.8688095,4.02245619 21.159934,4.02245619 C26.3292145,4.02245619 30.4425803,4.90463937 33.5001548,6.66903218 L33.5001548,6.66903218 Z M39.3985198,33.1254612 C39.3985198,27.3527298 40.8378876,22.5346525 43.7166664,18.6710846 C46.5954453,14.8075168 50.4803848,12.8757618 55.3716015,12.8757618 C60.9125739,12.8757618 65.1404349,14.6763203 68.0553112,18.2774913 C70.9701876,21.8786622 72.4276039,26.827936 72.4276039,33.1254612 C72.4276039,39.6039496 70.9611634,44.70704 68.0282382,48.4348853 C65.0953131,52.1627306 60.8764763,54.0266253 55.3716015,54.0266253 C50.3179458,54.0266253 46.3923972,52.0722503 43.5948378,48.1634416 C40.7972785,44.2546329 39.3985198,39.2420229 39.3985198,33.1254612 L39.3985198,33.1254612 Z M45.1109269,33.1254612 C45.1109269,37.7219306 45.9998155,41.5356763 47.7776194,44.5668127 C49.5554233,47.5979491 52.0867253,49.1134945 55.3716015,49.1134945 C59.0896481,49.1134945 61.9142382,47.7246215 63.8454566,44.9468339 C65.7766751,42.1690462 66.7422698,38.2286281 66.7422698,33.1254612 C66.7422698,22.8829347 62.9520849,17.7617483 55.3716015,17.7617483 C52.0867253,17.7617483 49.5554233,19.1053811 47.7776194,21.7926871 C45.9998155,24.479993 45.1109269,28.2575466 45.1109269,33.1254612 L45.1109269,33.1254612 Z M119.537027,53.3480161 L116.65925,53.3480161 L113.531893,53.3480161 L81.2955408,53.3480161 L78.1279974,53.3480161 L75.2904066,53.3480161 L75.2904066,47.7902065 L78.1279974,47.7902065 C81.2295658,43.6879933 83.7921707,39.5251914 85.815889,35.3016761 C87.8396074,31.0781608 89.4618573,26.8602225 90.6826874,22.6477347 C91.9035175,18.4352468 93.3277979,12.5246196 94.9555713,4.91567559 L114.389769,4.91567559 L114.389769,47.7902065 L119.537027,47.7902065 L119.537027,53.3480161 Z M108.054683,47.7902065 L108.054683,10.4734852 L99.4759196,10.4734852 C96.5503268,25.978087 91.7110729,38.4168697 84.9580127,47.7902065 L108.054683,47.7902065 Z M130.237469,18.4946462 L130.237469,29.4881157 L143.340811,29.4881157 L143.340811,34.1026584 L130.237469,34.1026584 L130.237469,48.4620297 L148.213954,48.4620297 L148.213954,53.3480161 L124.822865,53.3480161 L124.822865,13.6086598 L148.484684,13.6086598 L148.484684,18.4946462 L130.237469,18.4946462 Z M183.705499,53.0180424 L178.263822,53.0180424 L178.263822,24.4893105 L155.982727,53.5609298 L154.547856,53.5609298 L154.547856,13.278686 L159.96246,13.278686 L159.96246,41.7802736 L182.270629,12.7086543 L183.705499,12.7086543 L183.705499,53.0180424 Z M216.97401,15.0473113 L215.160118,19.7161428 C213.445484,18.4132066 210.729185,17.7617483 207.011139,17.7617483 C203.383336,17.7617483 200.554234,19.3134858 198.523747,22.4170075 C196.49326,25.5205293 195.478032,29.343323 195.478032,33.8855035 C195.478032,38.1924316 196.506797,41.8071206 198.564356,44.7296789 C200.621916,47.6522373 203.455531,49.1134945 207.065285,49.1134945 C210.747234,49.1134945 213.589872,47.8015298 215.593286,45.177561 L218.598391,49.3577939 C215.439856,52.4703637 211.387968,54.0266253 206.442605,54.0266253 C201.208462,54.0266253 197.120477,52.1355865 194.178527,48.3534522 C191.236578,44.5713179 189.765625,39.6582362 189.765625,33.6140598 C189.765625,27.8232321 191.322308,22.9191985 194.435721,18.9018118 C197.549134,14.884425 201.686752,12.8757618 206.848701,12.8757618 C211.090162,12.8757618 214.465231,13.5996044 216.97401,15.0473113 L216.97401,15.0473113 Z M239.563738,18.4946462 L239.563738,53.3480161 L234.122061,53.3480161 L234.122061,18.4946462 L221.533106,18.4946462 L221.533106,13.6086598 L252.748298,13.6086598 L252.748298,18.4946462 L239.563738,18.4946462 Z M269.409035,53.3480161 L258.119585,53.3480161 L258.119585,13.6086598 C262.613729,13.3372147 266.088065,13.2014942 268.542698,13.2014942 C272.369037,13.2014942 275.374112,14.0384373 277.558014,15.7123484 C279.741915,17.3862595 280.833849,19.8337523 280.833849,23.0549002 C280.833849,24.8464375 280.152518,26.5112755 278.789836,28.0494641 C277.427154,29.5876527 275.906568,30.5557922 274.228032,30.9539116 C280.256321,32.2930405 283.270421,35.9213016 283.270421,41.8388036 C283.270421,45.3494929 281.998002,48.145335 279.453125,50.2264137 C276.908248,52.3074924 273.560252,53.3480161 269.409035,53.3480161 L269.409035,53.3480161 Z M263.534189,17.9246145 L263.534189,29.3252495 C264.653213,29.4338275 266.060996,29.4881157 267.75758,29.4881157 C272.90148,29.4881157 275.473391,27.3980202 275.473391,23.2177664 C275.473391,19.5442101 273.100013,17.7074595 268.353187,17.7074595 C267.017578,17.7074595 265.411261,17.7798438 263.534189,17.9246145 L263.534189,17.9246145 Z M263.534189,33.5597711 L263.534189,48.7334734 C265.555652,48.9144367 266.981483,49.0049171 267.811727,49.0049171 C271.096603,49.0049171 273.542174,48.3851268 275.148515,47.1455278 C276.754855,45.9059287 277.558014,43.8565494 277.558014,40.9973282 C277.558014,38.3190704 276.78644,36.3873154 275.24327,35.2020054 C273.700101,34.0166953 271.484647,33.4240492 268.596844,33.4240492 C268.434405,33.4240492 266.74687,33.4692894 263.534189,33.5597711 L263.534189,33.5597711 Z M318.503249,53.3480161 L313.061572,53.3480161 L313.061572,24.8192842 L290.780476,53.8909035 L289.345606,53.8909035 L289.345606,13.6086598 L294.76021,13.6086598 L294.76021,42.1102473 L317.068379,13.038628 L318.503249,13.038628 L318.503249,53.3480161 Z M331.752785,18.4946462 L331.752785,29.4881157 L344.856126,29.4881157 L344.856126,34.1026584 L331.752785,34.1026584 L331.752785,48.4620297 L349.72927,48.4620297 L349.72927,53.3480161 L326.338181,53.3480161 L326.338181,13.6086598 L350,13.6086598 L350,18.4946462 L331.752785,18.4946462 Z" id="СОДЕЙСТВИЕ" fill="url(#linearGradient-1)"></path>
                    <g id="Path-16-+-Path-16" transform="translate(165.470297, 0.000000)">
                        <path d="M0.0110645554,17.0266565 C0.0110645554,17.0266565 -0.304394976,10.3950063 2.43351129,6.44327761 C3.93037038,4.28280149 7.80027691,3.49386841 10.3223544,2.49973899 C12.413411,1.67550543 13.3439383,0.460986268 13.3439383,0.460986268 C13.3439383,0.460986268 14.2543037,5.03992265 10.3223538,9.92524495 C6.39040395,14.8105673 0.0110645554,17.0266565 0.0110645554,17.0266565 Z" id="Path-16" fill="#056937"></path>
                        <path d="M0,17.0266565 C0,17.0266565 2.02929935,12.6955501 4.76720562,8.74382139 C6.26406471,6.58334527 9.26721239,5.41600364 11.300043,3.88094277 C13.3328737,2.3458819 13.3328737,0.460986268 13.3328737,0.460986268 C13.3328737,0.460986268 14.2432392,5.03992265 10.3112893,9.92524495 C6.37933939,14.8105673 0,17.0266565 0,17.0266565 Z" id="Path-15" fill="#8CC641"></path>
                    </g>
                </g>
                <path d="M9.06005464,70.6828928 C9.30938922,70.6828928 9.52388708,70.6517264 9.70355464,70.5893928 C9.88322221,70.5270591 10.0317207,70.4188935 10.1490546,70.2648928 C10.2663886,70.110892 10.3525544,69.9018941 10.4075546,69.6378928 C10.4625549,69.3738915 10.4900546,69.0438948 10.4900546,68.6478928 C10.4900546,68.2518908 10.4625549,67.9218941 10.4075546,67.6578928 C10.3525544,67.3938915 10.2663886,67.1848935 10.1490546,67.0308928 C10.0317207,66.876892 9.88322221,66.7687264 9.70355464,66.7063928 C9.52388708,66.6440591 9.30938922,66.6128928 9.06005464,66.6128928 L8.29005464,66.6128928 L8.29005464,70.6828928 L9.06005464,70.6828928 Z M8.29005464,73.7078928 L7.30005464,73.7078928 L7.30005464,66.1178928 C7.5787227,66.0372257 7.8592199,65.9803929 8.14155464,65.9473928 C8.42388939,65.9143926 8.73005299,65.8978928 9.06005464,65.8978928 C9.50005684,65.8978928 9.8740531,65.9437257 10.1820546,66.0353928 C10.4900562,66.1270599 10.739387,66.279225 10.9300546,66.4918928 C11.1207223,66.7045605 11.2600542,66.986891 11.3480546,67.3388928 C11.4360551,67.6908945 11.4800546,68.1272235 11.4800546,68.6478928 C11.4800546,69.1832288 11.4378884,69.6305576 11.3535546,69.9898928 C11.2692209,70.3492279 11.1408888,70.6370584 10.9685546,70.8533928 C10.7962204,71.0697272 10.5798893,71.2237257 10.3195546,71.3153928 C10.05922,71.4070599 9.74938977,71.4528928 9.39005464,71.4528928 C9.22138713,71.4528928 9.03072237,71.4418929 8.81805464,71.4198928 C8.60538691,71.3978927 8.42938867,71.3722263 8.29005464,71.3428928 L8.29005464,73.7078928 Z M14.0000546,72.9378928 L16.7500546,72.9378928 L16.7500546,73.7078928 L13.0100546,73.7078928 L13.0100546,66.0078928 L16.7500546,66.0078928 L16.7500546,66.7778928 L14.0000546,66.7778928 L14.0000546,69.3078928 L16.4200546,69.3078928 L16.4200546,70.0778928 L14.0000546,70.0778928 L14.0000546,72.9378928 Z M18.2800546,66.0078928 L21.8000546,66.0078928 L21.8000546,66.7778928 L19.2700546,66.7778928 L19.2700546,73.7078928 L18.2800546,73.7078928 L18.2800546,66.0078928 Z M26.5200546,67.9878928 L26.4650546,67.9878928 L24.2100546,73.7078928 L23.1100546,73.7078928 L23.1100546,66.0078928 L24.1000546,66.0078928 L24.1000546,71.7278928 L24.1550546,71.7278928 L26.3550546,66.0078928 L27.5100546,66.0078928 L27.5100546,73.7078928 L26.5200546,73.7078928 L26.5200546,67.9878928 Z M31.5150546,65.8978928 C31.8890565,65.8978928 32.2208865,65.9602255 32.5105546,66.0848928 C32.8002227,66.2095601 33.0477203,66.4222246 33.2530546,66.7228928 C33.458389,67.0235609 33.6142208,67.4287236 33.7205546,67.9383928 C33.8268885,68.448062 33.8800546,69.0878889 33.8800546,69.8578928 C33.8800546,70.6278966 33.8268885,71.2677236 33.7205546,71.7773928 C33.6142208,72.287062 33.458389,72.6922246 33.2530546,72.9928928 C33.0477203,73.2935609 32.8002227,73.5062255 32.5105546,73.6308928 C32.2208865,73.7555601 31.8890565,73.8178928 31.5150546,73.8178928 C31.1410527,73.8178928 30.8092227,73.7555601 30.5195546,73.6308928 C30.2298865,73.5062255 29.982389,73.2935609 29.7770546,72.9928928 C29.5717203,72.6922246 29.4158885,72.287062 29.3095546,71.7773928 C29.2032208,71.2677236 29.1500546,70.6278966 29.1500546,69.8578928 C29.1500546,69.0878889 29.2032208,68.448062 29.3095546,67.9383928 C29.4158885,67.4287236 29.5717203,67.0235609 29.7770546,66.7228928 C29.982389,66.4222246 30.2298865,66.2095601 30.5195546,66.0848928 C30.8092227,65.9602255 31.1410527,65.8978928 31.5150546,65.8978928 L31.5150546,65.8978928 Z M31.5150546,73.1578928 C31.6910555,73.1578928 31.8633871,73.1102266 32.0320546,73.0148928 C32.2007221,72.919559 32.3473873,72.7472274 32.4720546,72.4978928 C32.5967219,72.2485582 32.6975542,71.9112282 32.7745546,71.4858928 C32.851555,71.0605573 32.8900546,70.5178961 32.8900546,69.8578928 C32.8900546,69.1978895 32.851555,68.6552282 32.7745546,68.2298928 C32.6975542,67.8045573 32.5967219,67.4672274 32.4720546,67.2178928 C32.3473873,66.9685582 32.2007221,66.7962266 32.0320546,66.7008928 C31.8633871,66.605559 31.6910555,66.5578928 31.5150546,66.5578928 C31.3390537,66.5578928 31.1667221,66.605559 30.9980546,66.7008928 C30.8293871,66.7962266 30.6827219,66.9685582 30.5580546,67.2178928 C30.4333873,67.4672274 30.332555,67.8045573 30.2555546,68.2298928 C30.1785542,68.6552282 30.1400546,69.1978895 30.1400546,69.8578928 C30.1400546,70.5178961 30.1785542,71.0605573 30.2555546,71.4858928 C30.332555,71.9112282 30.4333873,72.2485582 30.5580546,72.4978928 C30.6827219,72.7472274 30.8293871,72.919559 30.9980546,73.0148928 C31.1667221,73.1102266 31.3390537,73.1578928 31.5150546,73.1578928 L31.5150546,73.1578928 Z M39.8100546,66.0078928 L39.8100546,73.7078928 L38.8200546,73.7078928 L38.8200546,70.1878928 L36.5100546,70.1878928 L36.5100546,73.7078928 L35.5200546,73.7078928 L35.5200546,66.0078928 L36.5100546,66.0078928 L36.5100546,69.4178928 L38.8200546,69.4178928 L38.8200546,66.0078928 L39.8100546,66.0078928 Z M42.6050546,71.7278928 L42.1100546,73.7078928 L41.1200546,73.7078928 L42.9900546,66.0078928 L44.4200546,66.0078928 L46.2900546,73.7078928 L45.3000546,73.7078928 L44.8050546,71.7278928 L42.6050546,71.7278928 Z M43.7270546,67.1078928 L43.6830546,67.1078928 L42.7700546,70.9578928 L44.6400546,70.9578928 L43.7270546,67.1078928 Z M47.4900546,73.8178928 C47.3067203,73.8178928 47.1490553,73.7995596 47.0170546,73.7628928 C46.9437209,73.748226 46.8813882,73.7298929 46.8300546,73.7078928 L46.8300546,73.2128928 C46.9840554,73.2128928 47.1233873,73.1835597 47.2480546,73.1248928 C47.3727219,73.0662258 47.4827208,72.9653935 47.5780546,72.8223928 C47.6733884,72.6793921 47.7522209,72.4923939 47.8145546,72.2613928 C47.8768882,72.0303916 47.9153879,71.7425612 47.9300546,71.3978928 L48.2050546,66.0078928 L51.8900546,66.0078928 L51.8900546,73.7078928 L50.9000546,73.7078928 L50.9000546,66.7778928 L49.1620546,66.7778928 L48.9200546,71.3978928 C48.8980545,71.837895 48.8448883,72.2118912 48.7605546,72.5198928 C48.6762208,72.8278943 48.5698886,73.0772252 48.4415546,73.2678928 C48.3132206,73.4585604 48.1665554,73.5978923 48.0015546,73.6858928 C47.8365538,73.7738932 47.6660555,73.8178928 47.4900546,73.8178928 L47.4900546,73.8178928 Z M54.7400546,69.8028928 L54.7400546,73.1028928 L55.5100546,73.1028928 C56.0087237,73.1028928 56.3717201,72.9800607 56.5990546,72.7343928 C56.8263891,72.4887249 56.9400546,72.0615625 56.9400546,71.4528928 C56.9400546,70.8442231 56.8263891,70.4170607 56.5990546,70.1713928 C56.3717201,69.9257249 56.0087237,69.8028928 55.5100546,69.8028928 L54.7400546,69.8028928 Z M55.8400546,69.0328928 C56.5513915,69.0328928 57.0775529,69.2162243 57.4185546,69.5828928 C57.7595563,69.9495613 57.9300546,70.5728884 57.9300546,71.4528928 C57.9300546,71.8782282 57.886055,72.2412246 57.7980546,72.5418928 C57.7100541,72.8425609 57.5707222,73.0863918 57.3800546,73.2733928 C57.189387,73.4603937 56.9400561,73.5978923 56.6320546,73.6858928 C56.324053,73.7738932 55.9500568,73.8178928 55.5100546,73.8178928 C55.1800529,73.8178928 54.8738893,73.8013929 54.5915546,73.7683928 C54.3092198,73.7353926 54.0287226,73.6785598 53.7500546,73.5978928 L53.7500546,66.0078928 L54.7400546,66.0078928 L54.7400546,69.1428928 C54.8793886,69.1135593 55.0553869,69.0878929 55.2680546,69.0658928 C55.4807223,69.0438927 55.6713871,69.0328928 55.8400546,69.0328928 L55.8400546,69.0328928 Z M63.7500546,66.0078928 L63.7500546,73.7078928 L62.7600546,73.7078928 L62.7600546,70.1878928 L60.4500546,70.1878928 L60.4500546,73.7078928 L59.4600546,73.7078928 L59.4600546,66.0078928 L60.4500546,66.0078928 L60.4500546,69.4178928 L62.7600546,69.4178928 L62.7600546,66.0078928 L63.7500546,66.0078928 Z M66.5450546,71.7278928 L66.0500546,73.7078928 L65.0600546,73.7078928 L66.9300546,66.0078928 L68.3600546,66.0078928 L70.2300546,73.7078928 L69.2400546,73.7078928 L68.7450546,71.7278928 L66.5450546,71.7278928 Z M67.6670546,67.1078928 L67.6230546,67.1078928 L66.7100546,70.9578928 L68.5800546,70.9578928 L67.6670546,67.1078928 Z M74.5100546,69.8028928 L74.5100546,66.6128928 L73.7400546,66.6128928 C73.2413854,66.6128928 72.878389,66.7338916 72.6510546,66.9758928 C72.4237201,67.217894 72.3100546,67.6285565 72.3100546,68.2078928 C72.3100546,68.787229 72.4237201,69.1978916 72.6510546,69.4398928 C72.878389,69.681894 73.2413854,69.8028928 73.7400546,69.8028928 L74.5100546,69.8028928 Z M72.8050546,70.2978928 C72.6290537,70.2685593 72.4512221,70.2062266 72.2715546,70.1108928 C72.091887,70.015559 71.9323886,69.881727 71.7930546,69.7093928 C71.6537205,69.5370586 71.540055,69.3262274 71.4520546,69.0768928 C71.3640541,68.8275582 71.3200546,68.5378944 71.3200546,68.2078928 C71.3200546,67.7972241 71.3640541,67.4452276 71.4520546,67.1518928 C71.540055,66.858558 71.6793869,66.6183937 71.8700546,66.4313928 C72.0607222,66.2443918 72.310053,66.1087265 72.6180546,66.0243928 C72.9260561,65.940059 73.3000524,65.8978928 73.7400546,65.8978928 C74.0700562,65.8978928 74.3762198,65.9143926 74.6585546,65.9473928 C74.9408893,65.9803929 75.2213865,66.0372257 75.5000546,66.1178928 L75.5000546,73.7078928 L74.5100546,73.7078928 L74.5100546,70.5728928 L74.0700546,70.5728928 C73.8500535,70.5728928 73.6447222,70.6425587 73.4540546,70.7818928 C73.2633869,70.9212268 73.1203884,71.1815575 73.0250546,71.5628928 L72.8050546,72.4978928 C72.5850535,73.3778972 72.163391,73.8178928 71.5400546,73.8178928 C71.3713871,73.8178928 71.2210552,73.7995596 71.0890546,73.7628928 C71.0157209,73.748226 70.9460549,73.7298929 70.8800546,73.7078928 L70.8800546,73.2128928 C71.1587226,73.2128928 71.3603873,73.1487268 71.4850546,73.0203928 C71.6097219,72.8920588 71.7013876,72.7178939 71.7600546,72.4978928 L71.9800546,71.5628928 C72.0607216,71.2035576 72.1707205,70.9248938 72.3100546,70.7268928 C72.4493886,70.5288918 72.6143869,70.4005597 72.8050546,70.3418928 L72.8050546,70.2978928 Z M82.5750546,65.8978928 C82.9490564,65.8978928 83.2808864,65.9602255 83.5705546,66.0848928 C83.8602227,66.2095601 84.1077202,66.4222246 84.3130546,66.7228928 C84.5183889,67.0235609 84.6742207,67.4287236 84.7805546,67.9383928 C84.8868884,68.448062 84.9400546,69.0878889 84.9400546,69.8578928 C84.9400546,70.6278966 84.8868884,71.2677236 84.7805546,71.7773928 C84.6742207,72.287062 84.5183889,72.6922246 84.3130546,72.9928928 C84.1077202,73.2935609 83.8602227,73.5062255 83.5705546,73.6308928 C83.2808864,73.7555601 82.9490564,73.8178928 82.5750546,73.8178928 C82.2010527,73.8178928 81.8692227,73.7555601 81.5795546,73.6308928 C81.2898864,73.5062255 81.0423889,73.2935609 80.8370546,72.9928928 C80.6317202,72.6922246 80.4758884,72.287062 80.3695546,71.7773928 C80.2632207,71.2677236 80.2100546,70.6278966 80.2100546,69.8578928 C80.2100546,69.0878889 80.2632207,68.448062 80.3695546,67.9383928 C80.4758884,67.4287236 80.6317202,67.0235609 80.8370546,66.7228928 C81.0423889,66.4222246 81.2898864,66.2095601 81.5795546,66.0848928 C81.8692227,65.9602255 82.2010527,65.8978928 82.5750546,65.8978928 L82.5750546,65.8978928 Z M82.5750546,73.1578928 C82.7510554,73.1578928 82.923387,73.1102266 83.0920546,73.0148928 C83.2607221,72.919559 83.4073873,72.7472274 83.5320546,72.4978928 C83.6567218,72.2485582 83.7575542,71.9112282 83.8345546,71.4858928 C83.9115549,71.0605573 83.9500546,70.5178961 83.9500546,69.8578928 C83.9500546,69.1978895 83.9115549,68.6552282 83.8345546,68.2298928 C83.7575542,67.8045573 83.6567218,67.4672274 83.5320546,67.2178928 C83.4073873,66.9685582 83.2607221,66.7962266 83.0920546,66.7008928 C82.923387,66.605559 82.7510554,66.5578928 82.5750546,66.5578928 C82.3990537,66.5578928 82.2267221,66.605559 82.0580546,66.7008928 C81.889387,66.7962266 81.7427218,66.9685582 81.6180546,67.2178928 C81.4933873,67.4672274 81.3925549,67.8045573 81.3155546,68.2298928 C81.2385542,68.6552282 81.2000546,69.1978895 81.2000546,69.8578928 C81.2000546,70.5178961 81.2385542,71.0605573 81.3155546,71.4858928 C81.3925549,71.9112282 81.4933873,72.2485582 81.6180546,72.4978928 C81.7427218,72.7472274 81.889387,72.919559 82.0580546,73.0148928 C82.2267221,73.1102266 82.3990537,73.1578928 82.5750546,73.1578928 L82.5750546,73.1578928 Z M87.5700545,69.0328928 L88.3400545,69.0328928 C88.7800567,69.0328928 89.154053,69.0768923 89.4620545,69.1648928 C89.7700561,69.2528932 90.0193869,69.3922252 90.2100545,69.5828928 C90.4007222,69.7735604 90.5400541,70.0228912 90.6280545,70.3308928 C90.716055,70.6388943 90.7600545,71.0128906 90.7600545,71.4528928 C90.7600545,71.8782282 90.716055,72.2412246 90.6280545,72.5418928 C90.5400541,72.8425609 90.4007222,73.0863918 90.2100545,73.2733928 C90.0193869,73.4603937 89.7700561,73.5978923 89.4620545,73.6858928 C89.154053,73.7738932 88.7800567,73.8178928 88.3400545,73.8178928 C88.0100529,73.8178928 87.7038893,73.8013929 87.4215545,73.7683928 C87.1392198,73.7353926 86.8587226,73.6785598 86.5800545,73.5978928 L86.5800545,66.0078928 L90.4300545,66.0078928 L90.4300545,66.7778928 L87.5700545,66.7778928 L87.5700545,69.0328928 Z M87.5700545,69.8028928 L87.5700545,73.1028928 L88.3400545,73.1028928 C88.8387237,73.1028928 89.2017201,72.9800607 89.4290545,72.7343928 C89.656389,72.4887249 89.7700545,72.0615625 89.7700545,71.4528928 C89.7700545,70.8442231 89.656389,70.4170607 89.4290545,70.1713928 C89.2017201,69.9257249 88.8387237,69.8028928 88.3400545,69.8028928 L87.5700545,69.8028928 Z M92.2900545,73.7078928 L92.2900545,66.0078928 L93.2800545,66.0078928 L93.2800545,72.9378928 L95.1500545,72.9378928 L95.1500545,66.0078928 L96.1400545,66.0078928 L96.1400545,72.9378928 L98.0100545,72.9378928 L98.0100545,66.0078928 L99.0000545,66.0078928 L99.0000545,72.9378928 L99.7150545,72.9378928 L99.7150545,75.3578928 L99.1100545,75.3578928 C98.941387,74.9178906 98.8313881,74.3678961 98.7800545,73.7078928 L92.2900545,73.7078928 Z M102.070055,72.9378928 L104.820055,72.9378928 L104.820055,73.7078928 L101.080055,73.7078928 L101.080055,66.0078928 L104.820055,66.0078928 L104.820055,66.7778928 L102.070055,66.7778928 L102.070055,69.3078928 L104.490055,69.3078928 L104.490055,70.0778928 L102.070055,70.0778928 L102.070055,72.9378928 Z M108.550055,73.8178928 C108.161386,73.8178928 107.818556,73.7555601 107.521555,73.6308928 C107.224553,73.5062255 106.971556,73.2935609 106.762555,72.9928928 C106.553553,72.6922246 106.395888,72.287062 106.289555,71.7773928 C106.183221,71.2677236 106.130055,70.6278966 106.130055,69.8578928 C106.130055,69.0878889 106.183221,68.448062 106.289555,67.9383928 C106.395888,67.4287236 106.548054,67.0235609 106.746055,66.7228928 C106.944056,66.4222246 107.186053,66.2095601 107.472055,66.0848928 C107.758056,65.9602255 108.080719,65.8978928 108.440055,65.8978928 C108.770056,65.8978928 109.085386,65.9198926 109.386055,65.9638928 C109.686723,66.007893 109.921387,66.0592258 110.090055,66.1178928 L110.090055,66.6128928 L108.660055,66.6128928 C108.440053,66.6128928 108.236555,66.660559 108.049555,66.7558928 C107.862554,66.8512266 107.699389,67.0217249 107.560055,67.2673928 C107.42072,67.5130607 107.312555,67.8448907 107.235555,68.2628928 C107.158554,68.6808949 107.120055,69.2125562 107.120055,69.8578928 C107.120055,70.5032293 107.160387,71.0348907 107.241055,71.4528928 C107.321722,71.8708949 107.433554,72.2027249 107.576555,72.4483928 C107.719555,72.6940607 107.891887,72.864559 108.093555,72.9598928 C108.295222,73.0552266 108.52072,73.1028928 108.770055,73.1028928 L110.200055,73.1028928 L110.200055,73.5978928 C110.031387,73.6565597 109.796723,73.7078926 109.496055,73.7518928 C109.195386,73.795893 108.880056,73.8178928 108.550055,73.8178928 L108.550055,73.8178928 Z M110.795055,66.0078928 L115.305055,66.0078928 L115.305055,66.7778928 L113.545055,66.7778928 L113.545055,73.7078928 L112.555055,73.7078928 L112.555055,66.7778928 L110.795055,66.7778928 L110.795055,66.0078928 Z M119.585055,69.6048928 C120.025057,69.7295601 120.33672,69.9715576 120.520055,70.3308928 C120.703389,70.6902279 120.795055,71.1192236 120.795055,71.6178928 C120.795055,72.0065614 120.751055,72.3383914 120.663055,72.6133928 C120.575054,72.8883942 120.432055,73.1157252 120.234055,73.2953928 C120.036054,73.4750603 119.775723,73.607059 119.453055,73.6913928 C119.130386,73.7757265 118.73439,73.8178928 118.265055,73.8178928 C117.935053,73.8178928 117.628889,73.8013929 117.346555,73.7683928 C117.06422,73.7353926 116.783723,73.6785598 116.505055,73.5978928 L116.505055,66.1178928 C116.783723,66.0372257 117.06422,65.9803929 117.346555,65.9473928 C117.628889,65.9143926 117.935053,65.8978928 118.265055,65.8978928 C119.042392,65.8978928 119.603386,66.0647244 119.948055,66.3983928 C120.292723,66.7320611 120.465055,67.243556 120.465055,67.9328928 C120.465055,68.2628944 120.400888,68.5708913 120.272555,68.8568928 C120.144221,69.1428942 119.915056,69.3775585 119.585055,69.5608928 L119.585055,69.6048928 Z M117.495055,70.0228928 L117.495055,73.1028928 L118.265055,73.1028928 C118.815057,73.1028928 119.20922,72.9873939 119.447555,72.7563928 C119.685889,72.5253916 119.805055,72.1458954 119.805055,71.6178928 C119.805055,71.0385565 119.685889,70.627894 119.447555,70.3858928 C119.20922,70.1438916 118.815057,70.0228928 118.265055,70.0228928 L117.495055,70.0228928 Z M118.155055,69.3078928 C119.035059,69.3078928 119.475055,68.849564 119.475055,67.9328928 C119.475055,67.0528884 119.035059,66.6128928 118.155055,66.6128928 L117.495055,66.6128928 L117.495055,69.3078928 L118.155055,69.3078928 Z M123.315055,72.9378928 L126.065055,72.9378928 L126.065055,73.7078928 L122.325055,73.7078928 L122.325055,66.0078928 L126.065055,66.0078928 L126.065055,66.7778928 L123.315055,66.7778928 L123.315055,69.3078928 L125.735055,69.3078928 L125.735055,70.0778928 L123.315055,70.0778928 L123.315055,72.9378928 Z M131.885054,66.0078928 L131.885054,73.7078928 L130.895054,73.7078928 L130.895054,70.1878928 L128.585054,70.1878928 L128.585054,73.7078928 L127.595054,73.7078928 L127.595054,66.0078928 L128.585054,66.0078928 L128.585054,69.4178928 L130.895054,69.4178928 L130.895054,66.0078928 L131.885054,66.0078928 Z M138.035054,66.0078928 L138.035054,73.7078928 L137.045054,73.7078928 L137.045054,70.1878928 L134.735054,70.1878928 L134.735054,73.7078928 L133.745054,73.7078928 L133.745054,66.0078928 L134.735054,66.0078928 L134.735054,69.4178928 L137.045054,69.4178928 L137.045054,66.0078928 L138.035054,66.0078928 Z M140.830054,71.7278928 L140.335054,73.7078928 L139.345054,73.7078928 L141.215054,66.0078928 L142.645054,66.0078928 L144.515054,73.7078928 L143.525054,73.7078928 L143.030054,71.7278928 L140.830054,71.7278928 Z M141.952054,67.1078928 L141.908054,67.1078928 L140.995054,70.9578928 L142.865054,70.9578928 L141.952054,67.1078928 Z M148.795054,69.8028928 L148.795054,66.6128928 L148.025054,66.6128928 C147.526385,66.6128928 147.163389,66.7338916 146.936054,66.9758928 C146.70872,67.217894 146.595054,67.6285565 146.595054,68.2078928 C146.595054,68.787229 146.70872,69.1978916 146.936054,69.4398928 C147.163389,69.681894 147.526385,69.8028928 148.025054,69.8028928 L148.795054,69.8028928 Z M147.090054,70.2978928 C146.914054,70.2685593 146.736222,70.2062266 146.556554,70.1108928 C146.376887,70.015559 146.217389,69.881727 146.078054,69.7093928 C145.93872,69.5370586 145.825055,69.3262274 145.737054,69.0768928 C145.649054,68.8275582 145.605054,68.5378944 145.605054,68.2078928 C145.605054,67.7972241 145.649054,67.4452276 145.737054,67.1518928 C145.825055,66.858558 145.964387,66.6183937 146.155054,66.4313928 C146.345722,66.2443918 146.595053,66.1087265 146.903054,66.0243928 C147.211056,65.940059 147.585052,65.8978928 148.025054,65.8978928 C148.355056,65.8978928 148.66122,65.9143926 148.943554,65.9473928 C149.225889,65.9803929 149.506386,66.0372257 149.785054,66.1178928 L149.785054,73.7078928 L148.795054,73.7078928 L148.795054,70.5728928 L148.355054,70.5728928 C148.135053,70.5728928 147.929722,70.6425587 147.739054,70.7818928 C147.548387,70.9212268 147.405388,71.1815575 147.310054,71.5628928 L147.090054,72.4978928 C146.870053,73.3778972 146.448391,73.8178928 145.825054,73.8178928 C145.656387,73.8178928 145.506055,73.7995596 145.374054,73.7628928 C145.300721,73.748226 145.231055,73.7298929 145.165054,73.7078928 L145.165054,73.2128928 C145.443723,73.2128928 145.645387,73.1487268 145.770054,73.0203928 C145.894722,72.8920588 145.986388,72.7178939 146.045054,72.4978928 L146.265054,71.5628928 C146.345722,71.2035576 146.45572,70.9248938 146.595054,70.7268928 C146.734389,70.5288918 146.899387,70.4005597 147.090054,70.3418928 L147.090054,70.2978928 Z M156.860054,65.8978928 C157.234056,65.8978928 157.565886,65.9602255 157.855554,66.0848928 C158.145223,66.2095601 158.39272,66.4222246 158.598054,66.7228928 C158.803389,67.0235609 158.959221,67.4287236 159.065554,67.9383928 C159.171888,68.448062 159.225054,69.0878889 159.225054,69.8578928 C159.225054,70.6278966 159.171888,71.2677236 159.065554,71.7773928 C158.959221,72.287062 158.803389,72.6922246 158.598054,72.9928928 C158.39272,73.2935609 158.145223,73.5062255 157.855554,73.6308928 C157.565886,73.7555601 157.234056,73.8178928 156.860054,73.8178928 C156.486053,73.8178928 156.154223,73.7555601 155.864554,73.6308928 C155.574886,73.5062255 155.327389,73.2935609 155.122054,72.9928928 C154.91672,72.6922246 154.760888,72.287062 154.654554,71.7773928 C154.548221,71.2677236 154.495054,70.6278966 154.495054,69.8578928 C154.495054,69.0878889 154.548221,68.448062 154.654554,67.9383928 C154.760888,67.4287236 154.91672,67.0235609 155.122054,66.7228928 C155.327389,66.4222246 155.574886,66.2095601 155.864554,66.0848928 C156.154223,65.9602255 156.486053,65.8978928 156.860054,65.8978928 L156.860054,65.8978928 Z M156.860054,73.1578928 C157.036055,73.1578928 157.208387,73.1102266 157.377054,73.0148928 C157.545722,72.919559 157.692387,72.7472274 157.817054,72.4978928 C157.941722,72.2485582 158.042554,71.9112282 158.119554,71.4858928 C158.196555,71.0605573 158.235054,70.5178961 158.235054,69.8578928 C158.235054,69.1978895 158.196555,68.6552282 158.119554,68.2298928 C158.042554,67.8045573 157.941722,67.4672274 157.817054,67.2178928 C157.692387,66.9685582 157.545722,66.7962266 157.377054,66.7008928 C157.208387,66.605559 157.036055,66.5578928 156.860054,66.5578928 C156.684054,66.5578928 156.511722,66.605559 156.343054,66.7008928 C156.174387,66.7962266 156.027722,66.9685582 155.903054,67.2178928 C155.778387,67.4672274 155.677555,67.8045573 155.600554,68.2298928 C155.523554,68.6552282 155.485054,69.1978895 155.485054,69.8578928 C155.485054,70.5178961 155.523554,71.0605573 155.600554,71.4858928 C155.677555,71.9112282 155.778387,72.2485582 155.903054,72.4978928 C156.027722,72.7472274 156.174387,72.919559 156.343054,73.0148928 C156.511722,73.1102266 156.684054,73.1578928 156.860054,73.1578928 L156.860054,73.1578928 Z M162.625054,70.6828928 C162.874389,70.6828928 163.088887,70.6517264 163.268554,70.5893928 C163.448222,70.5270591 163.596721,70.4188935 163.714054,70.2648928 C163.831388,70.110892 163.917554,69.9018941 163.972554,69.6378928 C164.027555,69.3738915 164.055054,69.0438948 164.055054,68.6478928 C164.055054,68.2518908 164.027555,67.9218941 163.972554,67.6578928 C163.917554,67.3938915 163.831388,67.1848935 163.714054,67.0308928 C163.596721,66.876892 163.448222,66.7687264 163.268554,66.7063928 C163.088887,66.6440591 162.874389,66.6128928 162.625054,66.6128928 L161.855054,66.6128928 L161.855054,70.6828928 L162.625054,70.6828928 Z M161.855054,73.7078928 L160.865054,73.7078928 L160.865054,66.1178928 C161.143723,66.0372257 161.42422,65.9803929 161.706554,65.9473928 C161.988889,65.9143926 162.295053,65.8978928 162.625054,65.8978928 C163.065057,65.8978928 163.439053,65.9437257 163.747054,66.0353928 C164.055056,66.1270599 164.304387,66.279225 164.495054,66.4918928 C164.685722,66.7045605 164.825054,66.986891 164.913054,67.3388928 C165.001055,67.6908945 165.045054,68.1272235 165.045054,68.6478928 C165.045054,69.1832288 165.002888,69.6305576 164.918554,69.9898928 C164.834221,70.3492279 164.705889,70.6370584 164.533554,70.8533928 C164.36122,71.0697272 164.144889,71.2237257 163.884554,71.3153928 C163.62422,71.4070599 163.31439,71.4528928 162.955054,71.4528928 C162.786387,71.4528928 162.595722,71.4418929 162.383054,71.4198928 C162.170387,71.3978927 161.994388,71.3722263 161.855054,71.3428928 L161.855054,73.7078928 Z M166.575054,66.0078928 L170.095054,66.0078928 L170.095054,66.7778928 L167.565054,66.7778928 L167.565054,73.7078928 L166.575054,73.7078928 L166.575054,66.0078928 Z M171.790054,71.7278928 L171.295054,73.7078928 L170.305054,73.7078928 L172.175054,66.0078928 L173.605054,66.0078928 L175.475054,73.7078928 L174.485054,73.7078928 L173.990054,71.7278928 L171.790054,71.7278928 Z M172.912054,67.1078928 L172.868054,67.1078928 L171.955054,70.9578928 L173.825054,70.9578928 L172.912054,67.1078928 Z M181.075054,66.0078928 L181.075054,73.7078928 L180.085054,73.7078928 L180.085054,70.1878928 L177.775054,70.1878928 L177.775054,73.7078928 L176.785054,73.7078928 L176.785054,66.0078928 L177.775054,66.0078928 L177.775054,69.4178928 L180.085054,69.4178928 L180.085054,66.0078928 L181.075054,66.0078928 Z M186.345054,67.9878928 L186.290054,67.9878928 L184.035054,73.7078928 L182.935054,73.7078928 L182.935054,66.0078928 L183.925054,66.0078928 L183.925054,71.7278928 L183.980054,71.7278928 L186.180054,66.0078928 L187.335054,66.0078928 L187.335054,73.7078928 L186.345054,73.7078928 L186.345054,67.9878928 Z M190.130054,73.1028928 C190.680057,73.1028928 191.07422,72.9873939 191.312554,72.7563928 C191.550889,72.5253916 191.670054,72.1458954 191.670054,71.6178928 C191.670054,71.06789 191.550889,70.6737273 191.312554,70.4353928 C191.07422,70.1970583 190.680057,70.0778928 190.130054,70.0778928 L189.360054,70.0778928 L189.360054,69.3078928 L190.020054,69.3078928 C190.518724,69.3078928 190.88172,69.1960606 191.109054,68.9723928 C191.336389,68.748725 191.450054,68.4022285 191.450054,67.9328928 C191.450054,67.4928906 191.336389,67.1628939 191.109054,66.9428928 C190.88172,66.7228917 190.518724,66.6128928 190.020054,66.6128928 L188.700054,66.6128928 L188.700054,66.1178928 C188.780721,66.0885593 188.87972,66.0610596 188.997054,66.0353928 C189.114388,66.009726 189.239054,65.9858929 189.371054,65.9638928 C189.503055,65.9418927 189.635054,65.9253928 189.767054,65.9143928 C189.899055,65.9033927 190.020054,65.8978928 190.130054,65.8978928 C190.958725,65.8978928 191.550886,66.0647244 191.906554,66.3983928 C192.262223,66.7320611 192.440054,67.243556 192.440054,67.9328928 C192.440054,68.372895 192.357555,68.7248915 192.192554,68.9888928 C192.027554,69.2528941 191.780056,69.461892 191.450054,69.6158928 L191.450054,69.6598928 C191.890057,69.7845601 192.20172,70.0247243 192.385054,70.3803928 C192.568389,70.7360612 192.660054,71.1485571 192.660054,71.6178928 C192.660054,72.0065614 192.616055,72.3383914 192.528054,72.6133928 C192.440054,72.8883942 192.297055,73.1157252 192.099054,73.2953928 C191.901053,73.4750603 191.640723,73.607059 191.318054,73.6913928 C190.995386,73.7757265 190.59939,73.8178928 190.130054,73.8178928 C189.851386,73.8178928 189.567223,73.795893 189.277554,73.7518928 C188.987886,73.7078926 188.758722,73.6565597 188.590054,73.5978928 L188.590054,73.1028928 L190.130054,73.1028928 Z M195.125054,71.7278928 L194.630054,73.7078928 L193.640054,73.7078928 L195.510054,66.0078928 L196.940054,66.0078928 L198.810054,73.7078928 L197.820054,73.7078928 L197.325054,71.7278928 L195.125054,71.7278928 Z M196.247054,67.1078928 L196.203054,67.1078928 L195.290054,70.9578928 L197.160054,70.9578928 L196.247054,67.1078928 Z M200.120054,73.7078928 L200.120054,66.0078928 L201.110054,66.0078928 L201.110054,72.9378928 L203.310054,72.9378928 L203.310054,66.0078928 L204.300054,66.0078928 L204.300054,72.9378928 L205.015054,72.9378928 L205.015054,75.3578928 L204.410054,75.3578928 C204.241387,74.9178906 204.131388,74.3678961 204.080054,73.7078928 L200.120054,73.7078928 Z M209.790054,67.9878928 L209.735054,67.9878928 L207.480054,73.7078928 L206.380054,73.7078928 L206.380054,66.0078928 L207.370054,66.0078928 L207.370054,71.7278928 L207.425054,71.7278928 L209.625054,66.0078928 L210.780054,66.0078928 L210.780054,73.7078928 L209.790054,73.7078928 L209.790054,67.9878928 Z M215.610054,69.8028928 L215.610054,66.6128928 L214.840054,66.6128928 C214.341385,66.6128928 213.978389,66.7338916 213.751054,66.9758928 C213.52372,67.217894 213.410054,67.6285565 213.410054,68.2078928 C213.410054,68.787229 213.52372,69.1978916 213.751054,69.4398928 C213.978389,69.681894 214.341385,69.8028928 214.840054,69.8028928 L215.610054,69.8028928 Z M213.905054,70.2978928 C213.729054,70.2685593 213.551222,70.2062266 213.371554,70.1108928 C213.191887,70.015559 213.032388,69.881727 212.893054,69.7093928 C212.75372,69.5370586 212.640055,69.3262274 212.552054,69.0768928 C212.464054,68.8275582 212.420054,68.5378944 212.420054,68.2078928 C212.420054,67.7972241 212.464054,67.4452276 212.552054,67.1518928 C212.640055,66.858558 212.779387,66.6183937 212.970054,66.4313928 C213.160722,66.2443918 213.410053,66.1087265 213.718054,66.0243928 C214.026056,65.940059 214.400052,65.8978928 214.840054,65.8978928 C215.170056,65.8978928 215.47622,65.9143926 215.758554,65.9473928 C216.040889,65.9803929 216.321386,66.0372257 216.600054,66.1178928 L216.600054,73.7078928 L215.610054,73.7078928 L215.610054,70.5728928 L215.170054,70.5728928 C214.950053,70.5728928 214.744722,70.6425587 214.554054,70.7818928 C214.363387,70.9212268 214.220388,71.1815575 214.125054,71.5628928 L213.905054,72.4978928 C213.685053,73.3778972 213.263391,73.8178928 212.640054,73.8178928 C212.471387,73.8178928 212.321055,73.7995596 212.189054,73.7628928 C212.115721,73.748226 212.046055,73.7298929 211.980054,73.7078928 L211.980054,73.2128928 C212.258722,73.2128928 212.460387,73.1487268 212.585054,73.0203928 C212.709722,72.8920588 212.801387,72.7178939 212.860054,72.4978928 L213.080054,71.5628928 C213.160721,71.2035576 213.27072,70.9248938 213.410054,70.7268928 C213.549388,70.5288918 213.714387,70.4005597 213.905054,70.3418928 L213.905054,70.2978928 Z M223.290054,70.6828928 C223.539389,70.6828928 223.753887,70.6517264 223.933554,70.5893928 C224.113222,70.5270591 224.26172,70.4188935 224.379054,70.2648928 C224.496388,70.110892 224.582554,69.9018941 224.637554,69.6378928 C224.692555,69.3738915 224.720054,69.0438948 224.720054,68.6478928 C224.720054,68.2518908 224.692555,67.9218941 224.637554,67.6578928 C224.582554,67.3938915 224.496388,67.1848935 224.379054,67.0308928 C224.26172,66.876892 224.113222,66.7687264 223.933554,66.7063928 C223.753887,66.6440591 223.539389,66.6128928 223.290054,66.6128928 L222.520054,66.6128928 L222.520054,70.6828928 L223.290054,70.6828928 Z M222.520054,73.7078928 L221.530054,73.7078928 L221.530054,66.1178928 C221.808722,66.0372257 222.08922,65.9803929 222.371554,65.9473928 C222.653889,65.9143926 222.960053,65.8978928 223.290054,65.8978928 C223.730057,65.8978928 224.104053,65.9437257 224.412054,66.0353928 C224.720056,66.1270599 224.969387,66.279225 225.160054,66.4918928 C225.350722,66.7045605 225.490054,66.986891 225.578054,67.3388928 C225.666055,67.6908945 225.710054,68.1272235 225.710054,68.6478928 C225.710054,69.1832288 225.667888,69.6305576 225.583554,69.9898928 C225.499221,70.3492279 225.370889,70.6370584 225.198554,70.8533928 C225.02622,71.0697272 224.809889,71.2237257 224.549554,71.3153928 C224.28922,71.4070599 223.97939,71.4528928 223.620054,71.4528928 C223.451387,71.4528928 223.260722,71.4418929 223.048054,71.4198928 C222.835387,71.3978927 222.659388,71.3722263 222.520054,71.3428928 L222.520054,73.7078928 Z M228.230054,72.9378928 L230.980054,72.9378928 L230.980054,73.7078928 L227.240054,73.7078928 L227.240054,66.0078928 L230.980054,66.0078928 L230.980054,66.7778928 L228.230054,66.7778928 L228.230054,69.3078928 L230.650054,69.3078928 L230.650054,70.0778928 L228.230054,70.0778928 L228.230054,72.9378928 Z M234.710054,73.8178928 C234.321386,73.8178928 233.978556,73.7555601 233.681554,73.6308928 C233.384553,73.5062255 233.131555,73.2935609 232.922554,72.9928928 C232.713553,72.6922246 232.555888,72.287062 232.449554,71.7773928 C232.34322,71.2677236 232.290054,70.6278966 232.290054,69.8578928 C232.290054,69.0878889 232.34322,68.448062 232.449554,67.9383928 C232.555888,67.4287236 232.708053,67.0235609 232.906054,66.7228928 C233.104055,66.4222246 233.346053,66.2095601 233.632054,66.0848928 C233.918056,65.9602255 234.240719,65.8978928 234.600054,65.8978928 C234.930056,65.8978928 235.245386,65.9198926 235.546054,65.9638928 C235.846723,66.007893 236.081387,66.0592258 236.250054,66.1178928 L236.250054,66.6128928 L234.820054,66.6128928 C234.600053,66.6128928 234.396555,66.660559 234.209554,66.7558928 C234.022553,66.8512266 233.859388,67.0217249 233.720054,67.2673928 C233.58072,67.5130607 233.472555,67.8448907 233.395554,68.2628928 C233.318554,68.6808949 233.280054,69.2125562 233.280054,69.8578928 C233.280054,70.5032293 233.320387,71.0348907 233.401054,71.4528928 C233.481721,71.8708949 233.593554,72.2027249 233.736554,72.4483928 C233.879555,72.6940607 234.051887,72.864559 234.253554,72.9598928 C234.455222,73.0552266 234.68072,73.1028928 234.930054,73.1028928 L236.360054,73.1028928 L236.360054,73.5978928 C236.191387,73.6565597 235.956723,73.7078926 235.656054,73.7518928 C235.355386,73.795893 235.040056,73.8178928 234.710054,73.8178928 L234.710054,73.8178928 Z M241.905054,66.0078928 L241.905054,73.7078928 L240.915054,73.7078928 L240.915054,66.7778928 L238.605054,66.7778928 L238.605054,73.7078928 L237.615054,73.7078928 L237.615054,66.0078928 L241.905054,66.0078928 Z M244.931054,73.8178928 C244.762387,73.8178928 244.579055,73.795893 244.381054,73.7518928 C244.183053,73.7078926 243.999722,73.6565597 243.831054,73.5978928 L243.831054,73.1028928 L244.601054,73.1028928 C244.747722,73.1028928 244.881554,73.0790597 245.002554,73.0313928 C245.123555,72.9837259 245.231721,72.8993934 245.327054,72.7783928 C245.422388,72.6573922 245.506721,72.4942271 245.580054,72.2888928 C245.653388,72.0835584 245.723054,71.8232277 245.789054,71.5078928 C245.327052,71.5078928 244.965889,71.3905606 244.705554,71.1558928 C244.44522,70.9212249 244.260055,70.5985615 244.150054,70.1878928 L242.995054,66.0078928 L243.985054,66.0078928 L245.140054,70.1878928 C245.257388,70.5912281 245.521386,70.7928928 245.932054,70.7928928 L246.900054,66.0078928 L247.890054,66.0078928 L246.691054,71.9478928 C246.559054,72.6078961 246.355556,73.084558 246.080554,73.3778928 C245.805553,73.6712276 245.42239,73.8178928 244.931054,73.8178928 L244.931054,73.8178928 Z M250.190054,69.0328928 L250.960054,69.0328928 C251.400057,69.0328928 251.774053,69.0768923 252.082054,69.1648928 C252.390056,69.2528932 252.639387,69.3922252 252.830054,69.5828928 C253.020722,69.7735604 253.160054,70.0228912 253.248054,70.3308928 C253.336055,70.6388943 253.380054,71.0128906 253.380054,71.4528928 C253.380054,71.8782282 253.336055,72.2412246 253.248054,72.5418928 C253.160054,72.8425609 253.020722,73.0863918 252.830054,73.2733928 C252.639387,73.4603937 252.390056,73.5978923 252.082054,73.6858928 C251.774053,73.7738932 251.400057,73.8178928 250.960054,73.8178928 C250.630053,73.8178928 250.323889,73.8013929 250.041554,73.7683928 C249.75922,73.7353926 249.478722,73.6785598 249.200054,73.5978928 L249.200054,66.0078928 L253.050054,66.0078928 L253.050054,66.7778928 L250.190054,66.7778928 L250.190054,69.0328928 Z M250.190054,69.8028928 L250.190054,73.1028928 L250.960054,73.1028928 C251.458723,73.1028928 251.82172,72.9800607 252.049054,72.7343928 C252.276389,72.4887249 252.390054,72.0615625 252.390054,71.4528928 C252.390054,70.8442231 252.276389,70.4170607 252.049054,70.1713928 C251.82172,69.9257249 251.458723,69.8028928 250.960054,69.8028928 L250.190054,69.8028928 Z M254.800054,73.8178928 C254.61672,73.8178928 254.459055,73.7995596 254.327054,73.7628928 C254.253721,73.748226 254.191388,73.7298929 254.140054,73.7078928 L254.140054,73.2128928 C254.294055,73.2128928 254.433387,73.1835597 254.558054,73.1248928 C254.682722,73.0662258 254.792721,72.9653935 254.888054,72.8223928 C254.983388,72.6793921 255.062221,72.4923939 255.124554,72.2613928 C255.186888,72.0303916 255.225388,71.7425612 255.240054,71.3978928 L255.515054,66.0078928 L259.200054,66.0078928 L259.200054,73.7078928 L258.210054,73.7078928 L258.210054,66.7778928 L256.472054,66.7778928 L256.230054,71.3978928 C256.208054,71.837895 256.154888,72.2118912 256.070554,72.5198928 C255.986221,72.8278943 255.879888,73.0772252 255.751554,73.2678928 C255.62322,73.4585604 255.476555,73.5978923 255.311554,73.6858928 C255.146554,73.7738932 254.976055,73.8178928 254.800054,73.8178928 L254.800054,73.8178928 Z M264.470054,67.9878928 L264.415054,67.9878928 L262.160054,73.7078928 L261.060054,73.7078928 L261.060054,66.0078928 L262.050054,66.0078928 L262.050054,71.7278928 L262.105054,71.7278928 L264.305054,66.0078928 L265.460054,66.0078928 L265.460054,73.7078928 L264.470054,73.7078928 L264.470054,67.9878928 Z M269.685054,69.7148928 C269.824388,69.7515596 269.950887,69.7992258 270.064554,69.8578928 C270.178222,69.9165597 270.280887,69.9972256 270.372554,70.0998928 C270.464221,70.20256 270.544887,70.3327253 270.614554,70.4903928 C270.684221,70.6480602 270.741054,70.8405583 270.785054,71.0678928 L271.060054,72.4978928 C271.096721,72.6885604 271.182887,72.8553921 271.318554,72.9983928 C271.454222,73.1413935 271.661386,73.2128928 271.940054,73.2128928 L271.940054,73.7078928 C271.888721,73.7298929 271.826388,73.748226 271.753054,73.7628928 C271.621054,73.7995596 271.463389,73.8178928 271.280054,73.8178928 C270.950053,73.8178928 270.676889,73.7078939 270.460554,73.4878928 C270.24422,73.2678917 270.095721,72.937895 270.015054,72.4978928 L269.740054,71.0678928 C269.666721,70.6792242 269.536555,70.4170601 269.349554,70.2813928 C269.162553,70.1457254 268.944389,70.0778928 268.695054,70.0778928 L268.310054,70.0778928 L268.310054,73.7078928 L267.320054,73.7078928 L267.320054,66.0078928 L268.310054,66.0078928 L268.310054,69.3078928 L268.695054,69.3078928 C268.885722,69.3078928 269.065387,69.2382268 269.234054,69.0988928 C269.402722,68.9595587 269.534721,68.699228 269.630054,68.3178928 L269.905054,67.2178928 C270.125055,66.3378884 270.546718,65.8978928 271.170054,65.8978928 C271.265388,65.8978928 271.353387,65.9033927 271.434054,65.9143928 C271.514721,65.9253928 271.584387,65.938226 271.643054,65.9528928 C271.716388,65.9748929 271.778721,65.993226 271.830054,66.0078928 L271.830054,66.5028928 C271.551386,66.5028928 271.349722,66.5670588 271.225054,66.6953928 C271.100387,66.8237268 271.008721,66.9978917 270.950054,67.2178928 L270.675054,68.3178928 C270.616387,68.5452272 270.555888,68.7377253 270.493554,68.8953928 C270.431221,69.0530602 270.359721,69.1832256 270.279054,69.2858928 C270.198387,69.38856 270.110388,69.4692258 270.015054,69.5278928 C269.919721,69.5865597 269.809722,69.6342259 269.685054,69.6708928 L269.685054,69.7148928 Z M276.495054,67.9878928 L276.440054,67.9878928 L274.185054,73.7078928 L273.085054,73.7078928 L273.085054,66.0078928 L274.075054,66.0078928 L274.075054,71.7278928 L274.130054,71.7278928 L276.330054,66.0078928 L277.485054,66.0078928 L277.485054,73.7078928 L276.495054,73.7078928 L276.495054,67.9878928 Z M283.405054,69.0328928 L284.175054,69.0328928 C284.615056,69.0328928 284.989053,69.0768923 285.297054,69.1648928 C285.605056,69.2528932 285.854387,69.3922252 286.045054,69.5828928 C286.235722,69.7735604 286.375054,70.0228912 286.463054,70.3308928 C286.551055,70.6388943 286.595054,71.0128906 286.595054,71.4528928 C286.595054,71.8782282 286.551055,72.2412246 286.463054,72.5418928 C286.375054,72.8425609 286.235722,73.0863918 286.045054,73.2733928 C285.854387,73.4603937 285.605056,73.5978923 285.297054,73.6858928 C284.989053,73.7738932 284.615056,73.8178928 284.175054,73.8178928 C283.845053,73.8178928 283.538889,73.8013929 283.256554,73.7683928 C282.97422,73.7353926 282.693722,73.6785598 282.415054,73.5978928 L282.415054,66.0078928 L286.265054,66.0078928 L286.265054,66.7778928 L283.405054,66.7778928 L283.405054,69.0328928 Z M283.405054,69.8028928 L283.405054,73.1028928 L284.175054,73.1028928 C284.673723,73.1028928 285.03672,72.9800607 285.264054,72.7343928 C285.491389,72.4887249 285.605054,72.0615625 285.605054,71.4528928 C285.605054,70.8442231 285.491389,70.4170607 285.264054,70.1713928 C285.03672,69.9257249 284.673723,69.8028928 284.175054,69.8028928 L283.405054,69.8028928 Z M289.060054,71.7278928 L288.565054,73.7078928 L287.575054,73.7078928 L289.445054,66.0078928 L290.875054,66.0078928 L292.745054,73.7078928 L291.755054,73.7078928 L291.260054,71.7278928 L289.060054,71.7278928 Z M290.182054,67.1078928 L290.138054,67.1078928 L289.225054,70.9578928 L291.095054,70.9578928 L290.182054,67.1078928 Z M297.905054,72.9378928 L299.775054,72.9378928 L299.775054,66.0078928 L300.765054,66.0078928 L300.765054,73.7078928 L294.055054,73.7078928 L294.055054,66.0078928 L295.045054,66.0078928 L295.045054,72.9378928 L296.915054,72.9378928 L296.915054,66.0078928 L297.905054,66.0078928 L297.905054,72.9378928 Z M304.990054,69.7148928 C305.129388,69.7515596 305.255887,69.7992258 305.369554,69.8578928 C305.483222,69.9165597 305.585887,69.9972256 305.677554,70.0998928 C305.769221,70.20256 305.849887,70.3327253 305.919554,70.4903928 C305.989221,70.6480602 306.046054,70.8405583 306.090054,71.0678928 L306.365054,72.4978928 C306.401721,72.6885604 306.487887,72.8553921 306.623554,72.9983928 C306.759222,73.1413935 306.966386,73.2128928 307.245054,73.2128928 L307.245054,73.7078928 C307.193721,73.7298929 307.131388,73.748226 307.058054,73.7628928 C306.926054,73.7995596 306.768389,73.8178928 306.585054,73.8178928 C306.255053,73.8178928 305.981889,73.7078939 305.765554,73.4878928 C305.54922,73.2678917 305.400721,72.937895 305.320054,72.4978928 L305.045054,71.0678928 C304.971721,70.6792242 304.841555,70.4170601 304.654554,70.2813928 C304.467553,70.1457254 304.249389,70.0778928 304.000054,70.0778928 L303.615054,70.0778928 L303.615054,73.7078928 L302.625054,73.7078928 L302.625054,66.0078928 L303.615054,66.0078928 L303.615054,69.3078928 L304.000054,69.3078928 C304.190722,69.3078928 304.370387,69.2382268 304.539054,69.0988928 C304.707722,68.9595587 304.83972,68.699228 304.935054,68.3178928 L305.210054,67.2178928 C305.430055,66.3378884 305.851718,65.8978928 306.475054,65.8978928 C306.570388,65.8978928 306.658387,65.9033927 306.739054,65.9143928 C306.819721,65.9253928 306.889387,65.938226 306.948054,65.9528928 C307.021388,65.9748929 307.083721,65.993226 307.135054,66.0078928 L307.135054,66.5028928 C306.856386,66.5028928 306.654722,66.5670588 306.530054,66.6953928 C306.405387,66.8237268 306.313721,66.9978917 306.255054,67.2178928 L305.980054,68.3178928 C305.921387,68.5452272 305.860888,68.7377253 305.798554,68.8953928 C305.736221,69.0530602 305.664721,69.1832256 305.584054,69.2858928 C305.503387,69.38856 305.415388,69.4692258 305.320054,69.5278928 C305.22472,69.5865597 305.114722,69.6342259 304.990054,69.6708928 L304.990054,69.7148928 Z M310.425054,65.8978928 C310.799056,65.8978928 311.130886,65.9602255 311.420554,66.0848928 C311.710222,66.2095601 311.95772,66.4222246 312.163054,66.7228928 C312.368389,67.0235609 312.52422,67.4287236 312.630554,67.9383928 C312.736888,68.448062 312.790054,69.0878889 312.790054,69.8578928 C312.790054,70.6278966 312.736888,71.2677236 312.630554,71.7773928 C312.52422,72.287062 312.368389,72.6922246 312.163054,72.9928928 C311.95772,73.2935609 311.710222,73.5062255 311.420554,73.6308928 C311.130886,73.7555601 310.799056,73.8178928 310.425054,73.8178928 C310.051052,73.8178928 309.719222,73.7555601 309.429554,73.6308928 C309.139886,73.5062255 308.892389,73.2935609 308.687054,72.9928928 C308.48172,72.6922246 308.325888,72.287062 308.219554,71.7773928 C308.11322,71.2677236 308.060054,70.6278966 308.060054,69.8578928 C308.060054,69.0878889 308.11322,68.448062 308.219554,67.9383928 C308.325888,67.4287236 308.48172,67.0235609 308.687054,66.7228928 C308.892389,66.4222246 309.139886,66.2095601 309.429554,66.0848928 C309.719222,65.9602255 310.051052,65.8978928 310.425054,65.8978928 L310.425054,65.8978928 Z M310.425054,73.1578928 C310.601055,73.1578928 310.773387,73.1102266 310.942054,73.0148928 C311.110722,72.919559 311.257387,72.7472274 311.382054,72.4978928 C311.506722,72.2485582 311.607554,71.9112282 311.684554,71.4858928 C311.761555,71.0605573 311.800054,70.5178961 311.800054,69.8578928 C311.800054,69.1978895 311.761555,68.6552282 311.684554,68.2298928 C311.607554,67.8045573 311.506722,67.4672274 311.382054,67.2178928 C311.257387,66.9685582 311.110722,66.7962266 310.942054,66.7008928 C310.773387,66.605559 310.601055,66.5578928 310.425054,66.5578928 C310.249053,66.5578928 310.076722,66.605559 309.908054,66.7008928 C309.739387,66.7962266 309.592722,66.9685582 309.468054,67.2178928 C309.343387,67.4672274 309.242555,67.8045573 309.165554,68.2298928 C309.088554,68.6552282 309.050054,69.1978895 309.050054,69.8578928 C309.050054,70.5178961 309.088554,71.0605573 309.165554,71.4858928 C309.242555,71.9112282 309.343387,72.2485582 309.468054,72.4978928 C309.592722,72.7472274 309.739387,72.919559 309.908054,73.0148928 C310.076722,73.1102266 310.249053,73.1578928 310.425054,73.1578928 L310.425054,73.1578928 Z M316.190054,70.6828928 C316.439389,70.6828928 316.653887,70.6517264 316.833554,70.5893928 C317.013222,70.5270591 317.16172,70.4188935 317.279054,70.2648928 C317.396388,70.110892 317.482554,69.9018941 317.537554,69.6378928 C317.592555,69.3738915 317.620054,69.0438948 317.620054,68.6478928 C317.620054,68.2518908 317.592555,67.9218941 317.537554,67.6578928 C317.482554,67.3938915 317.396388,67.1848935 317.279054,67.0308928 C317.16172,66.876892 317.013222,66.7687264 316.833554,66.7063928 C316.653887,66.6440591 316.439389,66.6128928 316.190054,66.6128928 L315.420054,66.6128928 L315.420054,70.6828928 L316.190054,70.6828928 Z M315.420054,73.7078928 L314.430054,73.7078928 L314.430054,66.1178928 C314.708722,66.0372257 314.98922,65.9803929 315.271554,65.9473928 C315.553889,65.9143926 315.860053,65.8978928 316.190054,65.8978928 C316.630056,65.8978928 317.004053,65.9437257 317.312054,66.0353928 C317.620056,66.1270599 317.869387,66.279225 318.060054,66.4918928 C318.250722,66.7045605 318.390054,66.986891 318.478054,67.3388928 C318.566055,67.6908945 318.610054,68.1272235 318.610054,68.6478928 C318.610054,69.1832288 318.567888,69.6305576 318.483554,69.9898928 C318.399221,70.3492279 318.270888,70.6370584 318.098554,70.8533928 C317.92622,71.0697272 317.709889,71.2237257 317.449554,71.3153928 C317.18922,71.4070599 316.879389,71.4528928 316.520054,71.4528928 C316.351387,71.4528928 316.160722,71.4418929 315.948054,71.4198928 C315.735387,71.3978927 315.559388,71.3722263 315.420054,71.3428928 L315.420054,73.7078928 Z M319.480054,66.0078928 L323.990054,66.0078928 L323.990054,66.7778928 L322.230054,66.7778928 L322.230054,73.7078928 L321.240054,73.7078928 L321.240054,66.7778928 L319.480054,66.7778928 L319.480054,66.0078928 Z M327.115054,65.8978928 C327.489056,65.8978928 327.820886,65.9602255 328.110554,66.0848928 C328.400222,66.2095601 328.64772,66.4222246 328.853054,66.7228928 C329.058389,67.0235609 329.21422,67.4287236 329.320554,67.9383928 C329.426888,68.448062 329.480054,69.0878889 329.480054,69.8578928 C329.480054,70.6278966 329.426888,71.2677236 329.320554,71.7773928 C329.21422,72.287062 329.058389,72.6922246 328.853054,72.9928928 C328.64772,73.2935609 328.400222,73.5062255 328.110554,73.6308928 C327.820886,73.7555601 327.489056,73.8178928 327.115054,73.8178928 C326.741052,73.8178928 326.409222,73.7555601 326.119554,73.6308928 C325.829886,73.5062255 325.582389,73.2935609 325.377054,72.9928928 C325.17172,72.6922246 325.015888,72.287062 324.909554,71.7773928 C324.80322,71.2677236 324.750054,70.6278966 324.750054,69.8578928 C324.750054,69.0878889 324.80322,68.448062 324.909554,67.9383928 C325.015888,67.4287236 325.17172,67.0235609 325.377054,66.7228928 C325.582389,66.4222246 325.829886,66.2095601 326.119554,66.0848928 C326.409222,65.9602255 326.741052,65.8978928 327.115054,65.8978928 L327.115054,65.8978928 Z M327.115054,73.1578928 C327.291055,73.1578928 327.463387,73.1102266 327.632054,73.0148928 C327.800722,72.919559 327.947387,72.7472274 328.072054,72.4978928 C328.196722,72.2485582 328.297554,71.9112282 328.374554,71.4858928 C328.451555,71.0605573 328.490054,70.5178961 328.490054,69.8578928 C328.490054,69.1978895 328.451555,68.6552282 328.374554,68.2298928 C328.297554,67.8045573 328.196722,67.4672274 328.072054,67.2178928 C327.947387,66.9685582 327.800722,66.7962266 327.632054,66.7008928 C327.463387,66.605559 327.291055,66.5578928 327.115054,66.5578928 C326.939053,66.5578928 326.766722,66.605559 326.598054,66.7008928 C326.429387,66.7962266 326.282722,66.9685582 326.158054,67.2178928 C326.033387,67.4672274 325.932555,67.8045573 325.855554,68.2298928 C325.778554,68.6552282 325.740054,69.1978895 325.740054,69.8578928 C325.740054,70.5178961 325.778554,71.0605573 325.855554,71.4858928 C325.932555,71.9112282 326.033387,72.2485582 326.158054,72.4978928 C326.282722,72.7472274 326.429387,72.919559 326.598054,73.0148928 C326.766722,73.1102266 326.939053,73.1578928 327.115054,73.1578928 L327.115054,73.1578928 Z M333.320054,73.8178928 C332.931386,73.8178928 332.588556,73.7555601 332.291554,73.6308928 C331.994553,73.5062255 331.741555,73.2935609 331.532554,72.9928928 C331.323553,72.6922246 331.165888,72.287062 331.059554,71.7773928 C330.95322,71.2677236 330.900054,70.6278966 330.900054,69.8578928 C330.900054,69.0878889 330.95322,68.448062 331.059554,67.9383928 C331.165888,67.4287236 331.318053,67.0235609 331.516054,66.7228928 C331.714055,66.4222246 331.956053,66.2095601 332.242054,66.0848928 C332.528056,65.9602255 332.850719,65.8978928 333.210054,65.8978928 C333.540056,65.8978928 333.855386,65.9198926 334.156054,65.9638928 C334.456722,66.007893 334.691387,66.0592258 334.860054,66.1178928 L334.860054,66.6128928 L333.430054,66.6128928 C333.210053,66.6128928 333.006555,66.660559 332.819554,66.7558928 C332.632553,66.8512266 332.469388,67.0217249 332.330054,67.2673928 C332.19072,67.5130607 332.082555,67.8448907 332.005554,68.2628928 C331.928554,68.6808949 331.890054,69.2125562 331.890054,69.8578928 C331.890054,70.5032293 331.930387,71.0348907 332.011054,71.4528928 C332.091721,71.8708949 332.203554,72.2027249 332.346554,72.4483928 C332.489555,72.6940607 332.661887,72.864559 332.863554,72.9598928 C333.065222,73.0552266 333.29072,73.1028928 333.540054,73.1028928 L334.970054,73.1028928 L334.970054,73.5978928 C334.801387,73.6565597 334.566722,73.7078926 334.266054,73.7518928 C333.965386,73.795893 333.650056,73.8178928 333.320054,73.8178928 L333.320054,73.8178928 Z M335.565054,66.0078928 L340.075054,66.0078928 L340.075054,66.7778928 L338.315054,66.7778928 L338.315054,73.7078928 L337.325054,73.7078928 L337.325054,66.7778928 L335.565054,66.7778928 L335.565054,66.0078928 Z M341.660054,71.7278928 L341.165054,73.7078928 L340.175054,73.7078928 L342.045054,66.0078928 L343.475054,66.0078928 L345.345054,73.7078928 L344.355054,73.7078928 L343.860054,71.7278928 L341.660054,71.7278928 Z M342.782054,67.1078928 L342.738054,67.1078928 L341.825054,70.9578928 L343.695054,70.9578928 L342.782054,67.1078928 Z M350.945054,66.0078928 L350.945054,73.7078928 L349.955054,73.7078928 L349.955054,70.1878928 L347.645054,70.1878928 L347.645054,73.7078928 L346.655054,73.7078928 L346.655054,66.0078928 L347.645054,66.0078928 L347.645054,69.4178928 L349.955054,69.4178928 L349.955054,66.0078928 L350.945054,66.0078928 Z" id="РЕГИОНАЛЬНАЯ-ОБЩЕСТВ" fill="#056937" sketch:type="MSShapeGroup"></path>
            </g>
        </g>
    </g>
</svg>