<?xml version="1.0" encoding="UTF-8" standalone="no"?>
<svg width="193px" height="193px" viewBox="0 0 193 193" version="1.1" xmlns="http://www.w3.org/2000/svg" xmlns:xlink="http://www.w3.org/1999/xlink" xmlns:sketch="http://www.bohemiancoding.com/sketch/ns">
    <!-- Generator: Sketch 3.3.1 (12002) - http://www.bohemiancoding.com/sketch -->
    <title>Group 3</title>
    <desc>Created with Sketch.</desc>
    <defs></defs>
    <g id="Page-1" stroke="none" stroke-width="1" fill="none" fill-rule="evenodd" sketch:type="MSPage">
        <g id="Blog" sketch:type="MSArtboardGroup" transform="translate(-905.000000, -1551.000000)" fill="#F7B45E">
            <g id="Подвал-2" sketch:type="MSLayerGroup" transform="translate(151.000000, 1511.000000)">
                <g id="Group-3" transform="translate(754.000000, 40.000000)" sketch:type="MSShapeGroup">
                    <path d="M190.574234,94.1534772 L151.323306,94.1534772 L151.323306,95.2200785 L151.323306,96.2866797 L151.323306,98.6332026 L190.574234,98.6332026 C191.854155,98.6332026 192.920757,97.5666013 192.920757,96.2866797 C192.920757,95.2200785 191.854155,94.1534772 190.574234,94.1534772 L190.574234,94.1534772 Z" id="Shape"></path>
                    <path d="M184.601267,129.35132 L147.910182,114.632222 C147.270221,116.125464 146.630261,117.618706 145.9903,118.898627 L182.894705,133.831045 C183.108025,134.044365 183.534665,134.044365 183.747986,134.044365 C184.601267,134.044365 185.667868,133.404405 185.881188,132.551124 C186.307829,131.271202 185.881188,129.991281 184.601267,129.35132 L184.601267,129.35132 Z" id="Shape"></path>
                    <path d="M148.336823,77.0878565 L183.961306,61.7287979 C184.601267,61.5154777 185.027907,61.0888372 185.241227,60.4488764 C185.454548,59.8089156 185.454548,59.1689548 185.241227,58.7423143 C184.814587,57.8890333 183.961306,57.2490725 183.108025,57.2490725 C182.894705,57.2490725 182.468064,57.2490725 182.254744,57.4623928 L146.630261,72.6081311 C147.056901,74.1013729 147.696862,75.5946147 148.336823,77.0878565 L148.336823,77.0878565 Z" id="Shape"></path>
                    <path d="M179.05494,80.5009806 C179.48158,80.0743401 179.48158,79.4343794 179.48158,78.7944186 C179.26826,77.514497 177.988339,76.661216 176.708417,77.0878565 L149.830065,82.6341832 C150.043385,83.4874643 150.256705,84.127425 150.256705,84.9807061 C150.470025,85.8339871 150.470025,86.4739479 150.683346,87.3272289 L177.561698,81.5675819 C178.201659,81.3542617 178.628299,80.9276212 179.05494,80.5009806 L179.05494,80.5009806 Z" id="Shape"></path>
                    <path d="M173.721933,113.565621 L174.148574,113.565621 C175.215175,113.565621 176.281777,112.71234 176.495097,111.645738 C176.708417,111.005778 176.495097,110.365817 176.068456,109.939176 C175.641816,109.512536 175.215175,109.085895 174.575214,108.872575 L150.683346,104.39285 C150.470025,105.886091 150.043385,107.379333 149.616744,108.872575 L173.721933,113.565621 L173.721933,113.565621 Z" id="Shape"></path>
                    <path d="M166.895685,139.164052 L143.217137,123.804993 C142.790496,124.444954 142.363855,125.084915 141.937215,125.724875 C141.510574,126.364836 141.083934,127.004797 140.657293,127.644758 L164.549162,143.003816 C164.975803,143.217137 165.402443,143.430457 165.829084,143.430457 C166.682365,143.430457 167.322326,143.003816 167.748966,142.363855 C168.388927,141.510574 167.962286,140.017333 166.895685,139.164052 L166.895685,139.164052 Z" id="Shape"></path>
                    <path d="M135.750927,57.2490725 C136.390888,57.8890333 136.817529,58.3156738 137.45749,58.9556346 L164.762483,31.6506415 C165.615764,30.7973605 165.615764,29.3041187 164.762483,28.4508377 C163.909202,27.5975566 162.41596,27.5975566 161.349358,28.4508377 L134.044365,55.7558307 C134.471006,56.1824712 135.110967,56.822432 135.750927,57.2490725 L135.750927,57.2490725 Z" id="Shape"></path>
                    <path d="M136.177568,132.764444 L134.471006,134.471006 C133.831045,135.110967 133.404405,135.537607 132.764444,135.964248 L161.349358,164.549162 C161.775999,164.975803 162.41596,165.189123 163.055921,165.189123 C163.695881,165.189123 164.335842,164.975803 164.762483,164.549162 C165.615764,163.695881 165.615764,162.202639 164.762483,161.349358 L136.177568,132.764444 L136.177568,132.764444 Z" id="Shape"></path>
                    <path d="M164.122522,52.3427066 C164.335842,51.7027458 164.122522,51.062785 163.695881,50.6361445 C163.269241,49.9961837 162.62928,49.5695432 161.775999,49.5695432 C161.349358,49.5695432 160.922718,49.7828635 160.496077,49.9961837 L140.870614,63.2220397 C141.723895,64.5019613 142.577176,65.7818828 143.430457,67.0618044 L163.055921,53.6226281 C163.695881,53.6226281 163.909202,52.9826674 164.122522,52.3427066 L164.122522,52.3427066 Z" id="Shape"></path>
                    <path d="M126.578156,49.9961837 C127.218117,50.4228243 127.858078,50.8494648 128.498039,51.2761053 L143.217137,28.6641579 C143.857097,27.5975566 143.643777,26.1043148 142.577176,25.4643541 C142.150535,25.2510338 141.723895,25.0377135 141.297254,25.0377135 C140.443973,25.0377135 139.804012,25.4643541 139.377372,26.1043148 L124.658274,48.7162622 C125.298235,49.1429027 125.938196,49.5695432 126.578156,49.9961837 L126.578156,49.9961837 Z" id="Shape"></path>
                    <path d="M128.498039,139.377372 C127.218117,140.230653 125.938196,141.083934 124.658274,141.937215 L139.164052,163.055921 C139.590692,163.695881 140.230653,164.122522 141.083934,164.122522 C141.510574,164.122522 141.937215,163.909202 142.363855,163.695881 C143.430457,163.055921 143.643777,161.562679 143.003816,160.496077 L128.498039,139.377372 L128.498039,139.377372 Z" id="Shape"></path>
                    <path d="M105.672771,139.590692 C106.526052,139.377372 107.166013,139.377372 108.019294,139.164052 C109.299215,138.950731 110.365817,138.524091 111.645738,138.09745 C113.13898,137.67081 114.632222,137.030849 115.912143,136.390888 C117.192065,135.750927 118.258666,135.324287 119.538588,134.684326 C120.818509,133.831045 122.311751,132.977764 123.591673,132.124483 C124.658274,131.484522 125.511555,130.631241 126.578156,129.77796 C127.218117,129.35132 127.858078,128.711359 128.284718,128.284718 C128.924679,127.858078 129.35132,127.218117 129.991281,126.578156 C131.057882,125.511555 132.124483,124.231634 133.191084,122.951712 C133.617725,122.311751 134.044365,121.67179 134.684326,121.03183 C135.110967,120.391869 135.537607,119.751908 135.964248,119.111947 C136.604209,118.045346 137.244169,116.765425 137.88413,115.698823 C138.524091,114.418902 139.164052,112.92566 139.804012,111.432418 C140.230653,110.152497 140.657293,108.659255 141.083934,107.379333 C141.510574,105.886091 141.937215,104.39285 142.150535,102.899608 C142.363855,101.619686 142.577176,100.339765 142.577176,99.0598431 C142.577176,98.2065621 142.577176,97.5666013 142.790496,96.7133203 L142.790496,95.646719 L142.790496,94.5801177 C142.790496,92.8735556 142.577176,91.1669935 142.363855,89.4604315 C142.150535,88.6071505 142.150535,87.9671897 141.937215,87.1139086 C141.723895,86.2606276 141.723895,85.6206668 141.510574,84.7673858 C141.083934,83.4874643 140.870614,81.9942225 140.230653,80.7143009 C139.804012,79.2210591 139.164052,77.7278173 138.524091,76.4478957 C137.88413,75.1679742 137.244169,73.8880526 136.390888,72.6081311 C135.537607,71.3282095 134.684326,70.048288 133.831045,68.7683664 C132.977764,67.7017652 132.124483,66.6351639 131.271202,65.5685626 C130.844562,64.9286018 130.204601,64.5019613 129.56464,63.8620005 C128.924679,63.2220397 128.498039,62.7953992 127.858078,62.1554384 C126.578156,61.0888372 125.298235,60.0222359 123.804993,58.9556346 C123.165032,58.5289941 122.525071,58.1023535 121.885111,57.675713 L121.885111,57.675713 C121.24515,57.2490725 120.605189,56.822432 119.965228,56.3957915 C118.685307,55.7558307 117.405385,55.1158699 116.125464,54.4759092 C114.632222,53.8359484 113.3523,53.1959876 111.859059,52.7693471 C110.365817,52.3427066 109.085895,51.9160661 107.592653,51.7027458 C106.099412,51.2761053 104.60617,51.062785 102.899608,50.8494648 C101.619686,50.6361445 100.339765,50.6361445 99.0598431,50.6361445 L97.9932418,50.6361445 L96.9266405,50.6361445 C96.0733595,50.6361445 95.4333987,50.6361445 94.5801177,50.8494648 C92.8735556,51.062785 91.1669935,51.2761053 89.6737517,51.4894255 C88.8204707,51.7027458 88.1805099,51.7027458 87.3272289,51.9160661 C86.4739479,52.1293863 85.8339871,52.3427066 84.9807061,52.5560268 C83.7007845,52.9826674 82.420863,53.4093079 81.1409414,53.8359484 C79.6476996,54.4759092 78.3677781,55.1158699 76.8745363,55.7558307 C75.5946147,56.3957915 74.5280134,57.0357523 73.2480919,57.8890333 C71.9681703,58.7423143 70.6882488,59.5955954 69.4083272,60.6621966 C68.3417259,61.5154777 67.4884449,62.3687587 66.6351639,63.2220397 C65.9952031,63.8620005 65.5685626,64.288641 64.9286018,64.9286018 C64.5019613,65.5685626 63.8620005,65.9952031 63.43536,66.6351639 C62.3687587,67.9150854 61.5154777,69.195007 60.6621966,70.4749285 C60.2355561,71.1148893 59.8089156,71.7548501 59.3822751,72.3948108 C58.9556346,73.0347716 58.5289941,73.6747324 58.3156738,74.5280134 C57.675713,75.5946147 57.2490725,76.8745363 56.6091117,77.9411375 C55.969151,79.4343794 55.5425104,80.9276212 55.1158699,82.420863 C54.6892294,83.7007845 54.4759092,84.9807061 54.0492686,86.2606276 C53.6226281,87.7538694 53.4093079,89.2471112 53.4093079,90.9536733 C53.1959876,92.0202746 53.1959876,93.3001961 53.1959876,94.3667974 L53.1959876,95.4333987 L53.1959876,96.5 C53.1959876,97.353281 53.1959876,97.9932418 53.4093079,98.8465228 C53.6226281,100.339765 53.6226281,101.833006 54.0492686,103.326248 C54.2625889,104.179529 54.2625889,104.81949 54.4759092,105.672771 C54.6892294,106.526052 54.9025497,107.166013 55.1158699,108.019294 C55.5425104,109.085895 55.7558307,110.365817 56.1824712,111.432418 C56.822432,112.92566 57.4623928,114.418902 58.1023535,115.698823 C58.7423143,116.765425 59.3822751,117.832026 60.0222359,118.898627 C60.8755169,120.178549 61.7287979,121.45847 62.582079,122.738392 C63.2220397,123.591673 64.0753208,124.444954 64.7152815,125.298235 C65.1419221,125.938196 65.7818828,126.364836 66.4218436,127.004797 C67.0618044,127.644758 67.4884449,128.071398 68.1284057,128.711359 C69.195007,129.77796 70.4749285,130.631241 71.5415298,131.484522 C72.1814906,131.911163 72.8214514,132.337803 73.4614121,132.764444 C74.1013729,133.191084 74.7413337,133.617725 75.3812944,134.044365 C76.4478957,134.684326 77.514497,135.324287 78.5810983,135.750927 C80.0743401,136.390888 81.3542617,137.030849 82.8475035,137.45749 C84.127425,137.88413 85.1940263,138.310771 86.4739479,138.524091 C87.9671897,138.950731 89.4604315,139.164052 90.9536733,139.590692 C92.0202746,139.804012 93.3001961,139.804012 94.3667974,140.017333 C95.2200785,140.017333 95.8600392,140.017333 96.7133203,140.230653 L97.7799215,140.230653 L98.8465228,140.230653 C100.339765,140.230653 101.833006,140.017333 103.326248,139.804012 C104.179529,139.804012 105.03281,139.590692 105.672771,139.590692 L105.672771,139.590692 L105.672771,139.590692 Z M101.833006,132.337803 C100.766405,132.337803 99.9131241,132.551124 98.8465228,132.551124 L97.7799215,132.551124 L96.7133203,132.551124 C95.8600392,132.551124 95.2200785,132.551124 94.3667974,132.337803 C93.7268366,132.337803 93.0868759,132.124483 92.4469151,132.124483 C90.9536733,131.911163 89.4604315,131.484522 87.9671897,131.057882 C87.3272289,130.844562 86.4739479,130.631241 85.8339871,130.417921 C84.3407453,129.991281 82.8475035,129.35132 81.5675819,128.498039 C80.9276212,128.284718 80.2876604,127.858078 79.6476996,127.431437 C79.0077388,127.004797 78.3677781,126.578156 77.7278173,126.151516 C77.0878565,125.724875 76.4478957,125.298235 75.807935,124.871594 C74.9546539,124.231634 74.3146932,123.591673 73.6747324,123.165032 C73.0347716,122.738392 72.6081311,122.098431 71.9681703,121.67179 C71.3282095,121.03183 70.901569,120.605189 70.4749285,119.965228 C70.048288,119.538588 69.6216475,118.898627 69.195007,118.471987 C68.1284057,117.192065 67.2751246,115.912143 66.4218436,114.632222 C65.9952031,113.992261 65.5685626,113.3523 65.3552423,112.71234 C64.7152815,111.432418 64.0753208,109.939176 63.43536,108.445934 C63.2220397,107.805974 63.0087195,107.166013 62.7953992,106.312732 C62.582079,105.459451 62.3687587,104.81949 62.1554384,103.966209 C61.9421182,103.112928 61.7287979,102.472967 61.7287979,101.619686 C61.5154777,100.766405 61.5154777,99.6998039 61.3021574,98.6332026 C61.3021574,97.7799215 61.0888372,97.1399608 61.0888372,96.2866797 L61.0888372,95.2200785 L61.0888372,94.1534772 C61.0888372,93.5135164 61.0888372,92.6602354 61.3021574,92.0202746 C61.5154777,90.5270328 61.7287979,88.8204707 61.9421182,87.3272289 C62.1554384,86.4739479 62.3687587,85.8339871 62.582079,84.9807061 C63.0087195,83.4874643 63.43536,81.9942225 64.0753208,80.5009806 C64.288641,79.8610199 64.7152815,79.0077388 65.1419221,78.3677781 C65.5685626,77.7278173 65.7818828,77.0878565 66.2085234,76.2345755 C66.6351639,75.5946147 67.0618044,74.9546539 67.4884449,74.3146932 C68.1284057,73.4614121 68.7683664,72.6081311 69.4083272,71.7548501 C69.8349677,71.1148893 70.4749285,70.4749285 70.901569,70.048288 C71.3282095,69.4083272 71.9681703,68.9816867 72.6081311,68.3417259 C73.2480919,67.9150854 73.6747324,67.2751246 74.3146932,66.8484841 C75.5946147,65.7818828 76.661216,64.9286018 78.1544578,64.0753208 C79.0077388,63.6486803 79.6476996,63.2220397 80.5009806,62.582079 C81.7809022,61.7287979 83.274144,61.0888372 84.7673858,60.6621966 C85.6206668,60.4488764 86.4739479,60.0222359 87.1139086,59.8089156 C87.7538694,59.5955954 88.6071505,59.3822751 89.4604315,59.1689548 C90.3137125,58.9556346 90.9536733,58.7423143 91.8069543,58.7423143 C92.8735556,58.5289941 93.9401569,58.3156738 95.2200785,58.3156738 C96.0733595,58.3156738 96.7133203,58.1023535 97.5666013,58.1023535 L98.6332026,58.1023535 L99.6998039,58.1023535 C100.553085,58.1023535 101.406366,58.1023535 102.259647,58.3156738 C103.752889,58.5289941 105.459451,58.7423143 106.952693,59.1689548 C107.805974,59.3822751 108.872575,59.5955954 109.725856,59.8089156 C111.219098,60.2355561 112.71234,60.8755169 113.992261,61.5154777 C114.845542,61.9421182 115.698823,62.3687587 116.552104,62.7953992 C117.192065,63.2220397 117.832026,63.6486803 118.471987,64.0753208 C119.111947,64.5019613 119.751908,64.9286018 120.391869,65.3552423 C121.24515,65.9952031 122.311751,66.8484841 123.165032,67.4884449 C123.804993,67.9150854 124.231634,68.5550462 124.871594,68.9816867 C125.511555,69.6216475 125.938196,70.048288 126.364836,70.6882488 C127.004797,71.3282095 127.431437,71.9681703 128.071398,72.6081311 C128.924679,73.8880526 129.991281,75.1679742 130.631241,76.4478957 C131.057882,77.3011768 131.484522,78.1544578 131.911163,79.0077388 C132.551124,80.5009806 133.191084,81.7809022 133.617725,83.274144 C133.831045,84.127425 134.257686,84.9807061 134.471006,85.8339871 C134.684326,86.6872681 134.897646,87.3272289 134.897646,88.1805099 C135.110967,89.033791 135.110967,89.6737517 135.324287,90.5270328 C135.537607,91.5936341 135.537607,92.8735556 135.537607,93.9401569 L135.537607,95.0067582 L135.537607,96.0733595 C135.537607,96.9266405 135.537607,97.5666013 135.324287,98.4198823 C135.324287,99.2731634 135.110967,100.126444 135.110967,100.979725 C134.897646,102.472967 134.471006,103.966209 134.044365,105.459451 C133.831045,106.312732 133.404405,107.166013 133.191084,108.019294 C132.551124,109.512536 131.911163,111.005778 131.271202,112.285699 C130.844562,112.92566 130.417921,113.778941 129.991281,114.418902 C129.56464,115.058862 129.137999,115.698823 128.711359,116.338784 L128.711359,116.338784 C128.284718,116.978745 127.858078,117.618706 127.218117,118.258666 C126.578156,119.111947 125.724875,119.965228 125.084915,120.605189 C124.444954,121.24515 124.018313,121.67179 123.378353,122.311751 C122.738392,122.951712 122.311751,123.378353 121.67179,123.804993 C121.03183,124.231634 120.391869,124.658274 119.965228,125.084915 C118.685307,125.938196 117.405385,126.791477 115.912143,127.644758 C115.272183,128.071398 114.418902,128.498039 113.565621,128.711359 C112.072379,129.35132 110.792457,129.991281 109.299215,130.417921 C108.659255,130.631241 107.805974,130.844562 107.166013,131.057882 C106.312732,131.271202 105.672771,131.484522 104.81949,131.484522 C103.326248,132.124483 102.472967,132.337803 101.833006,132.337803 L101.833006,132.337803 Z" id="Shape"></path>
                    <path d="M119.538588,144.497058 C118.045346,145.137019 116.765425,145.77698 115.272183,146.20362 L131.271202,183.961306 C131.697843,184.814587 132.551124,185.454548 133.404405,185.454548 C133.617725,185.454548 134.044365,185.454548 134.257686,185.241227 C134.897646,185.027907 135.324287,184.601267 135.537607,183.961306 C135.750927,183.321345 135.750927,182.681384 135.537607,182.254744 L119.538588,144.497058 L119.538588,144.497058 Z M133.404405,183.961306 L133.404405,183.108025 L133.404405,183.108025 L133.404405,183.961306 L133.404405,183.961306 Z" id="Shape"></path>
                    <path d="M133.831045,10.1052955 C134.257686,8.82537393 133.831045,7.54545238 132.551124,7.11881186 C132.124483,6.9054916 131.911163,6.9054916 131.697843,6.9054916 C130.844562,6.9054916 129.991281,7.54545238 129.56464,8.39873341 L115.058862,44.449857 C116.552104,44.8764975 118.045346,45.5164583 119.325268,46.1564191 L133.831045,10.1052955 L133.831045,10.1052955 Z" id="Shape"></path>
                    <path d="M110.792457,121.67179 C112.285699,121.03183 113.565621,120.178549 114.845542,119.325268 C115.058862,119.111947 115.272183,119.111947 115.485503,118.898627 C116.125464,118.471987 116.765425,117.832026 117.405385,117.405385 C118.045346,116.978745 118.471987,116.338784 119.111947,115.698823 C119.538588,115.272183 119.751908,114.845542 120.178549,114.632222 C120.605189,113.992261 121.24515,113.3523 121.67179,112.71234 C122.098431,112.072379 122.525071,111.432418 122.951712,110.792457 C123.165032,110.579137 123.378353,110.152497 123.378353,109.939176 C124.231634,108.659255 124.871594,107.166013 125.298235,105.672771 C125.511555,105.246131 125.511555,104.81949 125.724875,104.60617 C126.151516,103.112928 126.578156,101.619686 126.791477,100.126444 C126.791477,99.6998039 126.791477,99.4864836 127.004797,99.0598431 C127.004797,98.2065621 127.218117,97.5666013 127.218117,96.7133203 L127.218117,95.646719 L127.218117,94.5801177 C127.218117,93.9401569 127.218117,93.3001961 127.004797,92.6602354 C127.004797,91.8069543 126.791477,91.1669935 126.578156,90.3137125 C126.364836,89.4604315 126.364836,88.8204707 126.151516,87.9671897 C126.151516,87.5405492 125.938196,87.1139086 125.724875,86.6872681 C125.298235,85.1940263 124.658274,83.7007845 124.018313,82.420863 C123.804993,81.9942225 123.591673,81.5675819 123.378353,81.1409414 C122.525071,79.8610199 121.67179,78.5810983 120.818509,77.3011768 C120.605189,77.0878565 120.391869,76.661216 120.178549,76.4478957 C119.751908,75.807935 119.111947,75.1679742 118.685307,74.7413337 C118.045346,74.1013729 117.618706,73.6747324 116.978745,73.2480919 C116.552104,72.8214514 115.912143,72.3948108 115.485503,71.9681703 C114.845542,71.5415298 114.205581,71.1148893 113.565621,70.6882488 C112.92566,70.2616083 112.285699,69.8349677 111.645738,69.4083272 C111.219098,69.195007 110.792457,68.9816867 110.579137,68.7683664 C109.085895,68.1284057 107.805974,67.4884449 106.099412,67.0618044 C105.672771,66.8484841 105.246131,66.8484841 104.81949,66.6351639 C103.326248,66.2085234 101.833006,65.9952031 100.126444,65.9952031 L99.0598431,65.9952031 L97.9932418,65.9952031 L96.9266405,65.9952031 C96.0733595,65.9952031 95.4333987,65.9952031 94.5801177,66.2085234 C93.9401569,66.2085234 93.5135164,66.4218436 92.8735556,66.4218436 C92.0202746,66.6351639 91.3803138,66.6351639 90.5270328,66.8484841 L90.5270328,66.8484841 C89.6737517,67.0618044 89.033791,67.2751246 88.1805099,67.4884449 C87.7538694,67.7017652 87.5405492,67.7017652 87.1139086,67.9150854 C85.6206668,68.5550462 84.3407453,69.195007 82.8475035,70.048288 C82.420863,70.2616083 82.2075427,70.4749285 81.7809022,70.6882488 C80.5009806,71.5415298 79.2210591,72.3948108 78.1544578,73.4614121 C77.9411375,73.6747324 77.7278173,73.8880526 77.514497,74.1013729 C76.8745363,74.7413337 76.4478957,75.1679742 75.807935,75.807935 C75.3812944,76.4478957 74.7413337,77.0878565 74.3146932,77.514497 C74.1013729,77.9411375 73.6747324,78.3677781 73.4614121,78.7944186 C73.0347716,79.4343794 72.6081311,80.0743401 72.1814906,80.7143009 C71.7548501,81.3542617 71.3282095,81.9942225 71.1148893,82.8475035 C70.901569,83.0608237 70.901569,83.274144 70.6882488,83.7007845 C70.048288,85.1940263 69.6216475,86.6872681 69.195007,88.1805099 C69.195007,88.3938302 68.9816867,88.8204707 68.9816867,89.033791 C68.5550462,90.5270328 68.3417259,92.0202746 68.3417259,93.7268366 L68.3417259,94.3667974 L68.3417259,95.4333987 L68.3417259,96.5 C68.3417259,97.353281 68.3417259,97.9932418 68.5550462,98.8465228 C68.5550462,99.2731634 68.7683664,99.6998039 68.7683664,100.126444 C68.9816867,100.979725 68.9816867,101.619686 69.195007,102.472967 C69.4083272,103.326248 69.6216475,103.966209 69.8349677,104.81949 C69.8349677,105.03281 70.048288,105.246131 70.048288,105.459451 C70.4749285,106.952693 71.3282095,108.445934 71.9681703,109.725856 C72.1814906,109.939176 72.1814906,110.152497 72.3948108,110.365817 C73.2480919,111.645738 74.1013729,112.92566 75.1679742,114.205581 C75.3812944,114.418902 75.3812944,114.418902 75.5946147,114.632222 C76.0212552,115.272183 76.661216,115.698823 77.0878565,116.338784 C77.7278173,116.978745 78.1544578,117.405385 78.7944186,117.832026 C79.0077388,118.045346 79.4343794,118.258666 79.6476996,118.685307 C80.2876604,119.111947 80.9276212,119.538588 81.5675819,119.965228 C82.2075427,120.391869 82.8475035,120.818509 83.4874643,121.24515 C83.7007845,121.24515 83.9141048,121.45847 84.127425,121.45847 C85.4073466,122.098431 86.9005884,122.738392 88.3938302,123.378353 C88.6071505,123.378353 88.8204707,123.591673 89.2471112,123.591673 C90.740353,124.018313 92.2335948,124.444954 93.7268366,124.658274 L94.3667974,124.658274 C95.2200785,124.658274 95.8600392,124.871594 96.7133203,124.871594 L97.7799215,124.871594 L98.8465228,124.871594 L100.126444,124.871594 C100.979725,124.871594 101.619686,124.658274 102.472967,124.658274 C103.326248,124.444954 103.966209,124.444954 104.81949,124.231634 C105.03281,124.231634 105.246131,124.018313 105.672771,124.018313 C107.166013,123.591673 108.659255,123.165032 110.152497,122.311751 C110.152497,121.885111 110.579137,121.885111 110.792457,121.67179 L110.792457,121.67179 Z M109.085895,112.499019 C108.232614,113.13898 107.379333,113.565621 106.312732,113.992261 C106.099412,114.205581 105.886091,114.205581 105.672771,114.205581 C104.81949,114.632222 103.752889,114.845542 102.686287,115.272183 C102.472967,115.272183 102.046327,115.485503 101.833006,115.485503 C101.406366,115.485503 100.979725,115.698823 100.339765,115.698823 C99.6998039,115.698823 99.0598431,115.912143 98.6332026,115.912143 L97.9932418,115.912143 L97.353281,115.912143 L96.2866797,115.912143 C95.8600392,115.912143 95.4333987,115.912143 95.0067582,115.698823 C94.5801177,115.698823 94.3667974,115.698823 93.9401569,115.485503 C93.0868759,115.272183 92.2335948,115.058862 91.3803138,114.845542 C91.1669935,114.845542 90.740353,114.632222 90.5270328,114.632222 C89.6737517,114.418902 88.8204707,113.992261 87.9671897,113.565621 C87.7538694,113.3523 87.3272289,113.13898 87.1139086,113.13898 C86.6872681,112.92566 86.2606276,112.71234 86.0473074,112.499019 C85.6206668,112.285699 85.1940263,111.859059 84.7673858,111.432418 C84.5540655,111.219098 84.3407453,111.219098 84.3407453,111.005778 C83.9141048,110.579137 83.4874643,110.365817 83.0608237,109.939176 C82.8475035,109.725856 82.420863,109.299215 82.2075427,109.085895 C81.9942225,108.872575 81.7809022,108.445934 81.5675819,108.232614 C80.9276212,107.592653 80.5009806,106.952693 80.0743401,106.099412 C79.8610199,105.886091 79.6476996,105.459451 79.6476996,105.246131 C79.2210591,104.39285 78.7944186,103.539569 78.5810983,102.686287 C78.3677781,102.472967 78.3677781,102.046327 78.1544578,101.833006 C77.9411375,101.406366 77.9411375,100.979725 77.7278173,100.553085 C77.514497,99.9131241 77.514497,99.4864836 77.3011768,98.8465228 L77.3011768,98.2065621 C77.3011768,97.5666013 77.0878565,97.1399608 77.0878565,96.5 L77.0878565,95.4333987 C77.0878565,95.4333987 77.0878565,95.4333987 77.0878565,95.2200785 L77.0878565,94.1534772 C77.0878565,93.3001961 77.3011768,92.2335948 77.514497,91.3803138 C77.514497,91.1669935 77.7278173,90.740353 77.7278173,90.5270328 C77.9411375,89.4604315 78.3677781,88.6071505 78.5810983,87.5405492 C78.7944186,87.3272289 78.7944186,87.1139086 79.0077388,86.6872681 C79.2210591,86.2606276 79.4343794,85.8339871 79.6476996,85.4073466 C79.8610199,84.7673858 80.2876604,84.3407453 80.7143009,83.7007845 L80.9276212,83.4874643 C81.3542617,82.8475035 81.7809022,82.420863 82.2075427,81.9942225 C82.6341832,81.5675819 82.8475035,81.1409414 83.274144,80.9276212 C83.4874643,80.7143009 83.7007845,80.5009806 83.9141048,80.2876604 C84.7673858,79.4343794 85.6206668,78.7944186 86.4739479,78.1544578 C86.6872681,78.1544578 86.6872681,77.9411375 86.9005884,77.9411375 C87.9671897,77.3011768 89.033791,76.661216 90.1003923,76.2345755 C90.3137125,76.2345755 90.5270328,76.0212552 90.740353,76.0212552 C91.3803138,75.807935 91.8069543,75.5946147 92.4469151,75.3812944 C93.0868759,75.1679742 93.9401569,74.9546539 94.5801177,74.9546539 L94.7934379,74.9546539 C95.4333987,74.7413337 96.2866797,74.7413337 96.9266405,74.7413337 L97.9932418,74.7413337 L98.6332026,74.7413337 L99.2731634,74.7413337 C100.553085,74.7413337 101.833006,74.9546539 102.899608,75.3812944 L103.326248,75.3812944 C104.60617,75.807935 105.886091,76.2345755 106.952693,76.661216 C107.166013,76.661216 107.166013,76.8745363 107.379333,76.8745363 C108.019294,77.0878565 108.445934,77.514497 109.085895,77.7278173 C109.725856,78.1544578 110.365817,78.5810983 111.005778,79.0077388 L111.005778,79.0077388 C111.645738,79.4343794 112.285699,80.0743401 112.71234,80.5009806 L113.992261,81.7809022 C114.205581,81.9942225 114.205581,81.9942225 114.418902,82.2075427 C115.272183,83.274144 115.912143,84.3407453 116.552104,85.4073466 L116.765425,85.6206668 C117.405385,86.6872681 117.832026,87.9671897 118.258666,89.2471112 C118.258666,89.4604315 118.258666,89.4604315 118.471987,89.6737517 C118.685307,90.3137125 118.685307,90.9536733 118.898627,91.5936341 C119.111947,92.4469151 119.111947,93.0868759 119.111947,93.9401569 L119.111947,93.9401569 L119.111947,95.0067582 L119.111947,96.0733595 C119.111947,96.7133203 119.111947,97.1399608 118.898627,97.7799215 L118.898627,98.4198823 C118.685307,99.6998039 118.471987,100.766405 118.045346,101.833006 C118.045346,102.046327 117.832026,102.046327 117.832026,102.259647 C117.405385,103.326248 116.978745,104.39285 116.338784,105.459451 C116.125464,105.672771 116.125464,105.886091 115.912143,106.099412 C115.698823,106.526052 115.272183,106.952693 114.845542,107.379333 C114.418902,108.019294 113.992261,108.445934 113.565621,108.872575 L113.3523,109.085895 C112.92566,109.512536 112.285699,109.939176 111.859059,110.579137 C111.432418,110.792457 111.005778,111.219098 110.792457,111.432418 C109.725856,112.072379 109.299215,112.285699 109.085895,112.499019 L109.085895,112.499019 Z" id="Shape"></path>
                    <path d="M109.939176,147.696862 C109.085895,147.910182 108.445934,148.123502 107.592653,148.123502 C106.739372,148.336823 106.099412,148.336823 105.246131,148.550143 L111.432418,177.561698 C111.645738,178.628299 112.71234,179.48158 113.778941,179.48158 L114.205581,179.48158 C114.845542,179.26826 115.272183,179.05494 115.698823,178.414979 C116.125464,177.988339 116.125464,177.348378 115.912143,176.708417 L109.939176,147.696862 L109.939176,147.696862 Z" id="Shape"></path>
                    <path d="M113.565621,19.2780666 C113.778941,18.6381058 113.565621,17.998145 113.13898,17.5715045 C112.71234,17.144864 112.285699,16.7182235 111.645738,16.5049032 C110.365817,16.291583 109.085895,17.144864 108.872575,18.4247855 L104.39285,41.8900139 C105.886091,42.1033342 107.592653,42.3166544 109.085895,42.743295 L113.565621,19.2780666 L113.565621,19.2780666 Z" id="Shape"></path>
                    <path d="M110.365817,93.5135164 L110.365817,93.0868759 C110.152497,92.4469151 110.152497,91.8069543 109.939176,91.1669935 C109.939176,90.9536733 109.725856,90.5270328 109.725856,90.3137125 C109.512536,89.6737517 109.299215,89.2471112 108.872575,88.6071505 C108.659255,88.3938302 108.659255,88.1805099 108.445934,87.9671897 C108.019294,87.3272289 107.592653,86.9005884 107.166013,86.4739479 L106.952693,86.2606276 C106.739372,86.0473074 106.526052,85.8339871 106.526052,85.8339871 C106.099412,85.4073466 105.672771,85.1940263 105.246131,84.7673858 C105.03281,84.5540655 104.81949,84.5540655 104.60617,84.3407453 C104.39285,84.3407453 104.39285,84.127425 104.179529,84.127425 C103.539569,83.9141048 103.112928,83.4874643 102.472967,83.274144 C102.259647,83.274144 102.046327,83.0608237 101.619686,83.0608237 C100.979725,82.8475035 100.339765,82.8475035 99.6998039,82.6341832 L99.0598431,82.6341832 L97.9932418,82.6341832 L97.1399608,82.6341832 L96.9266405,82.6341832 L96.2866797,82.6341832 C95.646719,82.6341832 95.0067582,82.8475035 94.5801177,83.0608237 C94.3667974,83.0608237 94.1534772,83.274144 94.1534772,83.274144 L93.9401569,83.274144 C93.3001961,83.4874643 92.6602354,83.7007845 92.0202746,84.127425 C91.8069543,84.127425 91.8069543,84.3407453 91.5936341,84.3407453 C90.9536733,84.7673858 90.3137125,85.1940263 89.887072,85.6206668 L89.6737517,85.8339871 C89.033791,86.2606276 88.6071505,86.9005884 88.1805099,87.5405492 L88.1805099,87.5405492 L87.9671897,87.7538694 C87.5405492,88.3938302 87.1139086,88.8204707 86.9005884,89.4604315 C86.9005884,89.4604315 86.9005884,89.6737517 86.6872681,89.6737517 L86.6872681,89.6737517 C86.2606276,90.3137125 86.0473074,91.1669935 85.8339871,91.8069543 L85.8339871,91.8069543 C85.6206668,92.4469151 85.6206668,93.3001961 85.4073466,93.9401569 L85.4073466,94.1534772 L85.4073466,95.2200785 L85.4073466,96.2866797 L85.4073466,96.2866797 C85.4073466,96.9266405 85.6206668,97.7799215 85.8339871,98.4198823 C85.8339871,98.4198823 85.8339871,98.4198823 85.8339871,98.6332026 L85.8339871,98.6332026 C86.0473074,99.2731634 86.2606276,99.9131241 86.4739479,100.553085 C86.4739479,100.766405 86.4739479,100.766405 86.6872681,100.766405 C86.9005884,101.193046 87.3272289,101.833006 87.5405492,102.259647 C87.5405492,102.472967 87.7538694,102.472967 87.7538694,102.686287 C88.1805099,103.112928 88.6071505,103.752889 89.033791,104.179529 L89.033791,104.179529 L89.2471112,104.39285 C89.6737517,104.81949 90.1003923,105.246131 90.740353,105.672771 C90.740353,105.672771 90.740353,105.672771 90.9536733,105.886091 L90.9536733,105.886091 C91.5936341,106.312732 92.0202746,106.526052 92.6602354,106.952693 C92.6602354,106.952693 92.8735556,106.952693 92.8735556,107.166013 C93.5135164,107.379333 93.9401569,107.592653 94.5801177,107.805974 L95.0067582,107.805974 C95.646719,108.019294 96.2866797,108.019294 96.9266405,108.232614 L96.9266405,108.232614 L97.9932418,108.232614 L99.0598431,108.232614 L99.0598431,108.232614 C99.9131241,108.232614 100.553085,108.019294 101.406366,107.805974 L101.406366,107.805974 C102.259647,107.592653 102.899608,107.379333 103.539569,106.952693 L103.539569,106.952693 C104.179529,106.526052 104.81949,106.099412 105.459451,105.672771 L105.459451,105.672771 L105.672771,105.459451 C106.099412,105.03281 106.739372,104.60617 107.166013,104.179529 L107.379333,103.966209 C107.379333,103.966209 107.379333,103.966209 107.592653,103.752889 C108.019294,103.112928 108.445934,102.686287 108.872575,102.046327 C108.872575,101.833006 109.085895,101.833006 109.085895,101.619686 C109.299215,100.979725 109.725856,100.339765 109.939176,99.6998039 C109.939176,99.4864836 110.152497,99.2731634 110.152497,99.2731634 C110.365817,98.6332026 110.579137,97.9932418 110.579137,97.1399608 L110.579137,96.9266405 L110.579137,96.2866797 L110.579137,95.646719 L110.579137,94.5801177 C110.365817,93.9401569 110.365817,93.7268366 110.365817,93.5135164 L110.365817,93.5135164 Z M102.472967,96.2866797 C102.472967,96.5 102.259647,96.5 102.472967,96.2866797 C102.259647,96.5 102.259647,96.5 102.472967,96.2866797 C102.259647,96.7133203 102.259647,96.9266405 102.259647,97.353281 C102.259647,97.5666013 102.046327,97.5666013 102.046327,97.7799215 C102.046327,97.9932418 101.833006,98.2065621 101.833006,98.2065621 C101.619686,98.4198823 101.406366,98.6332026 101.193046,98.8465228 L101.193046,98.8465228 C100.979725,98.8465228 100.979725,99.0598431 100.766405,99.0598431 C100.553085,99.0598431 100.553085,99.2731634 100.339765,99.2731634 C100.339765,99.2731634 100.126444,99.2731634 100.126444,99.4864836 L99.9131241,99.6998039 C99.9131241,99.6998039 99.9131241,99.6998039 99.6998039,99.6998039 C99.4864836,99.6998039 99.2731634,99.9131241 99.0598431,99.9131241 L99.0598431,99.9131241 C98.8465228,99.9131241 98.6332026,99.9131241 98.4198823,100.126444 L97.9932418,100.126444 L97.7799215,100.126444 C97.7799215,100.126444 97.7799215,100.126444 97.5666013,100.126444 L97.353281,100.126444 L96.9266405,100.126444 L96.7133203,100.126444 L96.5,100.126444 L96.2866797,100.126444 C96.0733595,100.126444 96.0733595,100.126444 95.8600392,99.9131241 C95.8600392,99.9131241 95.8600392,99.9131241 95.646719,99.9131241 C95.4333987,99.9131241 95.2200785,99.6998039 95.2200785,99.6998039 L95.2200785,99.6998039 C95.0067582,99.6998039 95.0067582,99.4864836 94.7934379,99.4864836 L94.7934379,99.4864836 C94.5801177,99.4864836 94.5801177,99.2731634 94.5801177,99.2731634 L94.5801177,99.2731634 C94.5801177,99.2731634 94.5801177,99.2731634 94.5801177,99.0598431 L94.3667974,98.8465228 C94.3667974,98.8465228 94.3667974,98.6332026 94.1534772,98.6332026 C94.1534772,98.4198823 93.9401569,98.4198823 93.9401569,98.2065621 L93.9401569,98.2065621 C93.9401569,97.9932418 93.7268366,97.7799215 93.7268366,97.7799215 L93.7268366,97.7799215 C93.7268366,97.5666013 93.5135164,97.5666013 93.5135164,97.353281 L93.5135164,97.1399608 L93.5135164,96.9266405 C93.5135164,96.9266405 93.5135164,96.9266405 93.5135164,96.7133203 L93.5135164,96.0733595 L93.5135164,95.8600392 L93.5135164,95.8600392 L93.5135164,95.4333987 C93.5135164,95.2200785 93.5135164,95.0067582 93.7268366,94.7934379 L93.7268366,94.7934379 C93.7268366,94.5801177 93.9401569,94.3667974 93.9401569,94.1534772 L93.9401569,93.9401569 L93.9401569,93.7268366 C93.9401569,93.5135164 94.1534772,93.5135164 94.1534772,93.5135164 C94.3667974,93.3001961 94.3667974,93.0868759 94.5801177,92.8735556 C94.5801177,92.8735556 94.5801177,92.8735556 94.5801177,92.6602354 C94.7934379,92.4469151 95.0067582,92.2335948 95.2200785,92.0202746 C95.4333987,92.0202746 95.4333987,91.8069543 95.646719,91.8069543 C95.646719,91.8069543 95.8600392,91.8069543 95.8600392,91.5936341 C95.8600392,91.5936341 96.0733595,91.5936341 96.0733595,91.3803138 C96.2866797,91.1669935 96.5,91.1669935 96.7133203,91.1669935 L96.9266405,91.1669935 L96.9266405,91.1669935 C97.353281,91.1669935 97.5666013,90.9536733 97.9932418,90.9536733 L97.9932418,90.9536733 C98.4198823,90.9536733 98.8465228,90.9536733 99.0598431,91.1669935 L99.2731634,91.1669935 C99.4864836,91.1669935 99.9131241,91.3803138 100.126444,91.5936341 L100.126444,91.5936341 L100.339765,91.5936341 C100.553085,91.8069543 100.979725,92.0202746 101.193046,92.2335948 C101.193046,92.2335948 101.406366,92.2335948 101.406366,92.4469151 L101.406366,92.4469151 C101.619686,92.6602354 101.833006,92.8735556 102.046327,93.0868759 C102.046327,93.0868759 102.046327,93.3001961 102.259647,93.3001961 C102.472967,93.7268366 102.686287,93.9401569 102.686287,94.3667974 L102.686287,94.5801177 C102.686287,95.0067582 102.899608,95.2200785 102.899608,95.646719 L102.899608,95.646719 C102.472967,95.646719 102.472967,96.0733595 102.472967,96.2866797 L102.472967,96.2866797 Z" id="Shape"></path>
                    <path d="M96.5,148.976783 L94.1534772,148.976783 L94.1534772,190.574234 C94.1534772,191.854155 95.2200785,192.920757 96.5,192.920757 C97.7799215,192.920757 98.8465228,191.854155 98.8465228,190.574234 L98.8465228,148.976783 L97.7799215,148.976783 C97.5666013,148.976783 96.9266405,149.190104 96.5,148.976783 L96.5,148.976783 Z" id="Shape"></path>
                    <path d="M97.5666013,41.4633734 L98.6332026,41.4633734 L98.6332026,2.42576619 C98.6332026,1.14584464 97.5666013,0.0792433463 96.2866797,0.0792433463 C95.0067582,0.0792433463 93.9401569,1.14584464 93.9401569,2.42576619 L93.9401569,41.6766937 L96.2866797,41.6766937 C96.9266405,41.6766937 97.353281,41.4633734 97.5666013,41.4633734 L97.5666013,41.4633734 Z" id="Shape"></path>
                    <path d="M79.4343794,173.721933 C79.2210591,174.361894 79.4343794,175.001855 79.8610199,175.428495 C80.2876604,175.855136 80.7143009,176.281777 81.3542617,176.495097 L81.7809022,176.495097 C82.8475035,176.495097 83.9141048,175.641816 84.127425,174.575214 L89.033791,148.336823 C87.5405492,148.123502 86.0473074,147.696862 84.5540655,147.483542 L79.4343794,173.721933 L79.4343794,173.721933 Z" id="Shape"></path>
                    <path d="M82.8475035,43.596576 C83.7007845,43.3832557 84.3407453,43.1699355 85.1940263,42.9566152 C86.0473074,42.743295 86.6872681,42.5299747 87.5405492,42.5299747 L81.5675819,15.4383019 C81.3542617,14.3717006 80.2876604,13.5184196 79.2210591,13.5184196 L78.7944186,13.5184196 C78.1544578,13.7317399 77.7278173,13.9450601 77.3011768,14.5850209 C76.8745363,15.0116614 76.8745363,15.6516222 77.0878565,16.291583 L82.8475035,43.596576 L82.8475035,43.596576 Z" id="Shape"></path>
                    <path d="M59.1689548,182.894705 C58.7423143,184.174626 59.1689548,185.454548 60.4488764,185.881188 C60.6621966,186.094508 61.0888372,186.094508 61.3021574,186.094508 C62.3687587,186.094508 63.2220397,185.454548 63.43536,184.601267 L79.0077388,145.77698 C77.514497,145.137019 76.0212552,144.710378 74.7413337,144.070418 L59.1689548,182.894705 L59.1689548,182.894705 Z" id="Shape"></path>
                    <path d="M73.0347716,47.4363406 C74.5280134,46.7963799 75.807935,46.1564191 77.3011768,45.5164583 L61.7287979,9.03869419 C61.3021574,8.18541315 60.4488764,7.54545238 59.5955954,7.54545238 C59.3822751,7.54545238 58.9556346,7.54545238 58.7423143,7.75877264 C58.1023535,7.9720929 57.675713,8.61205367 57.4623928,9.03869419 C57.2490725,9.67865496 57.2490725,10.3186157 57.4623928,10.7452563 L73.0347716,47.4363406 L73.0347716,47.4363406 Z" id="Shape"></path>
                    <path d="M68.1284057,140.230653 C67.4884449,139.804012 66.8484841,139.377372 66.2085234,138.950731 L49.7828635,164.335842 C49.1429027,165.402443 49.356223,166.895685 50.4228243,167.535646 C50.8494648,167.748966 51.2761053,167.962286 51.7027458,167.962286 C52.5560268,167.962286 53.1959876,167.535646 53.6226281,166.895685 L70.048288,141.510574 C69.4083272,141.083934 68.7683664,140.657293 68.1284057,140.230653 L68.1284057,140.230653 Z" id="Shape"></path>
                    <path d="M64.288641,53.1959876 C65.5685626,52.1293863 66.8484841,51.2761053 68.1284057,50.4228243 L53.8359484,29.9440795 C53.4093079,29.3041187 52.7693471,28.8774782 51.9160661,28.8774782 C51.4894255,28.8774782 51.062785,29.0907984 50.6361445,29.3041187 C49.5695432,29.9440795 49.356223,31.4373213 49.9961837,32.5039226 L64.288641,53.1959876 L64.288641,53.1959876 Z" id="Shape"></path>
                    <path d="M59.5955954,133.404405 C58.9556346,132.764444 58.5289941,132.337803 57.8890333,131.697843 L28.2375174,161.349358 C27.3842364,162.202639 27.3842364,163.695881 28.2375174,164.549162 C28.6641579,164.975803 29.3041187,165.189123 29.9440795,165.189123 C30.5840403,165.189123 31.224001,164.975803 31.6506415,164.549162 L61.3021574,134.897646 C60.6621966,134.471006 60.2355561,133.831045 59.5955954,133.404405 L59.5955954,133.404405 Z" id="Shape"></path>
                    <path d="M57.0357523,60.2355561 C57.4623928,59.5955954 58.1023535,58.9556346 58.5289941,58.5289941 L58.5289941,58.5289941 C58.9556346,57.8890333 59.5955954,57.4623928 60.2355561,56.822432 L31.6506415,28.4508377 C30.7973605,27.5975566 29.3041187,27.5975566 28.2375174,28.4508377 C27.3842364,29.3041187 27.3842364,30.7973605 28.2375174,31.6506415 L57.0357523,60.2355561 L57.0357523,60.2355561 Z" id="Shape"></path>
                    <path d="M28.8774782,140.657293 C28.6641579,141.297254 28.8774782,141.937215 29.3041187,142.363855 C29.7307592,143.003816 30.37072,143.430457 31.224001,143.430457 C31.6506415,143.430457 32.0772821,143.217137 32.5039226,143.003816 L54.6892294,127.858078 C53.8359484,126.578156 52.7693471,125.298235 52.1293863,124.018313 L29.9440795,139.164052 C29.3041187,139.377372 29.0907984,140.017333 28.8774782,140.657293 L28.8774782,140.657293 Z M31.224001,141.083934 L31.224001,142.150535 L31.224001,141.083934 L31.224001,141.083934 L31.224001,141.083934 Z" id="Shape"></path>
                    <path d="M26.1043148,53.8359484 L50.4228243,69.6216475 C50.8494648,68.9816867 51.2761053,68.3417259 51.4894255,67.7017652 C51.9160661,67.0618044 52.3427066,66.4218436 52.7693471,65.7818828 L28.4508377,49.9961837 C28.0241972,49.7828635 27.5975566,49.5695432 27.1709161,49.5695432 C26.3176351,49.5695432 25.6776743,49.9961837 25.2510338,50.6361445 C24.611073,51.7027458 25.0377135,52.9826674 26.1043148,53.8359484 L26.1043148,53.8359484 Z" id="Shape"></path>
                    <path d="M47.6496609,114.845542 L9.03869419,131.271202 C8.39873341,131.484522 7.9720929,131.911163 7.75877264,132.551124 C7.54545238,133.191084 7.54545238,133.831045 7.75877264,134.257686 C8.18541315,135.110967 9.03869419,135.750927 9.89197522,135.750927 C10.1052955,135.750927 10.531936,135.750927 10.7452563,135.537607 L49.356223,119.111947 C48.7162622,117.618706 48.0763014,116.338784 47.6496609,114.845542 L47.6496609,114.845542 Z" id="Shape"></path>
                    <path d="M8.39873341,63.6486803 L46.5830596,79.0077388 C47.0097001,77.514497 47.6496609,76.0212552 48.2896217,74.5280134 L10.1052955,59.1689548 C9.89197522,58.9556346 9.4653347,58.9556346 9.25201444,58.9556346 C8.39873341,58.9556346 7.33213212,59.5955954 7.11881186,60.4488764 C6.69217135,61.7287979 7.11881186,63.0087195 8.39873341,63.6486803 L8.39873341,63.6486803 Z" id="Shape"></path>
                    <path d="M13.9450601,112.499019 C13.5184196,112.92566 13.5184196,113.565621 13.5184196,114.205581 C13.7317399,115.272183 14.7983412,116.125464 15.8649424,116.125464 L16.291583,116.125464 L45.7297786,109.725856 C45.5164583,108.872575 45.3031381,108.232614 45.0898178,107.379333 C44.8764975,106.526052 44.6631773,105.886091 44.6631773,105.03281 L15.4383019,111.432418 C14.7983412,111.645738 14.3717006,112.072379 13.9450601,112.499019 L13.9450601,112.499019 Z" id="Shape"></path>
                    <path d="M19.2780666,79.4343794 C17.998145,79.2210591 16.7182235,80.0743401 16.5049032,81.3542617 C16.291583,81.9942225 16.5049032,82.6341832 16.9315437,83.0608237 C17.3581843,83.4874643 17.7848248,83.9141048 18.4247855,84.127425 L44.2365368,89.033791 C44.449857,87.5405492 44.6631773,85.8339871 44.8764975,84.3407453 L19.2780666,79.4343794 L19.2780666,79.4343794 Z" id="Shape"></path>
                    <path d="M44.0232165,96.5 L44.0232165,95.4333987 L44.0232165,94.3667974 L2.42576619,94.3667974 C1.14584464,94.3667974 0.0792433463,95.4333987 0.0792433463,96.7133203 C0.0792433463,97.9932418 1.14584464,99.0598431 2.42576619,99.0598431 L44.0232165,99.0598431 L44.0232165,96.5 L44.0232165,96.5 Z" id="Shape"></path>
                </g>
            </g>
        </g>
    </g>
</svg>