<?xml version="1.0" encoding="UTF-8" standalone="no"?>
<svg width="76px" height="65px" viewBox="0 0 76 65" version="1.1" xmlns="http://www.w3.org/2000/svg" xmlns:xlink="http://www.w3.org/1999/xlink" xmlns:sketch="http://www.bohemiancoding.com/sketch/ns">
    <!-- Generator: Sketch 3.3.1 (12002) - http://www.bohemiancoding.com/sketch -->
    <title>Group 7</title>
    <desc>Created with Sketch.</desc>
    <defs>
        <rect id="path-1" x="0" y="0" width="81" height="74"></rect>
    </defs>
    <g id="Page-1" stroke="none" stroke-width="1" fill="none" fill-rule="evenodd" sketch:type="MSPage">
        <g id="Blog" sketch:type="MSArtboardGroup" transform="translate(-1050.000000, -239.000000)">
            <g id="Group-7" sketch:type="MSLayerGroup" transform="translate(1045.000000, 239.000000)">
                <mask id="mask-2" sketch:name="Mask" fill="white">
                    <use xlink:href="#path-1"></use>
                </mask>
                <use id="Mask" sketch:type="MSShapeGroup" xlink:href="#path-1"></use>
                <g id="Group-6" mask="url(#mask-2)" fill="#FFFFFF" sketch:type="MSShapeGroup">
                    <g transform="translate(5.558824, -32.141414)" id="Shape">
                        <path d="M88.5854422,69.5274003 L76.017264,61.8538998 C75.7908104,62.173629 75.5643567,62.4933582 75.337903,62.8130874 C75.1114494,63.1328165 74.8849957,63.4525457 74.6585421,63.7722749 L87.339947,71.4457754 C87.5664007,71.5523518 87.7928543,71.6589282 88.019308,71.6589282 C88.4722153,71.6589282 88.8118958,71.4457754 89.0383495,71.1260462 C89.37803,70.6997406 89.1515763,69.9537058 88.5854422,69.5274003 L88.5854422,69.5274003 Z"></path>
                        <path d="M72.2807786,66.3301084 L71.374964,67.1827196 C71.0352835,67.5024487 70.8088298,67.7156015 70.4691493,67.9287543 L85.6415446,82.2099913 C85.8679982,82.4231441 86.2076787,82.5297205 86.5473592,82.5297205 C86.8870397,82.5297205 87.2267202,82.4231441 87.4531739,82.2099913 C87.9060812,81.7836857 87.9060812,81.0376509 87.4531739,80.6113454 L72.2807786,66.3301084 L72.2807786,66.3301084 Z"></path>
                        <path d="M87.1134934,26.1508074 C87.2267202,25.8310782 87.1134934,25.511349 86.8870397,25.2981962 C86.660586,24.9784671 86.3209056,24.7653143 85.8679982,24.7653143 C85.6415446,24.7653143 85.4150909,24.8718907 85.1886373,24.9784671 L74.7717689,31.5862036 C75.2246762,32.2256619 75.6775835,32.8651203 76.1304909,33.5045787 L86.5473592,26.7902658 C86.8870397,26.7902658 87.0002665,26.4705366 87.1134934,26.1508074 L87.1134934,26.1508074 Z"></path>
                        <path d="M68.2046127,69.6339767 C67.5252518,70.0602822 66.8458908,70.4865878 66.1665298,70.9128934 L73.8659542,81.4639565 C74.0924079,81.7836857 74.4320884,81.9968385 74.8849957,81.9968385 C75.1114494,81.9968385 75.337903,81.8902621 75.5643567,81.7836857 C76.1304909,81.4639565 76.2437177,80.7179218 75.9040372,80.1850398 L68.2046127,69.6339767 L68.2046127,69.6339767 Z"></path>
                        <path d="M56.0893419,69.740553 C56.5422492,69.6339767 56.8819297,69.6339767 57.3348371,69.5274003 C58.014198,69.4208239 58.5803322,69.2076711 59.2596932,68.9945183 C60.052281,68.7813655 60.8448688,68.4616363 61.5242298,68.1419071 C62.2035908,67.8221779 62.7697249,67.6090251 63.4490859,67.289296 C64.1284469,66.8629904 64.9210347,66.4366848 65.6003957,66.0103792 C66.1665298,65.69065 66.6194371,65.2643444 67.1855713,64.8380389 C67.5252518,64.6248861 67.8649323,64.3051569 68.0913859,64.0920041 C68.4310664,63.8788513 68.6575201,63.5591221 68.9972006,63.2393929 C69.5633347,62.706511 70.1294689,62.0670526 70.695603,61.4275942 C70.9220567,61.107865 71.1485103,60.7881358 71.4881908,60.4684067 C71.7146445,60.1486775 71.9410981,59.8289483 72.1675518,59.5092191 C72.5072323,58.9763371 72.8469128,58.3368788 73.1865933,57.8039968 C73.5262738,57.1645384 73.8659542,56.4185036 74.2056347,55.6724689 C74.4320884,55.0330105 74.6585421,54.2869757 74.8849957,53.6475174 C75.1114494,52.9014826 75.337903,52.1554478 75.4511299,51.4094131 C75.5643567,50.7699547 75.6775835,50.1304963 75.6775835,49.491038 C75.6775835,49.0647324 75.6775835,48.7450032 75.7908104,48.3186976 L75.7908104,47.7858156 L75.7908104,47.2529337 C75.7908104,46.4003225 75.6775835,45.5477113 75.5643567,44.6951002 C75.4511299,44.2687946 75.4511299,43.9490654 75.337903,43.5227598 C75.2246762,43.0964542 75.2246762,42.7767251 75.1114494,42.3504195 C74.8849957,41.7109611 74.7717689,40.9649263 74.4320884,40.325468 C74.2056347,39.5794332 73.8659542,38.8333984 73.5262738,38.1939401 C73.1865933,37.5544817 72.8469128,36.9150233 72.3940055,36.2755649 C71.9410981,35.6361066 71.4881908,34.9966482 71.0352835,34.3571898 C70.5823762,33.8243079 70.1294689,33.2914259 69.6765615,32.7585439 C69.4501079,32.4388147 69.1104274,32.2256619 68.7707469,31.9059327 C68.4310664,31.5862036 68.2046127,31.3730508 67.8649323,31.0533216 C67.1855713,30.5204396 66.5062103,29.9875576 65.7136225,29.4546757 C65.373942,29.2415229 65.0342615,29.0283701 64.694581,28.8152173 L64.694581,28.8152173 C64.3549005,28.6020645 64.01522,28.3889117 63.6755395,28.1757589 C62.9961786,27.8560297 62.3168176,27.5363005 61.6374566,27.2165714 C60.8448688,26.8968422 60.1655078,26.577113 59.37292,26.3639602 C58.5803322,26.1508074 57.9009712,25.9376546 57.1083834,25.8310782 C56.3157956,25.6179254 55.5232078,25.511349 54.6173931,25.4047726 C53.9380322,25.2981962 53.2586712,25.2981962 52.5793102,25.2981962 L52.013176,25.2981962 L51.4470419,25.2981962 C50.9941346,25.2981962 50.6544541,25.2981962 50.2015468,25.4047726 C49.2957321,25.511349 48.3899175,25.6179254 47.5973297,25.7245018 C47.1444224,25.8310782 46.8047419,25.8310782 46.3518345,25.9376546 C45.8989272,26.044231 45.5592467,26.1508074 45.1063394,26.2573838 C44.4269784,26.4705366 43.7476175,26.6836894 43.0682565,26.8968422 C42.2756687,27.2165714 41.5963077,27.5363005 40.8037199,27.8560297 C40.1243589,28.1757589 39.5582247,28.4954881 38.8788638,28.9217937 C38.1995028,29.3480993 37.5201418,29.7744048 36.8407808,30.3072868 C36.2746467,30.7335924 35.8217393,31.159898 35.368832,31.5862036 C35.0291515,31.9059327 34.8026979,32.1190855 34.4630174,32.4388147 C34.2365637,32.7585439 33.8968832,32.9716967 33.6704296,33.2914259 C33.1042954,33.9308843 32.6513881,34.5703426 32.1984808,35.209801 C31.9720271,35.5295302 31.7455735,35.8492594 31.5191198,36.1689886 C31.2926661,36.4887177 31.0662125,36.8084469 30.9529857,37.2347525 C30.6133052,37.7676345 30.3868515,38.4070929 30.047171,38.9399748 C29.7074905,39.6860096 29.4810369,40.4320444 29.2545832,41.1780791 C29.0281295,41.8175375 28.9149027,42.4569959 28.6884491,43.0964542 C28.4619954,43.842489 28.3487686,44.5885238 28.3487686,45.4411349 C28.2355417,45.9740169 28.2355417,46.6134753 28.2355417,47.1463573 L28.2355417,47.6792392 L28.2355417,48.2121212 C28.2355417,48.6384268 28.2355417,48.958156 28.3487686,49.3844616 C28.4619954,50.1304963 28.4619954,50.8765311 28.6884491,51.6225659 C28.8016759,52.0488714 28.8016759,52.3686006 28.9149027,52.7949062 C29.0281295,53.2212118 29.1413564,53.540941 29.2545832,53.9672466 C29.4810369,54.5001285 29.5942637,55.1395869 29.8207174,55.6724689 C30.1603978,56.4185036 30.5000783,57.1645384 30.8397588,57.8039968 C31.1794393,58.3368788 31.5191198,58.8697607 31.8588003,59.4026427 C32.3117076,60.0421011 32.7646149,60.6815595 33.2175223,61.3210178 C33.5572027,61.7473234 34.0101101,62.173629 34.3497906,62.5999346 C34.5762442,62.9196638 34.9159247,63.1328165 35.2556052,63.4525457 C35.5952857,63.7722749 35.8217393,63.9854277 36.1614198,64.3051569 C36.727554,64.8380389 37.406915,65.2643444 37.9730491,65.69065 C38.3127296,65.9038028 38.6524101,66.1169556 38.9920906,66.3301084 C39.3317711,66.5432612 39.6714516,66.756414 40.0111321,66.9695668 C40.5772662,67.289296 41.1434004,67.6090251 41.7095345,67.8221779 C42.5021223,68.1419071 43.1814833,68.4616363 43.9740711,68.6747891 C44.6534321,68.8879419 45.2195662,69.1010947 45.8989272,69.2076711 C46.691515,69.4208239 47.4841028,69.5274003 48.2766907,69.740553 C48.8428248,69.8471294 49.5221858,69.8471294 50.0883199,69.9537058 C50.5412273,69.9537058 50.8809077,69.9537058 51.3338151,70.0602822 L51.8999492,70.0602822 L52.4660834,70.0602822 C53.2586712,70.0602822 54.051259,69.9537058 54.8438468,69.8471294 C55.2967541,69.8471294 55.7496614,69.740553 56.0893419,69.740553 L56.0893419,69.740553 L56.0893419,69.740553 Z M54.051259,66.1169556 C53.4851248,66.1169556 53.0322175,66.223532 52.4660834,66.223532 L51.8999492,66.223532 L51.3338151,66.223532 C50.8809077,66.223532 50.5412273,66.223532 50.0883199,66.1169556 C49.7486394,66.1169556 49.408959,66.0103792 49.0692785,66.0103792 C48.2766907,65.9038028 47.4841028,65.69065 46.691515,65.4774972 C46.3518345,65.3709208 45.8989272,65.2643444 45.5592467,65.1577681 C44.7666589,64.9446153 43.9740711,64.6248861 43.2947101,64.1985805 C42.9550296,64.0920041 42.6153492,63.8788513 42.2756687,63.6656985 C41.9359882,63.4525457 41.5963077,63.2393929 41.2566272,63.0262401 C40.9169467,62.8130874 40.5772662,62.5999346 40.2375857,62.3867818 C39.7846784,62.0670526 39.4449979,61.7473234 39.1053174,61.5341706 C38.7656369,61.3210178 38.5391833,61.0012886 38.1995028,60.7881358 C37.8598223,60.4684067 37.6333686,60.2552539 37.406915,59.9355247 C37.1804613,59.7223719 36.9540076,59.4026427 36.727554,59.1894899 C36.1614198,58.5500315 35.7085125,57.9105732 35.2556052,57.2711148 C35.0291515,56.9513856 34.8026979,56.6316564 34.689471,56.3119272 C34.3497906,55.6724689 34.0101101,54.9264341 33.6704296,54.1803993 C33.5572027,53.8606702 33.4439759,53.540941 33.3307491,53.1146354 C33.2175223,52.6883298 33.1042954,52.3686006 32.9910686,51.942295 C32.8778418,51.5159895 32.7646149,51.1962603 32.7646149,50.7699547 C32.6513881,50.3436491 32.6513881,49.8107671 32.5381613,49.2778852 C32.5381613,48.8515796 32.4249344,48.5318504 32.4249344,48.1055448 L32.4249344,47.5726628 L32.4249344,47.0397809 C32.4249344,46.7200517 32.4249344,46.2937461 32.5381613,45.9740169 C32.6513881,45.2279821 32.7646149,44.375371 32.8778418,43.6293362 C32.9910686,43.2030306 33.1042954,42.8833015 33.2175223,42.4569959 C33.4439759,41.7109611 33.6704296,40.9649263 34.0101101,40.2188916 C34.1233369,39.8991624 34.3497906,39.4728568 34.5762442,39.1531276 C34.8026979,38.8333984 34.9159247,38.5136692 35.1423784,38.0873637 C35.368832,37.7676345 35.5952857,37.4479053 35.8217393,37.1281761 C36.1614198,36.7018705 36.5011003,36.2755649 36.8407808,35.8492594 C37.0672345,35.5295302 37.406915,35.209801 37.6333686,34.9966482 C37.8598223,34.676919 38.1995028,34.4637662 38.5391833,34.144037 C38.8788638,33.9308843 39.1053174,33.6111551 39.4449979,33.3980023 C40.1243589,32.8651203 40.690493,32.4388147 41.4830808,32.0125091 C41.9359882,31.7993563 42.2756687,31.5862036 42.728576,31.2664744 C43.407937,30.8401688 44.2005248,30.5204396 44.9931126,30.3072868 C45.4460199,30.2007104 45.8989272,29.9875576 46.2386077,29.8809812 C46.5782882,29.7744048 47.0311955,29.6678284 47.4841028,29.561252 C47.9370102,29.4546757 48.2766907,29.3480993 48.729598,29.3480993 C49.2957321,29.2415229 49.8618663,29.1349465 50.5412273,29.1349465 C50.9941346,29.1349465 51.3338151,29.0283701 51.7867224,29.0283701 L52.3528565,29.0283701 L52.9189907,29.0283701 C53.371898,29.0283701 53.8248053,29.0283701 54.2777126,29.1349465 C55.0703005,29.2415229 55.9761151,29.3480993 56.7687029,29.561252 C57.2216102,29.6678284 57.7877444,29.7744048 58.2406517,29.8809812 C59.0332395,30.094134 59.8258273,30.4138632 60.5051883,30.7335924 C60.9580956,30.9467452 61.4110029,31.159898 61.8639103,31.3730508 C62.2035908,31.5862036 62.5432712,31.7993563 62.8829517,32.0125091 C63.2226322,32.2256619 63.5623127,32.4388147 63.9019932,32.6519675 C64.3549005,32.9716967 64.9210347,33.3980023 65.373942,33.7177315 C65.7136225,33.9308843 65.9400761,34.2506134 66.2797566,34.4637662 C66.6194371,34.7834954 66.8458908,34.9966482 67.0723444,35.3163774 C67.4120249,35.6361066 67.6384786,35.9558358 67.9781591,36.2755649 C68.4310664,36.9150233 68.9972006,37.5544817 69.336881,38.1939401 C69.5633347,38.6202456 69.7897884,39.0465512 70.016242,39.4728568 C70.3559225,40.2188916 70.695603,40.8583499 70.9220567,41.6043847 C71.0352835,42.0306903 71.2617372,42.4569959 71.374964,42.8833015 C71.4881908,43.309607 71.6014176,43.6293362 71.6014176,44.0556418 C71.7146445,44.4819474 71.7146445,44.8016766 71.8278713,45.2279821 C71.9410981,45.7608641 71.9410981,46.4003225 71.9410981,46.9332045 L71.9410981,47.4660864 L71.9410981,47.9989684 C71.9410981,48.425274 71.9410981,48.7450032 71.8278713,49.1713088 C71.8278713,49.5976144 71.7146445,50.0239199 71.7146445,50.4502255 C71.6014176,51.1962603 71.374964,51.942295 71.1485103,52.6883298 C71.0352835,53.1146354 70.8088298,53.540941 70.695603,53.9672466 C70.3559225,54.7132813 70.016242,55.4593161 69.6765615,56.0987745 C69.4501079,56.4185036 69.2236542,56.8448092 68.9972006,57.1645384 C68.7707469,57.4842676 68.5442932,57.8039968 68.3178396,58.123726 L68.3178396,58.123726 C68.0913859,58.4434552 67.8649323,58.7631843 67.5252518,59.0829135 C67.1855713,59.5092191 66.732664,59.9355247 66.3929835,60.2552539 C66.053303,60.5749831 65.8268493,60.7881358 65.4871688,61.107865 C65.1474883,61.4275942 64.9210347,61.640747 64.5813542,61.8538998 C64.2416737,62.0670526 63.9019932,62.2802054 63.6755395,62.4933582 C62.9961786,62.9196638 62.3168176,63.3459693 61.5242298,63.7722749 C61.1845493,63.9854277 60.731642,64.1985805 60.2787346,64.3051569 C59.4861468,64.6248861 58.8067858,64.9446153 58.014198,65.1577681 C57.6745175,65.2643444 57.2216102,65.3709208 56.8819297,65.4774972 C56.4290224,65.5840736 56.0893419,65.69065 55.6364346,65.69065 C54.8438468,66.0103792 54.3909395,66.1169556 54.051259,66.1169556 L54.051259,66.1169556 Z"></path>
                        <path d="M63.4490859,72.1918101 C62.6564981,72.5115393 61.9771371,72.8312685 61.1845493,73.0444213 L69.6765615,91.9084433 C69.9030152,92.3347488 70.3559225,92.654478 70.8088298,92.654478 C70.9220567,92.654478 71.1485103,92.654478 71.2617372,92.5479016 C71.6014176,92.4413252 71.8278713,92.2281724 71.9410981,91.9084433 C72.054325,91.5887141 72.054325,91.2689849 71.9410981,91.0558321 L63.4490859,72.1918101 L63.4490859,72.1918101 Z M70.8088298,91.9084433 L70.8088298,91.4821377 L70.8088298,91.4821377 L70.8088298,91.9084433 L70.8088298,91.9084433 Z"></path>
                        <path d="M58.8067858,60.7881358 C59.5993737,60.4684067 60.2787346,60.0421011 60.9580956,59.6157955 C61.0713225,59.5092191 61.1845493,59.5092191 61.2977761,59.4026427 C61.6374566,59.1894899 61.9771371,58.8697607 62.3168176,58.6566079 C62.6564981,58.4434552 62.8829517,58.123726 63.2226322,57.8039968 C63.4490859,57.590844 63.5623127,57.3776912 63.7887664,57.2711148 C64.01522,56.9513856 64.3549005,56.6316564 64.5813542,56.3119272 C64.8078078,55.9921981 65.0342615,55.6724689 65.2607152,55.3527397 C65.373942,55.2461633 65.4871688,55.0330105 65.4871688,54.9264341 C65.9400761,54.2869757 66.2797566,53.540941 66.5062103,52.7949062 C66.6194371,52.5817534 66.6194371,52.3686006 66.732664,52.2620242 C66.9591176,51.5159895 67.1855713,50.7699547 67.2987981,50.0239199 C67.2987981,49.8107671 67.2987981,49.7041907 67.4120249,49.491038 C67.4120249,49.0647324 67.5252518,48.7450032 67.5252518,48.3186976 L67.5252518,47.7858156 L67.5252518,47.2529337 C67.5252518,46.9332045 67.5252518,46.6134753 67.4120249,46.2937461 C67.4120249,45.8674405 67.2987981,45.5477113 67.1855713,45.1214058 C67.0723444,44.6951002 67.0723444,44.375371 66.9591176,43.9490654 C66.9591176,43.7359126 66.8458908,43.5227598 66.732664,43.309607 C66.5062103,42.5635723 66.1665298,41.8175375 65.8268493,41.1780791 C65.7136225,40.9649263 65.6003957,40.7517735 65.4871688,40.5386208 C65.0342615,39.8991624 64.5813542,39.259704 64.1284469,38.6202456 C64.01522,38.5136692 63.9019932,38.3005165 63.7887664,38.1939401 C63.5623127,37.8742109 63.2226322,37.5544817 62.9961786,37.3413289 C62.6564981,37.0215997 62.4300444,36.8084469 62.0903639,36.5952941 C61.8639103,36.3821413 61.5242298,36.1689886 61.2977761,35.9558358 C60.9580956,35.742683 60.6184151,35.5295302 60.2787346,35.3163774 C59.9390542,35.1032246 59.5993737,34.8900718 59.2596932,34.676919 C59.0332395,34.5703426 58.8067858,34.4637662 58.693559,34.3571898 C57.9009712,34.0374606 57.2216102,33.7177315 56.3157956,33.5045787 C56.0893419,33.3980023 55.8628883,33.3980023 55.6364346,33.2914259 C54.8438468,33.0782731 54.051259,32.9716967 53.1454443,32.9716967 L52.5793102,32.9716967 L52.013176,32.9716967 L51.4470419,32.9716967 C50.9941346,32.9716967 50.6544541,32.9716967 50.2015468,33.0782731 C49.8618663,33.0782731 49.6354126,33.1848495 49.2957321,33.1848495 C48.8428248,33.2914259 48.5031443,33.2914259 48.050237,33.3980023 L48.050237,33.3980023 C47.5973297,33.5045787 47.2576492,33.6111551 46.8047419,33.7177315 C46.5782882,33.8243079 46.4650614,33.8243079 46.2386077,33.9308843 C45.4460199,34.2506134 44.7666589,34.5703426 43.9740711,34.9966482 C43.7476175,35.1032246 43.6343906,35.209801 43.407937,35.3163774 C42.728576,35.742683 42.049215,36.1689886 41.4830808,36.7018705 C41.369854,36.8084469 41.2566272,36.9150233 41.1434004,37.0215997 C40.8037199,37.3413289 40.5772662,37.5544817 40.2375857,37.8742109 C40.0111321,38.1939401 39.6714516,38.5136692 39.4449979,38.726822 C39.3317711,38.9399748 39.1053174,39.1531276 38.9920906,39.3662804 C38.7656369,39.6860096 38.5391833,40.0057388 38.3127296,40.325468 C38.0862759,40.6451972 37.8598223,40.9649263 37.7465955,41.3912319 C37.6333686,41.4978083 37.6333686,41.6043847 37.5201418,41.8175375 C37.1804613,42.5635723 36.9540076,43.309607 36.727554,44.0556418 C36.727554,44.1622182 36.6143272,44.375371 36.6143272,44.4819474 C36.3878735,45.2279821 36.2746467,45.9740169 36.2746467,46.8266281 L36.2746467,47.1463573 L36.2746467,47.6792392 L36.2746467,48.2121212 C36.2746467,48.6384268 36.2746467,48.958156 36.3878735,49.3844616 C36.3878735,49.5976144 36.5011003,49.8107671 36.5011003,50.0239199 C36.6143272,50.4502255 36.6143272,50.7699547 36.727554,51.1962603 C36.8407808,51.6225659 36.9540076,51.942295 37.0672345,52.3686006 C37.0672345,52.475177 37.1804613,52.5817534 37.1804613,52.6883298 C37.406915,53.4343646 37.8598223,54.1803993 38.1995028,54.8198577 C38.3127296,54.9264341 38.3127296,55.0330105 38.4259564,55.1395869 C38.8788638,55.7790453 39.3317711,56.4185036 39.8979052,57.057962 C40.0111321,57.1645384 40.0111321,57.1645384 40.1243589,57.2711148 C40.3508125,57.590844 40.690493,57.8039968 40.9169467,58.123726 C41.2566272,58.4434552 41.4830808,58.6566079 41.8227613,58.8697607 C41.9359882,58.9763371 42.1624418,59.0829135 42.2756687,59.2960663 C42.6153492,59.5092191 42.9550296,59.7223719 43.2947101,59.9355247 C43.6343906,60.1486775 43.9740711,60.3618303 44.3137516,60.5749831 C44.4269784,60.5749831 44.5402053,60.6815595 44.6534321,60.6815595 C45.3327931,61.0012886 46.1253809,61.3210178 46.9179687,61.640747 C47.0311955,61.640747 47.1444224,61.7473234 47.370876,61.7473234 C48.1634638,61.9604762 48.9560516,62.173629 49.7486394,62.2802054 L50.0883199,62.2802054 C50.5412273,62.2802054 50.8809077,62.3867818 51.3338151,62.3867818 L51.8999492,62.3867818 L52.4660834,62.3867818 L53.1454443,62.3867818 C53.5983517,62.3867818 53.9380322,62.2802054 54.3909395,62.2802054 C54.8438468,62.173629 55.1835273,62.173629 55.6364346,62.0670526 C55.7496614,62.0670526 55.8628883,61.9604762 56.0893419,61.9604762 C56.8819297,61.7473234 57.6745175,61.5341706 58.4671054,61.107865 C58.4671054,60.8947122 58.693559,60.8947122 58.8067858,60.7881358 L58.8067858,60.7881358 Z M57.9009712,56.2053509 C57.4480639,56.52508 56.9951566,56.7382328 56.4290224,56.9513856 C56.3157956,57.057962 56.2025688,57.057962 56.0893419,57.057962 C55.6364346,57.2711148 55.0703005,57.3776912 54.5041663,57.590844 C54.3909395,57.590844 54.1644858,57.6974204 54.051259,57.6974204 C53.8248053,57.6974204 53.5983517,57.8039968 53.2586712,57.8039968 C52.9189907,57.8039968 52.5793102,57.9105732 52.3528565,57.9105732 L52.013176,57.9105732 L51.6734956,57.9105732 L51.1073614,57.9105732 C50.8809077,57.9105732 50.6544541,57.9105732 50.4280004,57.8039968 C50.2015468,57.8039968 50.0883199,57.8039968 49.8618663,57.6974204 C49.408959,57.590844 48.9560516,57.4842676 48.5031443,57.3776912 C48.3899175,57.3776912 48.1634638,57.2711148 48.050237,57.2711148 C47.5973297,57.1645384 47.1444224,56.9513856 46.691515,56.7382328 C46.5782882,56.6316564 46.3518345,56.52508 46.2386077,56.52508 C46.0121541,56.4185036 45.7857004,56.3119272 45.6724736,56.2053509 C45.4460199,56.0987745 45.2195662,55.8856217 44.9931126,55.6724689 C44.8798858,55.5658925 44.7666589,55.5658925 44.7666589,55.4593161 C44.5402053,55.2461633 44.3137516,55.1395869 44.0872979,54.9264341 C43.9740711,54.8198577 43.7476175,54.6067049 43.6343906,54.5001285 C43.5211638,54.3935521 43.407937,54.1803993 43.2947101,54.0738229 C42.9550296,53.7540938 42.728576,53.4343646 42.5021223,53.008059 C42.3888955,52.9014826 42.2756687,52.6883298 42.2756687,52.5817534 C42.049215,52.1554478 41.8227613,51.7291423 41.7095345,51.3028367 C41.5963077,51.1962603 41.5963077,50.9831075 41.4830808,50.8765311 C41.369854,50.6633783 41.369854,50.4502255 41.2566272,50.2370727 C41.1434004,49.9173435 41.1434004,49.7041907 41.0301735,49.3844616 L41.0301735,49.0647324 C41.0301735,48.7450032 40.9169467,48.5318504 40.9169467,48.2121212 L40.9169467,47.6792392 C40.9169467,47.6792392 40.9169467,47.6792392 40.9169467,47.5726628 L40.9169467,47.0397809 C40.9169467,46.6134753 41.0301735,46.0805933 41.1434004,45.6542877 C41.1434004,45.5477113 41.2566272,45.3345585 41.2566272,45.2279821 C41.369854,44.6951002 41.5963077,44.2687946 41.7095345,43.7359126 C41.8227613,43.6293362 41.8227613,43.5227598 41.9359882,43.309607 C42.049215,43.0964542 42.1624418,42.8833015 42.2756687,42.6701487 C42.3888955,42.3504195 42.6153492,42.1372667 42.8418028,41.8175375 L42.9550296,41.7109611 C43.1814833,41.3912319 43.407937,41.1780791 43.6343906,40.9649263 C43.8608443,40.7517735 43.9740711,40.5386208 44.2005248,40.4320444 L44.5402053,40.1123152 C44.9931126,39.6860096 45.4460199,39.3662804 45.8989272,39.0465512 C46.0121541,39.0465512 46.0121541,38.9399748 46.1253809,38.9399748 C46.691515,38.6202456 47.2576492,38.3005165 47.8237833,38.0873637 C47.9370102,38.0873637 48.050237,37.9807873 48.1634638,37.9807873 C48.5031443,37.8742109 48.729598,37.7676345 49.0692785,37.6610581 C49.408959,37.5544817 49.8618663,37.4479053 50.2015468,37.4479053 L50.3147736,37.4479053 C50.6544541,37.3413289 51.1073614,37.3413289 51.4470419,37.3413289 L52.013176,37.3413289 L52.3528565,37.3413289 L52.692537,37.3413289 C53.371898,37.3413289 54.051259,37.4479053 54.6173931,37.6610581 L54.8438468,37.6610581 C55.5232078,37.8742109 56.2025688,38.0873637 56.7687029,38.3005165 C56.8819297,38.3005165 56.8819297,38.4070929 56.9951566,38.4070929 C57.3348371,38.5136692 57.5612907,38.726822 57.9009712,38.8333984 C58.2406517,39.0465512 58.5803322,39.259704 58.9200127,39.4728568 L58.9200127,39.4728568 C59.2596932,39.6860096 59.5993737,40.0057388 59.8258273,40.2188916 C60.052281,40.4320444 60.2787346,40.6451972 60.5051883,40.8583499 C60.6184151,40.9649263 60.6184151,40.9649263 60.731642,41.0715027 C61.1845493,41.6043847 61.5242298,42.1372667 61.8639103,42.6701487 L61.9771371,42.7767251 C62.3168176,43.309607 62.5432712,43.9490654 62.7697249,44.5885238 C62.7697249,44.6951002 62.7697249,44.6951002 62.8829517,44.8016766 C62.9961786,45.1214058 62.9961786,45.4411349 63.1094054,45.7608641 C63.2226322,46.1871697 63.2226322,46.5068989 63.2226322,46.9332045 L63.2226322,46.9332045 L63.2226322,47.4660864 L63.2226322,47.9989684 C63.2226322,48.3186976 63.2226322,48.5318504 63.1094054,48.8515796 L63.1094054,49.1713088 C62.9961786,49.8107671 62.8829517,50.3436491 62.6564981,50.8765311 C62.6564981,50.9831075 62.5432712,50.9831075 62.5432712,51.0896839 C62.3168176,51.6225659 62.0903639,52.1554478 61.7506834,52.6883298 C61.6374566,52.7949062 61.6374566,52.9014826 61.5242298,53.008059 C61.4110029,53.2212118 61.1845493,53.4343646 60.9580956,53.6475174 C60.731642,53.9672466 60.5051883,54.1803993 60.2787346,54.3935521 L60.1655078,54.5001285 C59.9390542,54.7132813 59.5993737,54.9264341 59.37292,55.2461633 C59.1464663,55.3527397 58.9200127,55.5658925 58.8067858,55.6724689 C58.2406517,55.9921981 58.014198,56.0987745 57.9009712,56.2053509 L57.9009712,56.2053509 Z"></path>
                        <path d="M58.3538785,73.7904561 C57.9009712,73.8970325 57.5612907,74.0036089 57.1083834,74.0036089 C56.6554761,74.1101853 56.3157956,74.1101853 55.8628883,74.2167616 L59.1464663,88.7111514 C59.2596932,89.2440334 59.8258273,89.670339 60.3919615,89.670339 L60.6184151,89.670339 C60.9580956,89.5637626 61.1845493,89.4571862 61.4110029,89.137457 C61.6374566,88.9243042 61.6374566,88.604575 61.5242298,88.2848458 L58.3538785,73.7904561 L58.3538785,73.7904561 Z"></path>
                        <path d="M58.5803322,46.7200517 L58.5803322,46.5068989 C58.4671054,46.1871697 58.4671054,45.8674405 58.3538785,45.5477113 C58.3538785,45.4411349 58.2406517,45.2279821 58.2406517,45.1214058 C58.1274249,44.8016766 58.014198,44.5885238 57.7877444,44.2687946 C57.6745175,44.1622182 57.6745175,44.0556418 57.5612907,43.9490654 C57.3348371,43.6293362 57.1083834,43.4161834 56.8819297,43.2030306 L56.7687029,43.0964542 L56.5422492,42.8833015 C56.3157956,42.6701487 56.0893419,42.5635723 55.8628883,42.3504195 C55.7496614,42.2438431 55.6364346,42.2438431 55.5232078,42.1372667 C55.4099809,42.1372667 55.4099809,42.0306903 55.2967541,42.0306903 C54.9570736,41.9241139 54.73062,41.7109611 54.3909395,41.6043847 C54.2777126,41.6043847 54.1644858,41.4978083 53.9380322,41.4978083 C53.5983517,41.3912319 53.2586712,41.3912319 52.9189907,41.2846555 L52.5793102,41.2846555 L52.013176,41.2846555 L51.5602687,41.2846555 L51.4470419,41.2846555 L51.1073614,41.2846555 C50.7676809,41.2846555 50.4280004,41.3912319 50.2015468,41.4978083 C50.0883199,41.4978083 49.9750931,41.6043847 49.9750931,41.6043847 L49.8618663,41.6043847 C49.5221858,41.7109611 49.1825053,41.8175375 48.8428248,42.0306903 C48.729598,42.0306903 48.729598,42.1372667 48.6163711,42.1372667 C48.2766907,42.3504195 47.9370102,42.5635723 47.7105565,42.7767251 L47.5973297,42.8833015 C47.2576492,43.0964542 47.0311955,43.4161834 46.8047419,43.7359126 L46.8047419,43.7359126 L46.691515,43.842489 C46.4650614,44.1622182 46.2386077,44.375371 46.1253809,44.6951002 C46.1253809,44.6951002 46.1253809,44.8016766 46.0121541,44.8016766 L46.0121541,44.8016766 C45.7857004,45.1214058 45.6724736,45.5477113 45.5592467,45.8674405 L45.5592467,45.8674405 C45.4460199,46.1871697 45.4460199,46.6134753 45.3327931,46.9332045 L45.3327931,47.0397809 L45.3327931,47.5726628 L45.3327931,48.1055448 L45.3327931,48.1055448 C45.3327931,48.425274 45.4460199,48.8515796 45.5592467,49.1713088 C45.5592467,49.1713088 45.5592467,49.1713088 45.5592467,49.2778852 L45.5592467,49.2778852 C45.6724736,49.5976144 45.7857004,49.9173435 45.8989272,50.2370727 C45.8989272,50.3436491 45.8989272,50.3436491 46.0121541,50.3436491 C46.1253809,50.5568019 46.3518345,50.8765311 46.4650614,51.0896839 C46.4650614,51.1962603 46.5782882,51.1962603 46.5782882,51.3028367 C46.8047419,51.5159895 47.0311955,51.8357186 47.2576492,52.0488714 L47.2576492,52.0488714 L47.370876,52.1554478 C47.5973297,52.3686006 47.8237833,52.5817534 48.1634638,52.7949062 C48.1634638,52.7949062 48.1634638,52.7949062 48.2766907,52.9014826 L48.2766907,52.9014826 C48.6163711,53.1146354 48.8428248,53.2212118 49.1825053,53.4343646 C49.1825053,53.4343646 49.2957321,53.4343646 49.2957321,53.540941 C49.6354126,53.6475174 49.8618663,53.7540938 50.2015468,53.8606702 L50.4280004,53.8606702 C50.7676809,53.9672466 51.1073614,53.9672466 51.4470419,54.0738229 L51.4470419,54.0738229 L52.013176,54.0738229 L52.5793102,54.0738229 L52.5793102,54.0738229 C53.0322175,54.0738229 53.371898,53.9672466 53.8248053,53.8606702 L53.8248053,53.8606702 C54.2777126,53.7540938 54.6173931,53.6475174 54.9570736,53.4343646 L54.9570736,53.4343646 C55.2967541,53.2212118 55.6364346,53.008059 55.9761151,52.7949062 L55.9761151,52.7949062 L56.0893419,52.6883298 C56.3157956,52.475177 56.6554761,52.2620242 56.8819297,52.0488714 L56.9951566,51.942295 C56.9951566,51.942295 56.9951566,51.942295 57.1083834,51.8357186 C57.3348371,51.5159895 57.5612907,51.3028367 57.7877444,50.9831075 C57.7877444,50.8765311 57.9009712,50.8765311 57.9009712,50.7699547 C58.014198,50.4502255 58.2406517,50.1304963 58.3538785,49.8107671 C58.3538785,49.7041907 58.4671054,49.5976144 58.4671054,49.5976144 C58.5803322,49.2778852 58.693559,48.958156 58.693559,48.5318504 L58.693559,48.425274 L58.693559,48.1055448 L58.693559,47.7858156 L58.693559,47.2529337 C58.5803322,46.9332045 58.5803322,46.8266281 58.5803322,46.7200517 L58.5803322,46.7200517 Z M54.3909395,48.1055448 C54.3909395,48.2121212 54.2777126,48.2121212 54.3909395,48.1055448 C54.2777126,48.2121212 54.2777126,48.2121212 54.3909395,48.1055448 C54.2777126,48.3186976 54.2777126,48.425274 54.2777126,48.6384268 C54.2777126,48.7450032 54.1644858,48.7450032 54.1644858,48.8515796 C54.1644858,48.958156 54.051259,49.0647324 54.051259,49.0647324 C53.9380322,49.1713088 53.8248053,49.2778852 53.7115785,49.3844616 L53.7115785,49.3844616 C53.5983517,49.3844616 53.5983517,49.491038 53.4851248,49.491038 C53.371898,49.491038 53.371898,49.5976144 53.2586712,49.5976144 C53.2586712,49.5976144 53.1454443,49.5976144 53.1454443,49.7041907 L53.0322175,49.8107671 C53.0322175,49.8107671 53.0322175,49.8107671 52.9189907,49.8107671 C52.8057639,49.8107671 52.692537,49.9173435 52.5793102,49.9173435 L52.5793102,49.9173435 C52.4660834,49.9173435 52.3528565,49.9173435 52.2396297,50.0239199 L52.013176,50.0239199 L51.8999492,50.0239199 C51.8999492,50.0239199 51.8999492,50.0239199 51.7867224,50.0239199 L51.6734956,50.0239199 L51.4470419,50.0239199 L51.3338151,50.0239199 L51.2205882,50.0239199 L51.1073614,50.0239199 C50.9941346,50.0239199 50.9941346,50.0239199 50.8809077,49.9173435 C50.8809077,49.9173435 50.8809077,49.9173435 50.7676809,49.9173435 C50.6544541,49.9173435 50.5412273,49.8107671 50.5412273,49.8107671 L50.5412273,49.8107671 C50.4280004,49.8107671 50.4280004,49.7041907 50.3147736,49.7041907 L50.3147736,49.7041907 C50.2015468,49.7041907 50.2015468,49.5976144 50.2015468,49.5976144 L50.2015468,49.5976144 C50.2015468,49.5976144 50.2015468,49.5976144 50.2015468,49.491038 L50.0883199,49.3844616 C50.0883199,49.3844616 50.0883199,49.2778852 49.9750931,49.2778852 C49.9750931,49.1713088 49.8618663,49.1713088 49.8618663,49.0647324 L49.8618663,49.0647324 C49.8618663,48.958156 49.7486394,48.8515796 49.7486394,48.8515796 L49.7486394,48.8515796 C49.7486394,48.7450032 49.6354126,48.7450032 49.6354126,48.6384268 L49.6354126,48.5318504 L49.6354126,48.425274 C49.6354126,48.425274 49.6354126,48.425274 49.6354126,48.3186976 L49.6354126,47.9989684 L49.6354126,47.892392 L49.6354126,47.892392 L49.6354126,47.6792392 C49.6354126,47.5726628 49.6354126,47.4660864 49.7486394,47.3595101 L49.7486394,47.3595101 C49.7486394,47.2529337 49.8618663,47.1463573 49.8618663,47.0397809 L49.8618663,46.9332045 L49.8618663,46.8266281 C49.8618663,46.7200517 49.9750931,46.7200517 49.9750931,46.7200517 C50.0883199,46.6134753 50.0883199,46.5068989 50.2015468,46.4003225 C50.2015468,46.4003225 50.2015468,46.4003225 50.2015468,46.2937461 C50.3147736,46.1871697 50.4280004,46.0805933 50.5412273,45.9740169 C50.6544541,45.9740169 50.6544541,45.8674405 50.7676809,45.8674405 C50.7676809,45.8674405 50.8809077,45.8674405 50.8809077,45.7608641 C50.8809077,45.7608641 50.9941346,45.7608641 50.9941346,45.6542877 C51.1073614,45.5477113 51.2205882,45.5477113 51.3338151,45.5477113 L51.4470419,45.5477113 L51.4470419,45.5477113 C51.6734956,45.5477113 51.7867224,45.4411349 52.013176,45.4411349 L52.013176,45.4411349 C52.2396297,45.4411349 52.4660834,45.4411349 52.5793102,45.5477113 L52.692537,45.5477113 C52.8057639,45.5477113 53.0322175,45.6542877 53.1454443,45.7608641 L53.1454443,45.7608641 L53.2586712,45.7608641 C53.371898,45.8674405 53.5983517,45.9740169 53.7115785,46.0805933 C53.7115785,46.0805933 53.8248053,46.0805933 53.8248053,46.1871697 L53.8248053,46.1871697 C53.9380322,46.2937461 54.051259,46.4003225 54.1644858,46.5068989 C54.1644858,46.5068989 54.1644858,46.6134753 54.2777126,46.6134753 C54.3909395,46.8266281 54.5041663,46.9332045 54.5041663,47.1463573 L54.5041663,47.2529337 C54.5041663,47.4660864 54.6173931,47.5726628 54.6173931,47.7858156 L54.6173931,47.7858156 C54.3909395,47.7858156 54.3909395,47.9989684 54.3909395,48.1055448 L54.3909395,48.1055448 Z"></path>
                        <path d="M51.2205882,74.4299144 L49.9750931,74.4299144 L49.9750931,95.2123115 C49.9750931,95.8517699 50.5412273,96.3846519 51.2205882,96.3846519 C51.8999492,96.3846519 52.4660834,95.8517699 52.4660834,95.2123115 L52.4660834,74.4299144 L51.8999492,74.4299144 C51.7867224,74.4299144 51.4470419,74.5364908 51.2205882,74.4299144 L51.2205882,74.4299144 Z"></path>
                        <path d="M42.1624418,86.7927763 C42.049215,87.1125055 42.1624418,87.4322347 42.3888955,87.6453874 C42.6153492,87.8585402 42.8418028,88.071693 43.1814833,88.1782694 L43.407937,88.1782694 C43.9740711,88.1782694 44.5402053,87.7519638 44.6534321,87.2190819 L47.2576492,74.1101853 C46.4650614,74.0036089 45.6724736,73.7904561 44.8798858,73.6838797 L42.1624418,86.7927763 L42.1624418,86.7927763 Z"></path>
                        <path d="M31.405893,91.3755613 C31.1794393,92.0150197 31.405893,92.654478 32.085254,92.8676308 C32.1984808,92.9742072 32.4249344,92.9742072 32.5381613,92.9742072 C33.1042954,92.9742072 33.5572027,92.654478 33.6704296,92.2281724 L41.9359882,72.8312685 C41.1434004,72.5115393 40.3508125,72.2983865 39.6714516,71.9786573 L31.405893,91.3755613 L31.405893,91.3755613 Z"></path>
                        <path d="M36.1614198,70.0602822 C35.8217393,69.8471294 35.4820589,69.6339767 35.1423784,69.4208239 L26.4239125,82.1034149 C26.084232,82.6362969 26.1974588,83.3823316 26.7635929,83.7020608 C26.9900466,83.8086372 27.2165003,83.9152136 27.4429539,83.9152136 C27.8958612,83.9152136 28.2355417,83.7020608 28.4619954,83.3823316 L37.1804613,70.6997406 C36.8407808,70.4865878 36.5011003,70.273435 36.1614198,70.0602822 L36.1614198,70.0602822 Z"></path>
                        <path d="M31.6323466,66.6498376 C31.2926661,66.3301084 31.0662125,66.1169556 30.726532,65.7972264 L14.9880026,80.6113454 C14.5350953,81.0376509 14.5350953,81.7836857 14.9880026,82.2099913 C15.2144563,82.4231441 15.5541368,82.5297205 15.8938173,82.5297205 C16.2334977,82.5297205 16.5731782,82.4231441 16.7996319,82.2099913 L32.5381613,67.3958724 C32.1984808,67.1827196 31.9720271,66.8629904 31.6323466,66.6498376 L31.6323466,66.6498376 Z"></path>
                        <path d="M15.3276831,70.273435 C15.2144563,70.5931642 15.3276831,70.9128934 15.5541368,71.1260462 C15.7805904,71.4457754 16.1202709,71.6589282 16.5731782,71.6589282 C16.7996319,71.6589282 17.0260856,71.5523518 17.2525392,71.4457754 L29.0281295,63.8788513 C28.5752222,63.2393929 28.0090881,62.5999346 27.6694076,61.9604762 L15.8938173,69.5274003 C15.5541368,69.6339767 15.4409099,69.9537058 15.3276831,70.273435 L15.3276831,70.273435 Z M16.5731782,70.4865878 L16.5731782,71.0194698 L16.5731782,70.4865878 L16.5731782,70.4865878 L16.5731782,70.4865878 Z"></path>
                        <path d="M13.8557343,26.8968422 L26.7635929,34.7834954 C26.9900466,34.4637662 27.2165003,34.144037 27.3297271,33.8243079 C27.5561808,33.5045787 27.7826344,33.1848495 28.0090881,32.8651203 L15.1012294,24.9784671 C14.8747758,24.8718907 14.6483221,24.7653143 14.4218685,24.7653143 C13.9689611,24.7653143 13.6292807,24.9784671 13.402827,25.2981962 C13.0631465,25.8310782 13.2896002,26.4705366 13.8557343,26.8968422 L13.8557343,26.8968422 Z"></path>
                        <path d="M25.2916441,57.3776912 L4.79758791,65.5840736 C4.45790742,65.69065 4.23145376,65.9038028 4.11822693,66.223532 C4.0050001,66.5432612 4.0050001,66.8629904 4.11822693,67.0761432 C4.34468059,67.5024487 4.79758791,67.8221779 5.25049523,67.8221779 C5.36372206,67.8221779 5.59017572,67.8221779 5.70340255,67.7156015 L26.1974588,59.5092191 C25.8577783,58.7631843 25.5180978,58.123726 25.2916441,57.3776912 L25.2916441,57.3776912 Z"></path>
                        <path d="M4.45790742,31.7993563 L24.72551,39.4728568 C24.9519637,38.726822 25.2916441,37.9807873 25.6313246,37.2347525 L5.36372206,29.561252 C5.25049523,29.4546757 5.02404157,29.4546757 4.91081474,29.4546757 C4.45790742,29.4546757 3.89177327,29.7744048 3.77854644,30.2007104 C3.55209278,30.8401688 3.77854644,31.4796272 4.45790742,31.7993563 L4.45790742,31.7993563 Z"></path>
                        <path d="M7.401805,56.2053509 C7.17535134,56.4185036 7.17535134,56.7382328 7.17535134,57.057962 C7.28857817,57.590844 7.85471232,58.0171496 8.42084647,58.0171496 L8.64730013,58.0171496 L24.2726027,54.8198577 C24.1593758,54.3935521 24.046149,54.0738229 23.9329222,53.6475174 C23.8196954,53.2212118 23.7064685,52.9014826 23.7064685,52.475177 L8.19439281,55.6724689 C7.85471232,55.7790453 7.62825866,55.9921981 7.401805,56.2053509 L7.401805,56.2053509 Z"></path>
                        <path d="M10.2324758,39.6860096 C9.55311477,39.5794332 8.87375379,40.0057388 8.76052696,40.6451972 C8.64730013,40.9649263 8.76052696,41.2846555 8.98698062,41.4978083 C9.21343428,41.7109611 9.43988794,41.9241139 9.77956843,42.0306903 L23.4800149,44.4819474 C23.5932417,43.7359126 23.7064685,42.8833015 23.8196954,42.1372667 L10.2324758,39.6860096 L10.2324758,39.6860096 Z"></path>
                        <path d="M23.366788,48.2121212 L23.366788,47.6792392 L23.366788,47.1463573 L1.28755618,47.1463573 C0.608195195,47.1463573 0.0420610447,47.6792392 0.0420610447,48.3186976 C0.0420610447,48.958156 0.608195195,49.491038 1.28755618,49.491038 L23.366788,49.491038 L23.366788,48.2121212 L23.366788,48.2121212 Z"></path>
                    </g>
                </g>
            </g>
        </g>
    </g>
</svg>