<?xml version="1.0" encoding="UTF-8" standalone="no"?>
<svg width="95px" height="86px" viewBox="0 0 95 86" version="1.1" xmlns="http://www.w3.org/2000/svg" xmlns:xlink="http://www.w3.org/1999/xlink" xmlns:sketch="http://www.bohemiancoding.com/sketch/ns">
    <!-- Generator: Sketch 3.3.1 (12002) - http://www.bohemiancoding.com/sketch -->
    <title>Group 6</title>
    <desc>Created with Sketch.</desc>
    <defs>
        <rect id="path-1" x="0" y="0" width="102" height="99"></rect>
    </defs>
    <g id="Page-1" stroke="none" stroke-width="1" fill="none" fill-rule="evenodd" sketch:type="MSPage">
        <g id="Home" sketch:type="MSArtboardGroup" transform="translate(-1030.000000, -885.000000)">
            <g id="Group-6" sketch:type="MSLayerGroup" transform="translate(1023.000000, 885.000000)">
                <mask id="mask-2" sketch:name="Mask" fill="white">
                    <use xlink:href="#path-1"></use>
                </mask>
                <use id="Mask" sketch:type="MSShapeGroup" xlink:href="#path-1"></use>
                <g mask="url(#mask-2)" id="Shape" fill="#FFFFFF" sketch:type="MSShapeGroup">
                    <g transform="translate(7.000000, -43.000000)">
                        <path d="M111.552038,93.0163868 L95.7254436,82.7504876 C95.4402797,83.1782334 95.1551158,83.6059792 94.869952,84.033725 C94.5847881,84.4614708 94.2996242,84.8892166 94.0144604,85.3169624 L109.983637,95.5828616 C110.268801,95.7254436 110.553965,95.8680255 110.839129,95.8680255 C111.409456,95.8680255 111.837202,95.5828616 112.122366,95.1551158 C112.550112,94.5847881 112.264948,93.5867146 111.552038,93.0163868 L111.552038,93.0163868 Z"></path>
                        <path d="M91.0202398,88.7389288 L89.8795843,89.8795843 C89.4518385,90.3073301 89.1666746,90.592494 88.7389288,90.8776578 L107.844908,109.983637 C108.130072,110.268801 108.557818,110.411383 108.985563,110.411383 C109.413309,110.411383 109.841055,110.268801 110.126219,109.983637 C110.696547,109.413309 110.696547,108.415236 110.126219,107.844908 L91.0202398,88.7389288 L91.0202398,88.7389288 Z"></path>
                        <path d="M109.698473,34.9855396 C109.841055,34.5577938 109.698473,34.130048 109.413309,33.8448842 C109.128145,33.4171384 108.7004,33.1319745 108.130072,33.1319745 C107.844908,33.1319745 107.559744,33.2745564 107.27458,33.4171384 L94.1570423,42.2572183 C94.72737,43.1127099 95.2976978,43.9682015 95.8680255,44.8236931 L108.985563,35.8410312 C109.413309,35.8410312 109.555891,35.4132854 109.698473,34.9855396 L109.698473,34.9855396 Z"></path>
                        <path d="M85.8872901,93.1589688 C85.0317985,93.7292965 84.1763069,94.2996242 83.3208153,94.869952 L93.0163868,108.985563 C93.3015507,109.413309 93.7292965,109.698473 94.2996242,109.698473 C94.5847881,109.698473 94.869952,109.555891 95.1551158,109.413309 C95.8680255,108.985563 96.0106074,107.98749 95.5828616,107.27458 L85.8872901,93.1589688 L85.8872901,93.1589688 Z"></path>
                        <path d="M70.6310232,93.3015507 C71.2013509,93.1589688 71.6290967,93.1589688 72.1994244,93.0163868 C73.054916,92.8738049 73.7678257,92.588641 74.6233173,92.3034772 C75.6213909,92.0183133 76.6194644,91.5905675 77.474956,91.1628217 C78.3304476,90.7350759 79.0433573,90.449912 79.8988489,90.0221662 C80.7543405,89.4518385 81.752414,88.8815107 82.6079056,88.311183 C83.3208153,87.8834372 83.891143,87.3131095 84.6040527,86.7427817 C85.0317985,86.4576179 85.4595443,86.0298721 85.7447082,85.7447082 C86.172454,85.4595443 86.4576179,85.0317985 86.8853637,84.6040527 C87.5982733,83.891143 88.311183,83.0356514 89.0240927,82.1801598 C89.3092565,81.752414 89.5944204,81.3246682 90.0221662,80.8969224 C90.3073301,80.4691766 90.592494,80.0414308 90.8776578,79.613685 C91.3054036,78.9007754 91.7331494,78.0452837 92.1608952,77.3323741 C92.588641,76.4768825 93.0163868,75.4788089 93.4441326,74.4807354 C93.7292965,73.6252438 94.0144604,72.6271702 94.2996242,71.7716786 C94.5847881,70.7736051 94.869952,69.7755316 95.0125339,68.777458 C95.1551158,67.9219664 95.2976978,67.0664748 95.2976978,66.2109832 C95.2976978,65.6406555 95.2976978,65.2129097 95.4402797,64.6425819 L95.4402797,63.9296723 L95.4402797,63.2167626 C95.4402797,62.0761071 95.2976978,60.9354516 95.1551158,59.7947962 C95.0125339,59.2244684 95.0125339,58.7967226 94.869952,58.2263949 C94.72737,57.6560672 94.72737,57.2283214 94.5847881,56.6579936 C94.2996242,55.802502 94.1570423,54.8044285 93.7292965,53.9489369 C93.4441326,52.9508633 93.0163868,51.9527898 92.588641,51.0972982 C92.1608952,50.2418066 91.7331494,49.386315 91.1628217,48.5308234 C90.592494,47.6753318 90.0221662,46.8198402 89.4518385,45.9643486 C88.8815107,45.2514389 88.311183,44.5385292 87.7408553,43.8256195 C87.4556914,43.3978737 87.0279456,43.1127099 86.6001998,42.6849641 C86.172454,42.2572183 85.8872901,41.9720544 85.4595443,41.5443086 C84.6040527,40.8313989 83.7485611,40.1184893 82.7504876,39.4055796 C82.3227418,39.1204157 81.894996,38.8352519 81.4672502,38.550088 L81.4672502,38.550088 C81.0395044,38.2649241 80.6117586,37.9797602 80.1840128,37.6945964 C79.3285212,37.2668506 78.4730295,36.8391048 77.6175379,36.411359 C76.6194644,35.9836132 75.7639728,35.5558674 74.7658993,35.2707035 C73.7678257,34.9855396 72.9123341,34.7003758 71.9142606,34.5577938 C70.916187,34.27263 69.9181135,34.130048 68.777458,33.9874661 C67.9219664,33.8448842 67.0664748,33.8448842 66.2109832,33.8448842 L65.4980735,33.8448842 L64.7851639,33.8448842 C64.2148361,33.8448842 63.7870903,33.8448842 63.2167626,33.9874661 C62.0761071,34.130048 60.9354516,34.27263 59.9373781,34.4152119 C59.3670504,34.5577938 58.9393046,34.5577938 58.3689768,34.7003758 C57.7986491,34.8429577 57.3709033,34.9855396 56.8005756,35.1281216 C55.945084,35.4132854 55.0895923,35.6984493 54.2341007,35.9836132 C53.2360272,36.411359 52.3805356,36.8391048 51.3824621,37.2668506 C50.5269705,37.6945964 49.8140608,38.1223422 48.9585692,38.6926699 C48.1030776,39.2629977 47.247586,39.8333254 46.3920944,40.5462351 C45.6791847,41.1165628 45.108857,41.6868905 44.5385292,42.2572183 C44.1107834,42.6849641 43.8256195,42.9701279 43.3978737,43.3978737 C43.1127099,43.8256195 42.6849641,44.1107834 42.3998002,44.5385292 C41.6868905,45.3940208 41.1165628,46.2495124 40.5462351,47.105004 C40.2610712,47.5327498 39.9759073,47.9604956 39.6907435,48.3882414 C39.4055796,48.8159872 39.1204157,49.243733 38.9778338,49.8140608 C38.550088,50.5269705 38.2649241,51.3824621 37.8371783,52.0953717 C37.4094325,53.0934453 37.1242686,54.0915188 36.8391048,55.0895923 C36.5539409,55.945084 36.411359,56.8005756 36.1261951,57.6560672 C35.8410312,58.6541407 35.6984493,59.6522142 35.6984493,60.7928697 C35.5558674,61.5057794 35.5558674,62.361271 35.5558674,63.0741807 L35.5558674,63.7870903 L35.5558674,64.5 C35.5558674,65.0703277 35.5558674,65.4980735 35.6984493,66.0684013 C35.8410312,67.0664748 35.8410312,68.0645484 36.1261951,69.0626219 C36.268777,69.6329496 36.268777,70.0606954 36.411359,70.6310232 C36.5539409,71.2013509 36.6965228,71.6290967 36.8391048,72.1994244 C37.1242686,72.9123341 37.2668506,73.7678257 37.5520144,74.4807354 C37.9797602,75.4788089 38.407506,76.4768825 38.8352519,77.3323741 C39.2629977,78.0452837 39.6907435,78.7581934 40.1184893,79.4711031 C40.688817,80.3265947 41.2591447,81.1820863 41.8294725,82.0375779 C42.2572183,82.6079056 42.827546,83.1782334 43.2552918,83.7485611 C43.5404557,84.1763069 43.9682015,84.4614708 44.3959473,84.8892166 C44.8236931,85.3169624 45.108857,85.6021263 45.5366028,86.0298721 C46.2495124,86.7427817 47.105004,87.3131095 47.8179137,87.8834372 C48.2456595,88.1686011 48.6734053,88.4537649 49.1011511,88.7389288 C49.5288969,89.0240927 49.9566427,89.3092565 50.3843885,89.5944204 C51.0972982,90.0221662 51.8102079,90.449912 52.5231175,90.7350759 C53.5211911,91.1628217 54.3766827,91.5905675 55.3747562,91.8757314 C56.2302478,92.1608952 56.9431575,92.4460591 57.7986491,92.588641 C58.7967226,92.8738049 59.7947962,93.0163868 60.7928697,93.3015507 C61.5057794,93.4441326 62.361271,93.4441326 63.0741807,93.5867146 C63.6445084,93.5867146 64.0722542,93.5867146 64.6425819,93.7292965 L65.3554916,93.7292965 L66.0684013,93.7292965 C67.0664748,93.7292965 68.0645484,93.5867146 69.0626219,93.4441326 C69.6329496,93.4441326 70.2032774,93.3015507 70.6310232,93.3015507 L70.6310232,93.3015507 L70.6310232,93.3015507 Z M68.0645484,88.4537649 C67.3516387,88.4537649 66.7813109,88.5963469 66.0684013,88.5963469 L65.3554916,88.5963469 L64.6425819,88.5963469 C64.0722542,88.5963469 63.6445084,88.5963469 63.0741807,88.4537649 C62.6464349,88.4537649 62.2186891,88.311183 61.7909433,88.311183 C60.7928697,88.1686011 59.7947962,87.8834372 58.7967226,87.5982733 C58.3689768,87.4556914 57.7986491,87.3131095 57.3709033,87.1705275 C56.3728298,86.8853637 55.3747562,86.4576179 54.5192646,85.8872901 C54.0915188,85.7447082 53.663773,85.4595443 53.2360272,85.1743805 C52.8082814,84.8892166 52.3805356,84.6040527 51.9527898,84.3188888 C51.525044,84.033725 51.0972982,83.7485611 50.6695524,83.4633972 C50.0992246,83.0356514 49.6714788,82.6079056 49.243733,82.3227418 C48.8159872,82.0375779 48.5308234,81.6098321 48.1030776,81.3246682 C47.6753318,80.8969224 47.3901679,80.6117586 47.105004,80.1840128 C46.8198402,79.8988489 46.5346763,79.4711031 46.2495124,79.1859392 C45.5366028,78.3304476 44.966275,77.474956 44.3959473,76.6194644 C44.1107834,76.1917186 43.8256195,75.7639728 43.6830376,75.336227 C43.2552918,74.4807354 42.827546,73.4826619 42.3998002,72.4845883 C42.2572183,72.0568425 42.1146363,71.6290967 41.9720544,71.058769 C41.8294725,70.4884412 41.6868905,70.0606954 41.5443086,69.4903677 C41.4017267,68.92004 41.2591447,68.4922942 41.2591447,67.9219664 C41.1165628,67.3516387 41.1165628,66.638729 40.9739809,65.9258193 C40.9739809,65.3554916 40.8313989,64.9277458 40.8313989,64.3574181 L40.8313989,63.6445084 L40.8313989,62.9315987 C40.8313989,62.5038529 40.8313989,61.9335252 40.9739809,61.5057794 C41.1165628,60.5077058 41.2591447,59.3670504 41.4017267,58.3689768 C41.5443086,57.7986491 41.6868905,57.3709033 41.8294725,56.8005756 C42.1146363,55.802502 42.3998002,54.8044285 42.827546,53.8063549 C42.9701279,53.3786091 43.2552918,52.8082814 43.5404557,52.3805356 C43.8256195,51.9527898 43.9682015,51.525044 44.2533653,50.9547163 C44.5385292,50.5269705 44.8236931,50.0992246 45.108857,49.6714788 C45.5366028,49.1011511 45.9643486,48.5308234 46.3920944,47.9604956 C46.6772582,47.5327498 47.105004,47.105004 47.3901679,46.8198402 C47.6753318,46.3920944 48.1030776,46.1069305 48.5308234,45.6791847 C48.9585692,45.3940208 49.243733,44.966275 49.6714788,44.6811112 C50.5269705,43.9682015 51.2398801,43.3978737 52.2379537,42.827546 C52.8082814,42.5423821 53.2360272,42.2572183 53.8063549,41.8294725 C54.6618465,41.2591447 55.6599201,40.8313989 56.6579936,40.5462351 C57.2283214,40.4036531 57.7986491,40.1184893 58.2263949,39.9759073 C58.6541407,39.8333254 59.2244684,39.6907435 59.7947962,39.5481615 C60.3651239,39.4055796 60.7928697,39.2629977 61.3631974,39.2629977 C62.0761071,39.1204157 62.7890168,38.9778338 63.6445084,38.9778338 C64.2148361,38.9778338 64.6425819,38.8352519 65.2129097,38.8352519 L65.9258193,38.8352519 L66.638729,38.8352519 C67.2090567,38.8352519 67.7793845,38.8352519 68.3497122,38.9778338 C69.3477858,39.1204157 70.4884412,39.2629977 71.4865148,39.5481615 C72.0568425,39.6907435 72.7697522,39.8333254 73.3400799,39.9759073 C74.3381535,40.2610712 75.336227,40.688817 76.1917186,41.1165628 C76.7620463,41.4017267 77.3323741,41.6868905 77.9027018,41.9720544 C78.3304476,42.2572183 78.7581934,42.5423821 79.1859392,42.827546 C79.613685,43.1127099 80.0414308,43.3978737 80.4691766,43.6830376 C81.0395044,44.1107834 81.752414,44.6811112 82.3227418,45.108857 C82.7504876,45.3940208 83.0356514,45.8217666 83.4633972,46.1069305 C83.891143,46.5346763 84.1763069,46.8198402 84.4614708,47.247586 C84.8892166,47.6753318 85.1743805,48.1030776 85.6021263,48.5308234 C86.172454,49.386315 86.8853637,50.2418066 87.3131095,51.0972982 C87.5982733,51.6676259 87.8834372,52.2379537 88.1686011,52.8082814 C88.5963469,53.8063549 89.0240927,54.6618465 89.3092565,55.6599201 C89.4518385,56.2302478 89.7370023,56.8005756 89.8795843,57.3709033 C90.0221662,57.941231 90.1647481,58.3689768 90.1647481,58.9393046 C90.3073301,59.5096323 90.3073301,59.9373781 90.449912,60.5077058 C90.592494,61.2206155 90.592494,62.0761071 90.592494,62.7890168 L90.592494,63.5019265 L90.592494,64.2148361 C90.592494,64.7851639 90.592494,65.2129097 90.449912,65.7832374 C90.449912,66.3535651 90.3073301,66.9238929 90.3073301,67.4942206 C90.1647481,68.4922942 89.8795843,69.4903677 89.5944204,70.4884412 C89.4518385,71.058769 89.1666746,71.6290967 89.0240927,72.1994244 C88.5963469,73.197498 88.1686011,74.1955715 87.7408553,75.0510631 C87.4556914,75.4788089 87.1705275,76.0491367 86.8853637,76.4768825 C86.6001998,76.9046283 86.3150359,77.3323741 86.0298721,77.7601199 L86.0298721,77.7601199 C85.7447082,78.1878657 85.4595443,78.6156115 85.0317985,79.0433573 C84.6040527,79.613685 84.033725,80.1840128 83.6059792,80.6117586 C83.1782334,81.0395044 82.8930695,81.3246682 82.4653237,81.752414 C82.0375779,82.1801598 81.752414,82.4653237 81.3246682,82.7504876 C80.8969224,83.0356514 80.4691766,83.3208153 80.1840128,83.6059792 C79.3285212,84.1763069 78.4730295,84.7466347 77.474956,85.3169624 C77.0472102,85.6021263 76.4768825,85.8872901 75.9065547,86.0298721 C74.9084812,86.4576179 74.0529896,86.8853637 73.054916,87.1705275 C72.6271702,87.3131095 72.0568425,87.4556914 71.6290967,87.5982733 C71.058769,87.7408553 70.6310232,87.8834372 70.0606954,87.8834372 C69.0626219,88.311183 68.4922942,88.4537649 68.0645484,88.4537649 L68.0645484,88.4537649 Z"></path>
                        <path d="M79.8988489,96.5809352 C78.9007754,97.008681 78.0452837,97.4364268 77.0472102,97.7215907 L87.7408553,122.958593 C88.0260191,123.528921 88.5963469,123.956667 89.1666746,123.956667 C89.3092565,123.956667 89.5944204,123.956667 89.7370023,123.814085 C90.1647481,123.671503 90.449912,123.386339 90.592494,122.958593 C90.7350759,122.530847 90.7350759,122.103101 90.592494,121.817938 L79.8988489,96.5809352 L79.8988489,96.5809352 Z M89.1666746,122.958593 L89.1666746,122.388265 L89.1666746,122.388265 L89.1666746,122.958593 L89.1666746,122.958593 Z"></path>
                        <path d="M74.0529896,81.3246682 C75.0510631,80.8969224 75.9065547,80.3265947 76.7620463,79.756267 C76.9046283,79.613685 77.0472102,79.613685 77.1897921,79.4711031 C77.6175379,79.1859392 78.0452837,78.7581934 78.4730295,78.4730295 C78.9007754,78.1878657 79.1859392,77.7601199 79.613685,77.3323741 C79.8988489,77.0472102 80.0414308,76.7620463 80.3265947,76.6194644 C80.6117586,76.1917186 81.0395044,75.7639728 81.3246682,75.336227 C81.6098321,74.9084812 81.894996,74.4807354 82.1801598,74.0529896 C82.3227418,73.9104077 82.4653237,73.6252438 82.4653237,73.4826619 C83.0356514,72.6271702 83.4633972,71.6290967 83.7485611,70.6310232 C83.891143,70.3458593 83.891143,70.0606954 84.033725,69.9181135 C84.3188888,68.92004 84.6040527,67.9219664 84.7466347,66.9238929 C84.7466347,66.638729 84.7466347,66.4961471 84.8892166,66.2109832 C84.8892166,65.6406555 85.0317985,65.2129097 85.0317985,64.6425819 L85.0317985,63.9296723 L85.0317985,63.2167626 C85.0317985,62.7890168 85.0317985,62.361271 84.8892166,61.9335252 C84.8892166,61.3631974 84.7466347,60.9354516 84.6040527,60.3651239 C84.4614708,59.7947962 84.4614708,59.3670504 84.3188888,58.7967226 C84.3188888,58.5115588 84.1763069,58.2263949 84.033725,57.941231 C83.7485611,56.9431575 83.3208153,55.945084 82.8930695,55.0895923 C82.7504876,54.8044285 82.6079056,54.5192646 82.4653237,54.2341007 C81.894996,53.3786091 81.3246682,52.5231175 80.7543405,51.6676259 C80.6117586,51.525044 80.4691766,51.2398801 80.3265947,51.0972982 C80.0414308,50.6695524 79.613685,50.2418066 79.3285212,49.9566427 C78.9007754,49.5288969 78.6156115,49.243733 78.1878657,48.9585692 C77.9027018,48.6734053 77.474956,48.3882414 77.1897921,48.1030776 C76.7620463,47.8179137 76.3343005,47.5327498 75.9065547,47.247586 C75.4788089,46.9624221 75.0510631,46.6772582 74.6233173,46.3920944 C74.3381535,46.2495124 74.0529896,46.1069305 73.9104077,45.9643486 C72.9123341,45.5366028 72.0568425,45.108857 70.916187,44.8236931 C70.6310232,44.6811112 70.3458593,44.6811112 70.0606954,44.5385292 C69.0626219,44.2533653 68.0645484,44.1107834 66.9238929,44.1107834 L66.2109832,44.1107834 L65.4980735,44.1107834 L64.7851639,44.1107834 C64.2148361,44.1107834 63.7870903,44.1107834 63.2167626,44.2533653 C62.7890168,44.2533653 62.5038529,44.3959473 62.0761071,44.3959473 C61.5057794,44.5385292 61.0780336,44.5385292 60.5077058,44.6811112 L60.5077058,44.6811112 C59.9373781,44.8236931 59.5096323,44.966275 58.9393046,45.108857 C58.6541407,45.2514389 58.5115588,45.2514389 58.2263949,45.3940208 C57.2283214,45.8217666 56.3728298,46.2495124 55.3747562,46.8198402 C55.0895923,46.9624221 54.9470104,47.105004 54.6618465,47.247586 C53.8063549,47.8179137 52.9508633,48.3882414 52.2379537,49.1011511 C52.0953717,49.243733 51.9527898,49.386315 51.8102079,49.5288969 C51.3824621,49.9566427 51.0972982,50.2418066 50.6695524,50.6695524 C50.3843885,51.0972982 49.9566427,51.525044 49.6714788,51.8102079 C49.5288969,52.0953717 49.243733,52.3805356 49.1011511,52.6656995 C48.8159872,53.0934453 48.5308234,53.5211911 48.2456595,53.9489369 C47.9604956,54.3766827 47.6753318,54.8044285 47.5327498,55.3747562 C47.3901679,55.5173381 47.3901679,55.6599201 47.247586,55.945084 C46.8198402,56.9431575 46.5346763,57.941231 46.2495124,58.9393046 C46.2495124,59.0818865 46.1069305,59.3670504 46.1069305,59.5096323 C45.8217666,60.5077058 45.6791847,61.5057794 45.6791847,62.6464349 L45.6791847,63.0741807 L45.6791847,63.7870903 L45.6791847,64.5 C45.6791847,65.0703277 45.6791847,65.4980735 45.8217666,66.0684013 C45.8217666,66.3535651 45.9643486,66.638729 45.9643486,66.9238929 C46.1069305,67.4942206 46.1069305,67.9219664 46.2495124,68.4922942 C46.3920944,69.0626219 46.5346763,69.4903677 46.6772582,70.0606954 C46.6772582,70.2032774 46.8198402,70.3458593 46.8198402,70.4884412 C47.105004,71.4865148 47.6753318,72.4845883 48.1030776,73.3400799 C48.2456595,73.4826619 48.2456595,73.6252438 48.3882414,73.7678257 C48.9585692,74.6233173 49.5288969,75.4788089 50.2418066,76.3343005 C50.3843885,76.4768825 50.3843885,76.4768825 50.5269705,76.6194644 C50.8121343,77.0472102 51.2398801,77.3323741 51.525044,77.7601199 C51.9527898,78.1878657 52.2379537,78.4730295 52.6656995,78.7581934 C52.8082814,78.9007754 53.0934453,79.0433573 53.2360272,79.3285212 C53.663773,79.613685 54.0915188,79.8988489 54.5192646,80.1840128 C54.9470104,80.4691766 55.3747562,80.7543405 55.802502,81.0395044 C55.945084,81.0395044 56.0876659,81.1820863 56.2302478,81.1820863 C57.0857394,81.6098321 58.083813,82.0375779 59.0818865,82.4653237 C59.2244684,82.4653237 59.3670504,82.6079056 59.6522142,82.6079056 C60.6502878,82.8930695 61.6483613,83.1782334 62.6464349,83.3208153 L63.0741807,83.3208153 C63.6445084,83.3208153 64.0722542,83.4633972 64.6425819,83.4633972 L65.3554916,83.4633972 L66.0684013,83.4633972 L66.9238929,83.4633972 C67.4942206,83.4633972 67.9219664,83.3208153 68.4922942,83.3208153 C69.0626219,83.1782334 69.4903677,83.1782334 70.0606954,83.0356514 C70.2032774,83.0356514 70.3458593,82.8930695 70.6310232,82.8930695 C71.6290967,82.6079056 72.6271702,82.3227418 73.6252438,81.752414 C73.6252438,81.4672502 73.9104077,81.4672502 74.0529896,81.3246682 L74.0529896,81.3246682 Z M72.9123341,75.1936451 C72.3420064,75.6213909 71.7716786,75.9065547 71.058769,76.1917186 C70.916187,76.3343005 70.7736051,76.3343005 70.6310232,76.3343005 C70.0606954,76.6194644 69.3477858,76.7620463 68.6348761,77.0472102 C68.4922942,77.0472102 68.2071303,77.1897921 68.0645484,77.1897921 C67.7793845,77.1897921 67.4942206,77.3323741 67.0664748,77.3323741 C66.638729,77.3323741 66.2109832,77.474956 65.9258193,77.474956 L65.4980735,77.474956 L65.0703277,77.474956 L64.3574181,77.474956 C64.0722542,77.474956 63.7870903,77.474956 63.5019265,77.3323741 C63.2167626,77.3323741 63.0741807,77.3323741 62.7890168,77.1897921 C62.2186891,77.0472102 61.6483613,76.9046283 61.0780336,76.7620463 C60.9354516,76.7620463 60.6502878,76.6194644 60.5077058,76.6194644 C59.9373781,76.4768825 59.3670504,76.1917186 58.7967226,75.9065547 C58.6541407,75.7639728 58.3689768,75.6213909 58.2263949,75.6213909 C57.941231,75.4788089 57.6560672,75.336227 57.5134852,75.1936451 C57.2283214,75.0510631 56.9431575,74.7658993 56.6579936,74.4807354 C56.5154117,74.3381535 56.3728298,74.3381535 56.3728298,74.1955715 C56.0876659,73.9104077 55.802502,73.7678257 55.5173381,73.4826619 C55.3747562,73.3400799 55.0895923,73.054916 54.9470104,72.9123341 C54.8044285,72.7697522 54.6618465,72.4845883 54.5192646,72.3420064 C54.0915188,71.9142606 53.8063549,71.4865148 53.5211911,70.916187 C53.3786091,70.7736051 53.2360272,70.4884412 53.2360272,70.3458593 C52.9508633,69.7755316 52.6656995,69.2052038 52.5231175,68.6348761 C52.3805356,68.4922942 52.3805356,68.2071303 52.2379537,68.0645484 C52.0953717,67.7793845 52.0953717,67.4942206 51.9527898,67.2090567 C51.8102079,66.7813109 51.8102079,66.4961471 51.6676259,66.0684013 L51.6676259,65.6406555 C51.6676259,65.2129097 51.525044,64.9277458 51.525044,64.5 L51.525044,63.7870903 C51.525044,63.7870903 51.525044,63.7870903 51.525044,63.6445084 L51.525044,62.9315987 C51.525044,62.361271 51.6676259,61.6483613 51.8102079,61.0780336 C51.8102079,60.9354516 51.9527898,60.6502878 51.9527898,60.5077058 C52.0953717,59.7947962 52.3805356,59.2244684 52.5231175,58.5115588 C52.6656995,58.3689768 52.6656995,58.2263949 52.8082814,57.941231 C52.9508633,57.6560672 53.0934453,57.3709033 53.2360272,57.0857394 C53.3786091,56.6579936 53.663773,56.3728298 53.9489369,55.945084 L54.0915188,55.802502 C54.3766827,55.3747562 54.6618465,55.0895923 54.9470104,54.8044285 C55.2321743,54.5192646 55.3747562,54.2341007 55.6599201,54.0915188 C55.802502,53.9489369 55.945084,53.8063549 56.0876659,53.663773 C56.6579936,53.0934453 57.2283214,52.6656995 57.7986491,52.2379537 C57.941231,52.2379537 57.941231,52.0953717 58.083813,52.0953717 C58.7967226,51.6676259 59.5096323,51.2398801 60.222542,50.9547163 C60.3651239,50.9547163 60.5077058,50.8121343 60.6502878,50.8121343 C61.0780336,50.6695524 61.3631974,50.5269705 61.7909433,50.3843885 C62.2186891,50.2418066 62.7890168,50.0992246 63.2167626,50.0992246 L63.3593445,50.0992246 C63.7870903,49.9566427 64.3574181,49.9566427 64.7851639,49.9566427 L65.4980735,49.9566427 L65.9258193,49.9566427 L66.3535651,49.9566427 C67.2090567,49.9566427 68.0645484,50.0992246 68.777458,50.3843885 L69.0626219,50.3843885 C69.9181135,50.6695524 70.7736051,50.9547163 71.4865148,51.2398801 C71.6290967,51.2398801 71.6290967,51.3824621 71.7716786,51.3824621 C72.1994244,51.525044 72.4845883,51.8102079 72.9123341,51.9527898 C73.3400799,52.2379537 73.7678257,52.5231175 74.1955715,52.8082814 L74.1955715,52.8082814 C74.6233173,53.0934453 75.0510631,53.5211911 75.336227,53.8063549 C75.6213909,54.0915188 75.9065547,54.3766827 76.1917186,54.6618465 C76.3343005,54.8044285 76.3343005,54.8044285 76.4768825,54.9470104 C77.0472102,55.6599201 77.474956,56.3728298 77.9027018,57.0857394 L78.0452837,57.2283214 C78.4730295,57.941231 78.7581934,58.7967226 79.0433573,59.6522142 C79.0433573,59.7947962 79.0433573,59.7947962 79.1859392,59.9373781 C79.3285212,60.3651239 79.3285212,60.7928697 79.4711031,61.2206155 C79.613685,61.7909433 79.613685,62.2186891 79.613685,62.7890168 L79.613685,62.7890168 L79.613685,63.5019265 L79.613685,64.2148361 C79.613685,64.6425819 79.613685,64.9277458 79.4711031,65.3554916 L79.4711031,65.7832374 C79.3285212,66.638729 79.1859392,67.3516387 78.9007754,68.0645484 C78.9007754,68.2071303 78.7581934,68.2071303 78.7581934,68.3497122 C78.4730295,69.0626219 78.1878657,69.7755316 77.7601199,70.4884412 C77.6175379,70.6310232 77.6175379,70.7736051 77.474956,70.916187 C77.3323741,71.2013509 77.0472102,71.4865148 76.7620463,71.7716786 C76.4768825,72.1994244 76.1917186,72.4845883 75.9065547,72.7697522 L75.7639728,72.9123341 C75.4788089,73.197498 75.0510631,73.4826619 74.7658993,73.9104077 C74.4807354,74.0529896 74.1955715,74.3381535 74.0529896,74.4807354 C73.3400799,74.9084812 73.054916,75.0510631 72.9123341,75.1936451 L72.9123341,75.1936451 Z"></path>
                        <path d="M73.4826619,98.7196642 C72.9123341,98.8622461 72.4845883,99.0048281 71.9142606,99.0048281 C71.3439328,99.14741 70.916187,99.14741 70.3458593,99.2899919 L74.4807354,118.681135 C74.6233173,119.394045 75.336227,119.964372 76.0491367,119.964372 L76.3343005,119.964372 C76.7620463,119.82179 77.0472102,119.679209 77.3323741,119.251463 C77.6175379,118.966299 77.6175379,118.538553 77.474956,118.110807 L73.4826619,98.7196642 L73.4826619,98.7196642 Z"></path>
                        <path d="M73.7678257,62.5038529 L73.7678257,62.2186891 C73.6252438,61.7909433 73.6252438,61.3631974 73.4826619,60.9354516 C73.4826619,60.7928697 73.3400799,60.5077058 73.3400799,60.3651239 C73.197498,59.9373781 73.054916,59.6522142 72.7697522,59.2244684 C72.6271702,59.0818865 72.6271702,58.9393046 72.4845883,58.7967226 C72.1994244,58.3689768 71.9142606,58.083813 71.6290967,57.7986491 L71.4865148,57.6560672 C71.3439328,57.5134852 71.2013509,57.3709033 71.2013509,57.3709033 C70.916187,57.0857394 70.6310232,56.9431575 70.3458593,56.6579936 C70.2032774,56.5154117 70.0606954,56.5154117 69.9181135,56.3728298 C69.7755316,56.3728298 69.7755316,56.2302478 69.6329496,56.2302478 C69.2052038,56.0876659 68.92004,55.802502 68.4922942,55.6599201 C68.3497122,55.6599201 68.2071303,55.5173381 67.9219664,55.5173381 C67.4942206,55.3747562 67.0664748,55.3747562 66.638729,55.2321743 L66.2109832,55.2321743 L65.4980735,55.2321743 L64.9277458,55.2321743 L64.7851639,55.2321743 L64.3574181,55.2321743 C63.9296723,55.2321743 63.5019265,55.3747562 63.2167626,55.5173381 C63.0741807,55.5173381 62.9315987,55.6599201 62.9315987,55.6599201 L62.7890168,55.6599201 C62.361271,55.802502 61.9335252,55.945084 61.5057794,56.2302478 C61.3631974,56.2302478 61.3631974,56.3728298 61.2206155,56.3728298 C60.7928697,56.6579936 60.3651239,56.9431575 60.07996,57.2283214 L59.9373781,57.3709033 C59.5096323,57.6560672 59.2244684,58.083813 58.9393046,58.5115588 L58.9393046,58.5115588 L58.7967226,58.6541407 C58.5115588,59.0818865 58.2263949,59.3670504 58.083813,59.7947962 C58.083813,59.7947962 58.083813,59.9373781 57.941231,59.9373781 L57.941231,59.9373781 C57.6560672,60.3651239 57.5134852,60.9354516 57.3709033,61.3631974 L57.3709033,61.3631974 C57.2283214,61.7909433 57.2283214,62.361271 57.0857394,62.7890168 L57.0857394,62.9315987 L57.0857394,63.6445084 L57.0857394,64.3574181 L57.0857394,64.3574181 C57.0857394,64.7851639 57.2283214,65.3554916 57.3709033,65.7832374 C57.3709033,65.7832374 57.3709033,65.7832374 57.3709033,65.9258193 L57.3709033,65.9258193 C57.5134852,66.3535651 57.6560672,66.7813109 57.7986491,67.2090567 C57.7986491,67.3516387 57.7986491,67.3516387 57.941231,67.3516387 C58.083813,67.6368026 58.3689768,68.0645484 58.5115588,68.3497122 C58.5115588,68.4922942 58.6541407,68.4922942 58.6541407,68.6348761 C58.9393046,68.92004 59.2244684,69.3477858 59.5096323,69.6329496 L59.5096323,69.6329496 L59.6522142,69.7755316 C59.9373781,70.0606954 60.222542,70.3458593 60.6502878,70.6310232 C60.6502878,70.6310232 60.6502878,70.6310232 60.7928697,70.7736051 L60.7928697,70.7736051 C61.2206155,71.058769 61.5057794,71.2013509 61.9335252,71.4865148 C61.9335252,71.4865148 62.0761071,71.4865148 62.0761071,71.6290967 C62.5038529,71.7716786 62.7890168,71.9142606 63.2167626,72.0568425 L63.5019265,72.0568425 C63.9296723,72.1994244 64.3574181,72.1994244 64.7851639,72.3420064 L64.7851639,72.3420064 L65.4980735,72.3420064 L66.2109832,72.3420064 L66.2109832,72.3420064 C66.7813109,72.3420064 67.2090567,72.1994244 67.7793845,72.0568425 L67.7793845,72.0568425 C68.3497122,71.9142606 68.777458,71.7716786 69.2052038,71.4865148 L69.2052038,71.4865148 C69.6329496,71.2013509 70.0606954,70.916187 70.4884412,70.6310232 L70.4884412,70.6310232 L70.6310232,70.4884412 C70.916187,70.2032774 71.3439328,69.9181135 71.6290967,69.6329496 L71.7716786,69.4903677 C71.7716786,69.4903677 71.7716786,69.4903677 71.9142606,69.3477858 C72.1994244,68.92004 72.4845883,68.6348761 72.7697522,68.2071303 C72.7697522,68.0645484 72.9123341,68.0645484 72.9123341,67.9219664 C73.054916,67.4942206 73.3400799,67.0664748 73.4826619,66.638729 C73.4826619,66.4961471 73.6252438,66.3535651 73.6252438,66.3535651 C73.7678257,65.9258193 73.9104077,65.4980735 73.9104077,64.9277458 L73.9104077,64.7851639 L73.9104077,64.3574181 L73.9104077,63.9296723 L73.9104077,63.2167626 C73.7678257,62.7890168 73.7678257,62.6464349 73.7678257,62.5038529 L73.7678257,62.5038529 Z M68.4922942,64.3574181 C68.4922942,64.5 68.3497122,64.5 68.4922942,64.3574181 C68.3497122,64.5 68.3497122,64.5 68.4922942,64.3574181 C68.3497122,64.6425819 68.3497122,64.7851639 68.3497122,65.0703277 C68.3497122,65.2129097 68.2071303,65.2129097 68.2071303,65.3554916 C68.2071303,65.4980735 68.0645484,65.6406555 68.0645484,65.6406555 C67.9219664,65.7832374 67.7793845,65.9258193 67.6368026,66.0684013 L67.6368026,66.0684013 C67.4942206,66.0684013 67.4942206,66.2109832 67.3516387,66.2109832 C67.2090567,66.2109832 67.2090567,66.3535651 67.0664748,66.3535651 C67.0664748,66.3535651 66.9238929,66.3535651 66.9238929,66.4961471 L66.7813109,66.638729 C66.7813109,66.638729 66.7813109,66.638729 66.638729,66.638729 C66.4961471,66.638729 66.3535651,66.7813109 66.2109832,66.7813109 L66.2109832,66.7813109 C66.0684013,66.7813109 65.9258193,66.7813109 65.7832374,66.9238929 L65.4980735,66.9238929 L65.3554916,66.9238929 C65.3554916,66.9238929 65.3554916,66.9238929 65.2129097,66.9238929 L65.0703277,66.9238929 L64.7851639,66.9238929 L64.6425819,66.9238929 L64.5,66.9238929 L64.3574181,66.9238929 C64.2148361,66.9238929 64.2148361,66.9238929 64.0722542,66.7813109 C64.0722542,66.7813109 64.0722542,66.7813109 63.9296723,66.7813109 C63.7870903,66.7813109 63.6445084,66.638729 63.6445084,66.638729 L63.6445084,66.638729 C63.5019265,66.638729 63.5019265,66.4961471 63.3593445,66.4961471 L63.3593445,66.4961471 C63.2167626,66.4961471 63.2167626,66.3535651 63.2167626,66.3535651 L63.2167626,66.3535651 C63.2167626,66.3535651 63.2167626,66.3535651 63.2167626,66.2109832 L63.0741807,66.0684013 C63.0741807,66.0684013 63.0741807,65.9258193 62.9315987,65.9258193 C62.9315987,65.7832374 62.7890168,65.7832374 62.7890168,65.6406555 L62.7890168,65.6406555 C62.7890168,65.4980735 62.6464349,65.3554916 62.6464349,65.3554916 L62.6464349,65.3554916 C62.6464349,65.2129097 62.5038529,65.2129097 62.5038529,65.0703277 L62.5038529,64.9277458 L62.5038529,64.7851639 C62.5038529,64.7851639 62.5038529,64.7851639 62.5038529,64.6425819 L62.5038529,64.2148361 L62.5038529,64.0722542 L62.5038529,64.0722542 L62.5038529,63.7870903 C62.5038529,63.6445084 62.5038529,63.5019265 62.6464349,63.3593445 L62.6464349,63.3593445 C62.6464349,63.2167626 62.7890168,63.0741807 62.7890168,62.9315987 L62.7890168,62.7890168 L62.7890168,62.6464349 C62.7890168,62.5038529 62.9315987,62.5038529 62.9315987,62.5038529 C63.0741807,62.361271 63.0741807,62.2186891 63.2167626,62.0761071 C63.2167626,62.0761071 63.2167626,62.0761071 63.2167626,61.9335252 C63.3593445,61.7909433 63.5019265,61.6483613 63.6445084,61.5057794 C63.7870903,61.5057794 63.7870903,61.3631974 63.9296723,61.3631974 C63.9296723,61.3631974 64.0722542,61.3631974 64.0722542,61.2206155 C64.0722542,61.2206155 64.2148361,61.2206155 64.2148361,61.0780336 C64.3574181,60.9354516 64.5,60.9354516 64.6425819,60.9354516 L64.7851639,60.9354516 L64.7851639,60.9354516 C65.0703277,60.9354516 65.2129097,60.7928697 65.4980735,60.7928697 L65.4980735,60.7928697 C65.7832374,60.7928697 66.0684013,60.7928697 66.2109832,60.9354516 L66.3535651,60.9354516 C66.4961471,60.9354516 66.7813109,61.0780336 66.9238929,61.2206155 L66.9238929,61.2206155 L67.0664748,61.2206155 C67.2090567,61.3631974 67.4942206,61.5057794 67.6368026,61.6483613 C67.6368026,61.6483613 67.7793845,61.6483613 67.7793845,61.7909433 L67.7793845,61.7909433 C67.9219664,61.9335252 68.0645484,62.0761071 68.2071303,62.2186891 C68.2071303,62.2186891 68.2071303,62.361271 68.3497122,62.361271 C68.4922942,62.6464349 68.6348761,62.7890168 68.6348761,63.0741807 L68.6348761,63.2167626 C68.6348761,63.5019265 68.777458,63.6445084 68.777458,63.9296723 L68.777458,63.9296723 C68.4922942,63.9296723 68.4922942,64.2148361 68.4922942,64.3574181 L68.4922942,64.3574181 Z"></path>
                        <path d="M64.5,99.5751558 L62.9315987,99.5751558 L62.9315987,127.378633 C62.9315987,128.234125 63.6445084,128.947034 64.5,128.947034 C65.3554916,128.947034 66.0684013,128.234125 66.0684013,127.378633 L66.0684013,99.5751558 L65.3554916,99.5751558 C65.2129097,99.5751558 64.7851639,99.7177377 64.5,99.5751558 L64.5,99.5751558 Z"></path>
                        <path d="M53.0934453,116.11466 C52.9508633,116.542406 53.0934453,116.970152 53.3786091,117.255316 C53.663773,117.54048 53.9489369,117.825643 54.3766827,117.968225 L54.6618465,117.968225 C55.3747562,117.968225 56.0876659,117.397898 56.2302478,116.684988 L59.5096323,99.14741 C58.5115588,99.0048281 57.5134852,98.7196642 56.5154117,98.5770823 L53.0934453,116.11466 L53.0934453,116.11466 Z"></path>
                        <path d="M39.5481615,122.245683 C39.2629977,123.101175 39.5481615,123.956667 40.4036531,124.24183 C40.5462351,124.384412 40.8313989,124.384412 40.9739809,124.384412 C41.6868905,124.384412 42.2572183,123.956667 42.3998002,123.386339 L52.8082814,97.4364268 C51.8102079,97.008681 50.8121343,96.7235171 49.9566427,96.2957713 L39.5481615,122.245683 L39.5481615,122.245683 Z"></path>
                        <path d="M45.5366028,93.7292965 C45.108857,93.4441326 44.6811112,93.1589688 44.2533653,92.8738049 L33.2745564,109.841055 C32.8468106,110.553965 32.9893926,111.552038 33.7023022,111.979784 C33.9874661,112.122366 34.27263,112.264948 34.5577938,112.264948 C35.1281216,112.264948 35.5558674,111.979784 35.8410312,111.552038 L46.8198402,94.5847881 C46.3920944,94.2996242 45.9643486,94.0144604 45.5366028,93.7292965 L45.5366028,93.7292965 Z"></path>
                        <path d="M39.8333254,89.1666746 C39.4055796,88.7389288 39.1204157,88.4537649 38.6926699,88.0260191 L18.8737811,107.844908 C18.3034533,108.415236 18.3034533,109.413309 18.8737811,109.983637 C19.1589449,110.268801 19.5866907,110.411383 20.0144365,110.411383 C20.4421823,110.411383 20.8699281,110.268801 21.155092,109.983637 L40.9739809,90.1647481 C40.5462351,89.8795843 40.2610712,89.4518385 39.8333254,89.1666746 L39.8333254,89.1666746 Z"></path>
                        <path d="M19.3015269,94.0144604 C19.1589449,94.4422062 19.3015269,94.869952 19.5866907,95.1551158 C19.8718546,95.5828616 20.2996004,95.8680255 20.8699281,95.8680255 C21.155092,95.8680255 21.4402559,95.7254436 21.7254198,95.5828616 L36.5539409,85.4595443 C35.9836132,84.6040527 35.2707035,83.7485611 34.8429577,82.8930695 L20.0144365,93.0163868 C19.5866907,93.1589688 19.4441088,93.5867146 19.3015269,94.0144604 L19.3015269,94.0144604 Z M20.8699281,94.2996242 L20.8699281,95.0125339 L20.8699281,94.2996242 L20.8699281,94.2996242 L20.8699281,94.2996242 Z"></path>
                        <path d="M17.4479617,35.9836132 L33.7023022,46.5346763 C33.9874661,46.1069305 34.27263,45.6791847 34.4152119,45.2514389 C34.7003758,44.8236931 34.9855396,44.3959473 35.2707035,43.9682015 L19.016363,33.4171384 C18.7311991,33.2745564 18.4460353,33.1319745 18.1608714,33.1319745 C17.5905437,33.1319745 17.1627979,33.4171384 16.877634,33.8448842 C16.4498882,34.5577938 16.7350521,35.4132854 17.4479617,35.9836132 L17.4479617,35.9836132 Z"></path>
                        <path d="M31.8487371,76.7620463 L6.04140699,87.7408553 C5.61366119,87.8834372 5.32849732,88.1686011 5.18591539,88.5963469 C5.04333346,89.0240927 5.04333346,89.4518385 5.18591539,89.7370023 C5.47107926,90.3073301 6.04140699,90.7350759 6.61173473,90.7350759 C6.75431667,90.7350759 7.03948053,90.7350759 7.18206247,90.592494 L32.9893926,79.613685 C32.5616467,78.6156115 32.1339009,77.7601199 31.8487371,76.7620463 L31.8487371,76.7620463 Z"></path>
                        <path d="M5.61366119,42.5423821 L31.1358274,52.8082814 C31.4209913,51.8102079 31.8487371,50.8121343 32.2764829,49.8140608 L6.75431667,39.5481615 C6.61173473,39.4055796 6.32657086,39.4055796 6.18398893,39.4055796 C5.61366119,39.4055796 4.90075152,39.8333254 4.75816959,40.4036531 C4.47300572,41.2591447 4.75816959,42.1146363 5.61366119,42.5423821 L5.61366119,42.5423821 Z"></path>
                        <path d="M9.32079148,75.1936451 C9.03562761,75.4788089 9.03562761,75.9065547 9.03562761,76.3343005 C9.17820955,77.0472102 9.89111922,77.6175379 10.6040289,77.6175379 L10.8891928,77.6175379 L30.5654997,73.3400799 C30.4229177,72.7697522 30.2803358,72.3420064 30.1377539,71.7716786 C29.9951719,71.2013509 29.85259,70.7736051 29.85259,70.2032774 L10.318865,74.4807354 C9.89111922,74.6233173 9.60595535,74.9084812 9.32079148,75.1936451 L9.32079148,75.1936451 Z"></path>
                        <path d="M12.8853398,53.0934453 C12.0298482,52.9508633 11.1743566,53.5211911 11.0317747,54.3766827 C10.8891928,54.8044285 11.0317747,55.2321743 11.3169386,55.5173381 C11.6021024,55.802502 11.8872663,56.0876659 12.3150121,56.2302478 L29.5674261,59.5096323 C29.7100081,58.5115588 29.85259,57.3709033 29.9951719,56.3728298 L12.8853398,53.0934453 L12.8853398,53.0934453 Z"></path>
                        <path d="M29.4248442,64.5 L29.4248442,63.7870903 L29.4248442,63.0741807 L1.62136704,63.0741807 C0.765875431,63.0741807 0.05296576,63.7870903 0.05296576,64.6425819 C0.05296576,65.4980735 0.765875431,66.2109832 1.62136704,66.2109832 L29.4248442,66.2109832 L29.4248442,64.5 L29.4248442,64.5 Z"></path>
                    </g>
                </g>
            </g>
        </g>
    </g>
</svg>