<?xml version="1.0" standalone="no"?>
<!DOCTYPE svg PUBLIC "-//W3C//DTD SVG 1.1//EN" "http://www.w3.org/Graphics/SVG/1.1/DTD/svg11.dtd" >
<svg xmlns="http://www.w3.org/2000/svg">
<metadata></metadata>
<defs>
<font id="bruskovayamedium" horiz-adv-x="919" >
<font-face units-per-em="2048" ascent="1638" descent="-410" />
<missing-glyph horiz-adv-x="727" />
<glyph horiz-adv-x="2048" />
<glyph horiz-adv-x="2048" />
<glyph unicode="&#xd;" horiz-adv-x="681" />
<glyph unicode=" "  horiz-adv-x="727" />
<glyph unicode="&#x09;" horiz-adv-x="727" />
<glyph unicode="&#xa0;" horiz-adv-x="727" />
<glyph unicode="!" horiz-adv-x="471" d="M80 1255q0 43 4 77t18.5 71t48 57.5t85.5 20.5q147 -2 155 -203q2 -70 -10 -152q-29 -182 -31 -200q-18 -111 -24 -224q-4 -68 -9 -206q0 -12 -1 -38t-3 -38h-153l-6 143q-4 143 -15 254q-10 84 -39 248q-20 123 -20 190zM96 109q-2 55 41 102t96 49q55 2 103.5 -44 t48.5 -101q0 -53 -45 -97.5t-100 -44.5q-53 0 -97.5 42.5t-46.5 93.5z" />
<glyph unicode="&#x22;" horiz-adv-x="1001" d="M145 1337q0 63 46.5 104.5t105.5 39.5q57 -2 103 -48.5t51 -144.5q2 -201 -156 -375l-119 60q109 158 96 201q-4 12 -14 20q-6 6 -21.5 11t-19.5 9q-33 12 -53.5 48t-18.5 75zM551 1337q2 63 49 104.5t107 39.5q57 -2 102 -48.5t47 -144.5q7 -199 -151 -375l-121 60 q29 39 66.5 107.5t31.5 93.5q-4 12 -14 20q-8 6 -22.5 11t-20.5 9q-31 12 -52.5 48t-21.5 75z" />
<glyph unicode="#" horiz-adv-x="1304" d="M8 410l27 137h291l65 366h-293l25 138h295l55 319h125l-59 -319h340l57 319h123l-60 -319h295l-24 -138h-293l-66 -366h293l-22 -137h-295l-56 -330h-124l57 330h-338l-57 -330h-123l55 330h-293zM451 547h337l64 366h-338z" />
<glyph unicode="$" horiz-adv-x="1050" d="M59 317q0 82 45.5 131.5t108.5 49.5q55 0 98 -42t43 -106q0 -70 -41 -121q-6 0 -12 -7t-6 -13l-6 -23q0 -35 62.5 -71.5t127.5 -36.5h6l2 600q-27 18 -69 55q-39 33 -74 62.5t-65.5 57.5t-56 54.5t-46 54t-34 55t-20.5 59.5t-7 67q0 131 99 233.5t271 110.5l2 131h84 v-135q117 -10 207 -84l25 57h127v-428l-152 -2q-4 96 -19.5 161.5t-62.5 120t-125 58.5v-446q27 -16 74 -54q186 -143 265 -247.5t79 -229.5q0 -182 -114.5 -288.5t-303.5 -125.5v-172h-84v168q-215 0 -321.5 106.5t-106.5 239.5zM346 1178q0 -59 32.5 -100.5t108.5 -98.5 v381q-76 -18 -108.5 -71.5t-32.5 -110.5zM569 86q162 31 162 229q0 86 -20.5 143.5t-50.5 88t-89 71.5z" />
<glyph unicode="%" horiz-adv-x="1347" d="M49 1159q0 115 65.5 203t198.5 88q131 0 195.5 -88t64.5 -203t-64.5 -203t-195.5 -88q-133 0 -198.5 88t-65.5 203zM233 1159q0 -100 16.5 -139t59.5 -39q47 -2 64.5 39t17.5 139q0 100 -17.5 140t-64.5 40q-43 0 -59.5 -39t-16.5 -141zM281 -86l667 1624l127 -25 l-665 -1626zM774 291q0 115 65.5 203t198.5 88q131 0 195.5 -88t64.5 -203t-65.5 -203t-194.5 -88q-133 0 -198.5 88t-65.5 203zM958 291q0 -100 16.5 -139t59.5 -39q47 -2 64.5 39t17.5 139q0 100 -17.5 141t-64.5 39q-43 0 -59.5 -39t-16.5 -141z" />
<glyph unicode="'" horiz-adv-x="462" d="M80 1337q0 63 46 104.5t105 39.5q57 -2 104.5 -48.5t49.5 -144.5q2 -201 -156 -375l-118 60q109 158 98 201q-8 14 -16 20q-6 6 -21.5 11t-19.5 9q-33 12 -53.5 48t-18.5 75z" />
<glyph unicode="(" horiz-adv-x="577" d="M59 715q0 248 126 512t331 405v-131q-250 -399 -250 -786t250 -785v-129q-205 137 -331 401.5t-126 512.5z" />
<glyph unicode=")" horiz-adv-x="577" d="M59 -70q254 399 254 784.5t-254 786.5v131q207 -139 332 -404t125 -513q0 -250 -125 -513t-332 -401v129z" />
<glyph unicode="*" horiz-adv-x="929" d="M49 1395q-4 63 40 104t97 31q31 -6 54 -27l65 -65q45 -43 107 -54q14 57 -17 117q-6 12 -20.5 39t-20.5 43q-12 41 -8 62q4 39 37 67.5t84 28.5q49 0 82 -30t37 -66q4 -20 -8 -62q-6 -16 -20.5 -43t-20.5 -39q-31 -61 -17 -117q59 6 107 52q51 55 61 65q33 23 57 27 q53 10 96.5 -31t39.5 -104q-2 -43 -34 -75t-89 -30q-16 0 -45 6t-43 6q-72 8 -121 -18q31 -53 86 -86q53 -25 80 -41q55 -33 55 -94q0 -45 -29.5 -78t-70.5 -43t-80 10.5t-55 73.5q-4 16 -8.5 47t-6.5 43q-14 66 -55 105q-41 -35 -57 -103l-13 -92q-16 -53 -56 -73.5 t-81 -8.5q-41 10 -70.5 43t-29.5 78q0 53 55 94l82 41q55 31 86 86q-49 27 -119 19l-92 -13q-55 -2 -86 29t-35 76z" />
<glyph unicode="+" horiz-adv-x="1353" d="M72 651v148h532v530h144v-530h534v-148h-534v-530h-144v530h-532z" />
<glyph unicode="," horiz-adv-x="462" d="M80 147q0 61 46 103.5t105 40.5q57 0 104.5 -47t49.5 -148q2 -200 -156 -370l-118 59q29 39 66.5 107.5t31.5 93.5q-6 10 -16 18q-6 6 -22.5 11t-18.5 8q-33 16 -53.5 51t-18.5 73z" />
<glyph unicode="-" horiz-adv-x="468" d="M59 422v168h349v-168h-349z" />
<glyph unicode="." horiz-adv-x="444" d="M80 115q0 59 43 100t100 41q59 0 100.5 -42t41.5 -99.5t-41 -99.5t-101 -42q-61 0 -102 42.5t-41 99.5z" />
<glyph unicode="/" horiz-adv-x="892" d="M49 -86l668 1624l125 -25l-662 -1626z" />
<glyph unicode="0" horiz-adv-x="966" d="M55 723q0 379 119 568.5t307.5 189.5t308 -190.5t119.5 -567.5q0 -383 -122.5 -568.5t-305.5 -183.5q-184 0 -305 184.5t-121 567.5zM315 727q0 -190 11 -324q4 -29 8 -94q12 -100 35 -145q45 -78 112 -78q74 0 115 78q25 49 33 145q2 14 5 46t5 48q10 133 10 324 q0 188 -10 322q-2 14 -5 45.5t-5 48.5q-8 96 -33 145q-43 78 -115 78q-66 0 -105.5 -69.5t-48 -168t-12.5 -209t0 -192.5z" />
<glyph unicode="1" horiz-adv-x="704" d="M55 1202v98q185 28 277 175h155v-1366h138v-109h-527v109h138v1116q-80 -27 -181 -23z" />
<glyph unicode="2" horiz-adv-x="950" d="M84 1038q-23 86 5 181.5t119 172t230 83.5q199 10 319 -114t105 -300q-10 -156 -131 -303q-49 -57 -162 -158q-172 -160 -229 -243t-61 -193h233q37 0 51.5 1t46 7t46 19.5t27.5 42t13 69.5v107h164v-410h-743q-16 197 36 323t148 234q137 147 162 176q72 86 104.5 159 t38.5 175q8 141 -44 212t-138 75q-57 2 -103.5 -27t-58.5 -92q-4 -27 3 -39t30 -29q37 -23 59 -49q18 -29 19 -78q2 -66 -35 -105.5t-90 -39.5q-51 0 -98.5 37t-65.5 106z" />
<glyph unicode="3" horiz-adv-x="964" d="M72 324q2 96 50 146t109 50q57 0 97.5 -41t42.5 -106q0 -51 -19 -80l-37 -43q-18 -27 -18 -45q-6 -47 46 -88t126 -31q174 27 168 309q-2 51 -6 85t-22.5 85t-50.5 80t-94.5 47t-148.5 10v115q59 -8 114.5 1t112 60.5t68.5 147.5q4 35 4 102q4 84 -10 134 q-35 102 -139 104q-61 2 -99 -30.5t-34 -67.5q0 -12 10 -29q4 -6 13.5 -13t11.5 -12q35 -37 30 -102q-4 -55 -38.5 -91t-92.5 -34q-109 0 -139 115q-35 135 68.5 260t289.5 119q158 -4 260.5 -100.5t108.5 -250.5q6 -125 -57.5 -222t-175.5 -140q260 -98 270 -365 q8 -178 -107.5 -306t-312.5 -126q-164 0 -283.5 95.5t-115.5 257.5z" />
<glyph unicode="4" horiz-adv-x="991" d="M35 309v94l522 1047h236v-1006v2l133 -2v-135h-133v-200h139v-109h-514v109h139v200h-522zM223 444h334v742z" />
<glyph unicode="5" horiz-adv-x="954" d="M80 260q-2 82 39 130t104 50q57 2 100.5 -34.5t45.5 -100.5q2 -72 -47 -121q-16 -16 -19 -26q-8 -27 31 -53.5t108 -20.5q195 18 172 405q-2 57 -9 104.5t-26.5 110t-63.5 95t-109 28.5q-59 -4 -89 -40.5t-55 -106.5h-139l27 770h581v-186h-430v-371q80 74 201 74 q162 0 261 -127t109 -324q10 -231 -99 -383.5t-322 -161.5q-160 -8 -263.5 75t-107.5 214z" />
<glyph unicode="6" horiz-adv-x="970" d="M64.5 588q-5.5 86 1.5 160q2 63 4 104t13 125t27.5 142.5t50.5 131t79 117.5t114.5 78t157.5 35q117 4 200 -45.5t116.5 -111.5t31.5 -124q0 -55 -33.5 -109.5t-103.5 -56.5q-63 -2 -97 42t-36 93q0 53 35 101q4 4 10 14q2 6 4 8q6 31 -31 55.5t-100 16.5 q-96 -14 -139 -121.5t-43 -261.5q0 -131 8 -213q12 10 33 31q70 55 96 69q61 29 143 23q129 -10 215 -122t80 -325q-8 -215 -117.5 -344t-298.5 -129q-102 -2 -179 35t-120 99.5t-72.5 143.5t-36.5 167t-12.5 172zM340 406q0 -68 4 -111t16.5 -97.5t45 -82t81.5 -29.5 q43 -2 74 19.5t46.5 49t24.5 80t11 87t4 98.5q4 57 0 118.5t-13 111.5t-41 82t-85 32q-47 -2 -79 -24.5t-49.5 -52.5t-26.5 -84t-11 -92.5t-2 -104.5z" />
<glyph unicode="7" horiz-adv-x="946" d="M61 981l50 469h733v-158q-180 -387 -229.5 -631.5t-41.5 -660.5h-270q-2 199 17.5 356.5t71.5 315t110.5 285.5t165.5 335h-172q-43 -2 -84 1t-83 -20.5t-65 -78.5q-6 -12 -26 -102q-2 -18 -9.5 -55.5t-11.5 -55.5h-156z" />
<glyph unicode="8" horiz-adv-x="1009" d="M61 385q-2 82 19.5 149.5t52.5 106.5t74 69.5t69.5 43t55.5 20.5q-29 10 -56.5 25.5t-69.5 50.5t-67.5 96.5t-27.5 138.5q-2 178 103 286t285.5 110t290 -106.5t105.5 -289.5q-6 -233 -221 -311q29 -8 55.5 -20.5t69.5 -43t73.5 -69.5t52 -106.5t19.5 -149.5 q-2 -117 -43 -201t-91 -124t-122 -62.5t-108.5 -25.5t-77.5 -3t-77 3t-107.5 25.5t-122 62.5t-91.5 124t-43 201zM315 395q0 -100 9 -149q10 -76 50 -118t68.5 -48t59.5 -4q66 -2 107.5 25.5t57 82t19.5 99.5t2 112q0 55 -2 90t-11 86.5t-27.5 81t-55.5 52t-90 22.5 q-20 0 -42 -5t-52.5 -21.5t-54 -58.5t-31.5 -103q-6 -47 -7 -144zM340 1096q-2 -158 39 -218.5t123 -58.5q84 0 125 60.5t39 216.5q-2 162 -43 217t-121 55q-78 0 -118 -55.5t-44 -216.5z" />
<glyph unicode="9" horiz-adv-x="970" d="M66 1006q8 215 117.5 344t297.5 131q102 0 179 -37t120 -99.5t73 -143.5t37 -168t12 -173t-1 -158q-2 -66 -4 -105.5t-12.5 -124.5t-27.5 -141.5t-50 -130t-78 -117.5t-115.5 -77t-158.5 -35t-159 25t-110 71t-59.5 91t-20.5 92q2 57 35 109.5t103 56.5q63 2 97 -42 t36 -93q0 -53 -35 -101q-10 -18 -12 -24q-8 -29 28.5 -53.5t100.5 -16.5q221 31 176 594q-23 -16 -35 -31q-70 -55 -96 -69q-74 -31 -144 -23q-131 12 -216 123t-78 326zM319 1030q-4 -57 0.5 -118.5t13.5 -112.5t41 -83t85 -30q47 2 78.5 24.5t49 52.5t27 84t11.5 93 t2 104.5t-4.5 109.5t-16.5 98.5t-45 82t-82 29.5q-43 2 -73.5 -19.5t-46 -49t-24.5 -80t-11 -87t-5 -98.5z" />
<glyph unicode=":" horiz-adv-x="444" d="M80 109q-2 55 41 102t96 49t100.5 -44t47.5 -101q2 -53 -43.5 -97.5t-100.5 -44.5q-53 0 -96 42.5t-45 93.5zM80 879q-2 55 41 102t96 49t100.5 -44t47.5 -99q2 -55 -44.5 -100.5t-99.5 -45.5t-96 43.5t-45 94.5z" />
<glyph unicode=";" horiz-adv-x="464" d="M80 147q0 61 47 103.5t106 40.5q57 0 103.5 -47t48.5 -148q6 -198 -156 -370l-116 59q106 162 96 201q-6 14 -14 18l-43 19q-31 16 -51.5 51t-20.5 73zM80 879q-2 55 41 102t96 49t100.5 -44t47.5 -99q2 -55 -44.5 -100.5t-99.5 -45.5t-96 43.5t-45 94.5z" />
<glyph unicode="&#x3c;" horiz-adv-x="1392" d="M168 723l1026 442l29 -73l-881 -369l881 -365l-29 -73z" />
<glyph unicode="=" horiz-adv-x="1353" d="M72 410v147h1210v-147h-1210zM72 893v147h1210v-147h-1210z" />
<glyph unicode="&#x3e;" horiz-adv-x="1392" d="M168 358l881 365l-881 369l29 73l1026 -442l-1026 -438z" />
<glyph unicode="?" horiz-adv-x="882" d="M80 1155q-2 123 90 227.5t266 98.5q168 -2 267.5 -106.5t99.5 -235.5q0 -61 -27.5 -126t-55.5 -102t-75 -90q-94 -104 -121 -149q-69 -117 -69 -260h-158q-10 174 51 301q16 41 39 81t55.5 93t46.5 76q59 113 56 223q-8 172 -129 176q-45 2 -72 -21.5t-27 -52.5 q-2 -14 15 -51l17 -25.5t18 -31.5q12 -33 8 -72q-6 -59 -47 -93t-92 -36q-63 -4 -109.5 46t-46.5 130zM246 109q-4 55 39 102t98 49q53 2 100 -44t47 -101q0 -53 -45 -97.5t-98 -44.5t-96 42.5t-45 93.5z" />
<glyph unicode="@" horiz-adv-x="1619" d="M47 670q-2 199 91 373t273.5 287.5t409.5 119.5q315 10 532.5 -179.5t219.5 -494.5q2 -211 -112.5 -370.5t-301.5 -155.5q-139 6 -203 108q-127 -98 -243 -92q-106 4 -193.5 83t-85.5 245q2 184 130 333.5t331 145.5q135 -14 205 -115l26 82h144l-144 -475 q-8 -29 -10 -43q-23 -86 -22 -102q-2 -33 6 -56.5t27.5 -35t26.5 -13.5t24 -6q111 -8 224.5 126t108.5 339q-4 268 -195.5 446.5t-492.5 170.5q-301 -10 -496.5 -223.5t-195.5 -499.5q0 -291 199.5 -505t500.5 -222q281 0 465 157l39 -49q-227 -170 -499 -170 q-231 0 -415.5 119t-278 297t-95.5 375zM602 580q-23 -244 146 -250q115 -6 194 106l117 414q-12 76 -59.5 121t-108.5 47q-104 0 -189.5 -127t-99.5 -311z" />
<glyph unicode="A" horiz-adv-x="1361" d="M41 0v104h106l394 1371h241l408 -1371h133v-104h-541v104h142l-74 261h-432l-70 -261h137v-104h-444zM451 481h364l-188 686z" />
<glyph unicode="B" horiz-adv-x="1150" d="M59 0v109h138v1230h-138v111h555q184 0 305 -90q119 -89 119 -253v-5q0 -131 -70.5 -199.5t-205.5 -116.5q154 -23 245 -131q85 -101 85 -252v-20q-4 -106 -46 -184t-91.5 -115t-117 -57.5t-101.5 -23.5t-68 -3h-609zM457 115q50 -6 92 -6q49 0 87 8q70 14 106 56 t49.5 93t13.5 131q0 201 -75 278q-53 55 -169 55q-47 0 -104 -9v-606zM457 842q61 -12 96 -13q227 0 227 271q0 27 -2 57q-4 70 -38.5 116t-82 62.5t-101.5 22.5q-18 2 -35 2q-34 0 -64 -8v-510z" />
<glyph unicode="C" horiz-adv-x="1095" d="M53 735v34q0 192 42 336q46 157 128 236.5t172 113.5q73 28 152 27q19 0 37 -1q137 -10 247 -101l37 56h119v-455h-156q-8 80 -21 140.5t-40 122.5t-75 92q-45 29 -107 28h-8q-84 -2 -137.5 -63.5t-70.5 -153.5q-16 -91 -23 -201q-3 -51 -3 -101q0 -56 4 -110 q2 -123 11.5 -214t34 -195.5t80.5 -160.5t138 -56q104 2 176 109.5t78 275.5h179q-2 -133 -38 -233.5t-85.5 -154t-115 -85t-111.5 -41t-93 -9.5h-19q-49 1 -99 9q-58 10 -138 55t-139 121.5t-104.5 226t-51.5 352.5z" />
<glyph unicode="D" horiz-adv-x="1253" d="M59 0v109h138v1230h-138v111h555q78 0 151 -17.5t152.5 -66.5t139 -127t97.5 -213t38 -309t-34 -306t-85 -209t-123.5 -124t-139.5 -62.5t-142 -15.5h-609zM457 115q57 -9 107 -9q35 0 66 4q77 11 125 43.5t83.5 83t51.5 111.5q16 60 26 126q9 56 8 112v22q-1 33 -1 64.5 t1 62.5q-2 86 -7.5 150.5t-20.5 144.5t-48 136.5t-82 104.5q-49 49 -128 69q-57 15 -126 14q-27 0 -55 -2v-1237z" />
<glyph unicode="E" horiz-adv-x="1099" d="M59 0v109h138v1230h-138v111h949v-463h-160q-12 174 -36 248t-60.5 92.5t-124.5 18.5h-176v-512h127v153h170v-426h-170v156h-127v-604h186q109 0 149.5 28.5t55.5 96.5q6 33 16 135l12 129h170v-502h-981z" />
<glyph unicode="F" horiz-adv-x="1099" d="M59 0v109h138v1230h-138v111h949v-463h-160q-12 174 -36 248t-60.5 92.5t-124.5 18.5h-176v-512h127v153h170v-426h-170v156h-127v-604l145 -2v-111h-537z" />
<glyph unicode="G" horiz-adv-x="1095" d="M53 735v34q0 192 42 336q46 157 128 236.5t172 113.5q73 28 152 28q18 0 37 -2q137 -10 247 -101l37 56h119v-455h-156q-8 80 -21 140.5t-40 122t-75 92.5q-45 28 -107 28h-8q-84 -2 -137.5 -63.5t-70 -153.5t-23.5 -201q-3 -52 -3 -101q0 -56 4 -110q0 -626 263 -626h1 q98 0 168 97t84 253v135q-25 4 -44 4q-37 0 -56 -12q-31 -19 -34 -54.5t-9 -80.5h-129v243h479l4 -712h-211v71q-111 -82 -262 -82q-61 0 -117.5 10.5t-138.5 55.5t-140 122t-103.5 225t-51.5 351z" />
<glyph unicode="H" horiz-adv-x="1323" d="M59 0v109h138v1230h-138v111h533v-111h-139v-503h417v503h-139v111h531v-111h-140v-1230h140v-109h-531v109h139v610h-417v-610h139v-109h-533z" />
<glyph unicode="I" horiz-adv-x="649" d="M59 0v109h138v1230h-138v111h531v-111h-137v-1230h137v-109h-531z" />
<glyph unicode="J" horiz-adv-x="983" d="M51 289q2 84 56.5 135t117.5 51q51 0 96.5 -34.5t49.5 -102.5v-7q0 -57 -58 -110q-20 -20 -24 -37q-10 -23 7 -45t54 -20q55 2 90 40t48.5 111.5t16.5 128t3 144.5v805h-137v110h530v-110h-137l-6 -1004q0 -152 -106 -260q-105 -107 -252 -107h-5q-133 2 -241 99 q-103 95 -103 205v8z" />
<glyph unicode="K" horiz-adv-x="1236" d="M59 0v109h138v1230h-138v111h527v-111h-140v-503q13 -1 26 0q46 0 78 11q42 15 61.5 52t25.5 60.5t10 64.5q2 18 7 81.5t10 96.5q4 51 14 89t37.5 86t85 75t141.5 29h7q121 -1 185 -67q62 -65 62 -154v-11q-2 -70 -41 -109.5t-96 -39.5q-49 2 -87 35.5t-42 89.5 q0 43 14 67q2 2 7 13.5t7 17.5q4 12 3 18q-6 16 -31 17q-27 2 -45.5 -15.5t-26.5 -47t-14 -68.5t-6 -78t-2 -76q-4 -117 -29 -166q-37 -82 -131 -116q8 -2 23.5 -7.5t21.5 -7.5q49 -14 67 -22q109 -43 154 -152.5t64 -341.5q4 -86 28 -115q33 -36 98 -36q16 0 33 2v-111 q-77 -30 -137 -30q-10 0 -20 1q-49 2 -89 13.5t-68 30t-49.5 45t-34.5 59.5t-23.5 71.5t-15.5 80.5t-9 88.5t-8 95.5q-14 129 -43 174q-30 45 -88 73q-41 19 -89 19q-21 0 -45 -4v-608h140v-109h-527z" />
<glyph unicode="L" horiz-adv-x="1087" d="M59 0v109h138v1230h-138v111h531v-104h-139v-1233h186q109 0 148.5 28.5t56.5 96.5q6 33 16 135l12 129h170v-502h-981z" />
<glyph unicode="M" horiz-adv-x="1632" d="M59 0v109h138v1230h-138v111h533l215 -926l231 926h533v-111h-139v-1230h139v-109h-533v109h140v1243l-330 -1352h-141l-324 1352v-1243h139v-109h-463z" />
<glyph unicode="N" horiz-adv-x="1492" d="M59 0v109h138v1230h-138v111h379l641 -1016v899h-133v117h447v-111h-140v-1230h140v-109l-361 -6l-667 1087v-972h139v-109h-445z" />
<glyph unicode="O" horiz-adv-x="1179" d="M59 723q0 174 34 311t87 219t125 135.5t141.5 73t143.5 19.5t142.5 -19.5t140 -73t125 -135.5t87 -219t33.5 -311q0 -215 -49 -370.5t-132 -234.5t-168 -113t-179 -34q-74 0 -142.5 19.5t-141.5 72t-126 133t-87 217t-34 310.5zM340 723q0 -80 1 -133t6 -128t15.5 -124 t29 -104.5t44 -88t65.5 -53t91 -20.5t91 23.5t65.5 55t43 91t26.5 104.5t13.5 125t5.5 124t1 128t-1 129t-5.5 125t-13.5 126t-26.5 105.5t-43 91t-65.5 55t-91 23.5t-91 -21.5t-65.5 -54t-44 -88t-29 -104.5t-15.5 -125t-6 -129t-1 -133z" />
<glyph unicode="P" horiz-adv-x="1138" d="M59 0v109h138v1230h-138v111h430h77t81.5 -3t91 -9t84 -20.5t86 -34t68.5 -52.5t60.5 -73.5t36 -99t16.5 -128.5v-12q0 -104 -34 -180q-36 -80 -86 -121t-123 -65.5t-125 -31t-114 -6.5h-155v-505h137v-109h-531zM453 729q43 -11 80 -11q10 0 20 1q45 4 80 9t61.5 25.5 t45 38t30.5 46t19.5 50t10.5 52.5t4 50.5t1 43.5q0 55 -2 91t-20.5 90.5t-53.5 82.5q-35 30 -105 46q-38 9 -85 8q-40 0 -86 -6v-617z" />
<glyph unicode="Q" horiz-adv-x="1210" d="M59 723q0 174 34 311t87 219t125 135.5t141.5 73t143.5 19.5t142.5 -19.5t140 -73t125 -135.5t87 -219t33.5 -315q0 -425 -198 -619v-6q96 -72 110 -84q37 -37 68 -49q26 -11 48 -11q37 0 66 30l39 -19q-80 -89 -169 -89q-41 0 -83 19q-35 16 -114 82q-41 37 -72 52 q-98 -53 -223 -54q-74 0 -142.5 19.5t-141.5 72t-126 133t-87 217t-34 310.5zM340 723q0 -94 2 -155.5t9 -146.5t23.5 -139.5t43 -106.5t71 -77.5t103.5 -25.5q70 0 121 41l-19 16q-35 35 -71 53q-26 12 -52 12q-33 0 -67 -18l-43 19q41 29 58.5 40t54.5 29q33 15 63 15 q5 0 9 -1q34 -2 69 -20l65 -47q57 135 58 512q0 74 -1 112.5t-3.5 110.5t-9.5 113t-17 98t-28.5 91t-44 67t-61.5 48t-81 15q-51 0 -91 -21.5t-65.5 -54t-44 -88t-29 -104.5t-15.5 -125t-6 -129t-1 -133z" />
<glyph unicode="R" horiz-adv-x="1222" d="M66 0v109h139v1230h-139v111h139h403q27 0 52.5 -1t75.5 -9t91 -21.5t89.5 -41t81 -66.5t54 -99.5t21.5 -136.5q-4 -205 -162 -284q-20 -10 -57 -22.5t-49 -18.5q-25 -6 -57 -17q147 -37 200 -109.5t66 -181.5l20 -190q8 -86 32 -116q21 -26 90 -26q12 0 24 1v-111 q-72 -29 -139 -29q-24 0 -48 4q-63 8 -107 35t-65.5 69t-29 67.5t-13.5 64.5l-30 252q-8 51 -21.5 87t-43.5 72t-87 52q-41 11 -95 12q-21 0 -44 -2v-575h139v-109h-530zM457 801q39 -5 74 -5q49 0 89 10q70 17 103 47t51.5 78t21.5 75.5t3 62.5v40t-3 45t-10.5 47.5 t-18.5 46t-28.5 41t-43 33.5t-59.5 22.5t-79 8.5q-11 1 -23 1q-36 0 -77 -11v-542z" />
<glyph unicode="S" horiz-adv-x="1050" d="M59 317q-1 83 45 133q44 49 104 48h5q55 0 97 -42t44 -106q0 -70 -41 -121q-12 -10 -18 -20q-6 -12 -6 -23q1 -34 63 -72q58 -36 120 -36h7q53 2 91 10t79 30.5t61.5 71.5t20.5 125q0 92 -25.5 152.5t-53 87.5t-106.5 81t-128 97q-45 37 -86 72t-75 66.5t-60.5 63.5 t-45 63.5t-27.5 67.5t-9 77q1 137 107 241q104 103 281 103h7q160 0 268 -88l25 57h127v-428l-152 -2q-4 72 -14 127t-32.5 107.5t-68 80t-108.5 27.5q-78 0 -127 -35t-64.5 -73.5t-17.5 -81.5q0 -47 24.5 -86t51.5 -61.5t102.5 -76t120.5 -88.5q184 -143 263 -247.5 t81 -229.5v-6q0 -197 -135 -305q-132 -107 -339 -107h-15q-223 2 -333 107.5t-108 238.5z" />
<glyph unicode="T" horiz-adv-x="1118" d="M49 975v475h1016v-475h-156q-4 59 -12 115q-8 57 -10 73q-14 96 -37 125q-48 60 -128 60q-22 0 -46 -5v-1234h139v-109h-514v109h139v1234q-24 4 -46 4q-81 0 -128 -59q-23 -29 -37 -125q-8 -51 -10 -73q-6 -37 -10 -115h-160z" />
<glyph unicode="U" horiz-adv-x="1400" d="M66 1339v111h528v-111h-139l2 -880q0 -96 6 -152.5t30.5 -116t79 -86t142.5 -26.5q72 0 120 21.5t72.5 48t36.5 86t14.5 99.5t2.5 126l-3 887h-139v110h529v-110h-140l2 -826q0 -252 -140 -395t-357 -148h-11q-216 0 -358 149q-144 151 -143 393v7l4 813h-139z" />
<glyph unicode="V" horiz-adv-x="1378" d="M41 1343v107h545v-107h-131l280 -976l266 976h-131v107h469v-107h-139l-422 -1343h-162l-438 1343h-137z" />
<glyph unicode="W" horiz-adv-x="2125" d="M72 1343v107h544v-107h-131l281 -976l209 774l-66 202h-137v107h545v-107h-131l280 -976l267 976h-131v107h469v-107h-140l-422 -1343h-161l-275 842l-264 -842h-162l-438 1343h-137z" />
<glyph unicode="X" horiz-adv-x="1333" d="M41 0v109h135l350 655l-311 577h-135v109h547v-109h-138l187 -358l178 358h-137v109h463v-109h-136l-270 -530l381 -702h137v-109h-551v109h138l-258 475l-250 -475h137v-109h-467z" />
<glyph unicode="Y" horiz-adv-x="1378" d="M41 1343v107h545v-107h-146l289 -542l291 542h-150v107h469v-107h-139l-373 -735v-499h138v-109h-531v109h137v503l-393 731h-137z" />
<glyph unicode="Z" horiz-adv-x="1333" d="M45 0v109h94l666 1232l-268 -4q-92 -2 -144.5 -16t-80 -54t-35 -84t-11.5 -132h-112l-2 198q-2 100 -2 150.5t2 50.5h1026v-109h-99l-663 -1232h409q248 0 252 366h119l2 -475h-1153z" />
<glyph unicode="[" horiz-adv-x="798" d="M145 -375v1825h506v-111h-254v-1605h254v-109h-506z" />
<glyph unicode="\" horiz-adv-x="802" d="M0 1524l72 26l731 -1734l-70 -31z" />
<glyph unicode="]" horiz-adv-x="798" d="M145 -266h254v1605h-254v111h506v-1825h-506v109z" />
<glyph unicode="^" horiz-adv-x="628" d="M27 1165l286 285l287 -285h-145l-142 140l-139 -140h-147z" />
<glyph unicode="_" horiz-adv-x="999" d="M0 -256h999v-82h-999v82z" />
<glyph unicode="`" horiz-adv-x="462" d="M80 1110q-7 195 151 371l121 -58q-27 -33 -65.5 -105.5t-32.5 -96.5q4 -14 14 -21q4 -4 45 -18q31 -14 51.5 -50t20.5 -75q-2 -59 -50 -102.5t-105.5 -41.5t-102.5 48.5t-47 148.5z" />
<glyph unicode="a" horiz-adv-x="835" d="M49 201v10q-1 127 103 231q108 108 340 150v201q0 79 -97 79h-2h-7q-76 0 -87 -45q-2 -8 6 -41q12 -29 12 -34q6 -18 2 -47q-11 -41 -43 -68q-30 -25 -69 -25h-6q-49 2 -80 41q-27 35 -27 82v13q4 94 100 166q93 70 219 69h7q31 0 62.5 -6t73.5 -24.5t72.5 -47t53.5 -82 t23 -123.5v-487q0 -39 2 -61q0 -39 12 -56q21 -15 51 -15q7 0 14 1v-88q-76 -16 -116 -17q-127 2 -176 105q-90 -100 -209 -105h-5q-77 -1 -150 57q-75 60 -79 167zM258 256q-3 -20 -3 -37q0 -19 4 -35q7 -30 24.5 -42.5t31 -17.5t25.5 -7h8q48 0 94 41q50 45 50 131v188 q-80 -14 -150 -66.5t-84 -154.5z" />
<glyph unicode="b" horiz-adv-x="970" d="M61 0v109h115v1257q2 -2 -25.5 -3t-56.5 -1h-26v98q246 10 321 19v-525q74 33 146 33q182 0 288.5 -141t106.5 -362.5t-106.5 -361.5t-288.5 -140q-63 0 -119 18h-355zM373 414q0 -35 1 -70t5 -68.5t10 -62.5t18.5 -53.5t29 -42t41 -27.5t54.5 -10q37 0 65 14.5t45 31.5 t29.5 55t18.5 62.5t9 79t3 77v84v84t-3 77.5t-9 80t-18.5 62.5t-29.5 55t-45 32t-65 14.5q-31 0 -55 -10.5t-40.5 -27.5t-29 -42t-18.5 -54.5t-10 -62.5t-5 -67.5t-1 -70.5v-70.5v-69.5z" />
<glyph unicode="c" horiz-adv-x="811" d="M49 471q2 147 37 252.5t93.5 158t113.5 75t117 26.5q13 1 25 0q124 0 205 -72q89 -80 95 -180v-13q1 -57 -31 -98q-36 -45 -94 -47h-6q-49 0 -83 34q-36 36 -36 81q0 33 17 55q2 4 14 19.5t16 25.5q2 7 2 15q0 25 -22 48q-24 26 -68 26h-12q-53 -2 -87 -41t-47 -110 t-15 -124t-2 -133q0 -55 1 -73.5t4 -70t8 -73t16.5 -59t27.5 -54t40.5 -31t57.5 -16.5h8q69 0 113 66q20 31 35 129q2 6 2 21.5t2 23.5h147v-19q0 -43 -7 -85q-9 -52 -37.5 -111.5t-94 -97t-164.5 -42.5h-20q-176 1 -272 133q-100 138 -99 352v9z" />
<glyph unicode="d" horiz-adv-x="970" d="M45 471q0 221 106.5 362.5t288.5 141.5q72 0 146 -33v420q4 -4 -51 -6h-56v98q252 10 320 16v-1374h114v-108h-354q-55 -18 -119 -19q-182 0 -288.5 140.5t-106.5 361.5zM272 387.5q0 -22.5 3.5 -77t9.5 -79t18 -62.5t29.5 -55.5t45 -31.5t64.5 -14q31 0 55.5 10t41 27.5 t29 42t18.5 53t10 62.5t5 69t1 69.5v69.5v71t-1 70.5t-5 67.5t-10 62.5t-18.5 54t-29 42t-41 28t-55.5 10.5q-37 0 -64.5 -14.5t-45 -32t-29.5 -55.5t-18 -62.5t-9.5 -79.5t-3.5 -78v-84v-83.5z" />
<glyph unicode="e" horiz-adv-x="786" d="M49 418v33q0 135 29 237q33 116 89 177t116.5 89.5t122.5 28.5h4q147 1 248 -143q83 -119 83 -309q0 -43 -4 -89h-456q-1 -28 -1 -53q0 -295 148 -297h4q60 0 106 54q46 56 46 171h153q-4 -178 -98 -260q-92 -80 -225 -80h-6q-160 4 -256.5 119t-102.5 322zM281 541h251 q1 23 1 45q1 138 -33 208q-38 80 -94 83h-4q-58 1 -89 -57q-32 -60 -32 -135v-144z" />
<glyph unicode="f" horiz-adv-x="731" d="M18 860v101h129v231q0 131 84 249t234 138q20 3 38 3q63 0 115 -36q66 -47 80 -133q3 -16 3 -31q0 -42 -21 -72q-29 -40 -74 -46q-8 -1 -17 -1q-33 0 -63 19q-37 25 -47 74q0 74 10 88l15 20q0 4 -2 12.5t-2 12.5l-11 4q-10 4 -18 4q-47 0 -65 -29q-23 -25 -31 -41 t-9 -26t-1 -51q0 -23 -1.5 -105t-1.5 -108v-176h232v-101h-232l-2 -768h97l-2 -100h-394v90h86v778h-129z" />
<glyph unicode="g" horiz-adv-x="884" d="M49 479q0 102 21.5 186.5t52.5 134.5t76 88t80.5 55.5t76.5 27.5t56.5 11t27.5 1q102 0 181 -47v55q10 0 27.5 -4t25.5 -4q14 0 42.5 -8t41.5 -8q106 -18 153 -19v-96h-80v-858q0 -117 -43 -204t-107.5 -129t-121.5 -60.5t-104 -18.5q-55 0 -110.5 12.5t-116 41t-99.5 88 t-41 141.5l209 2q10 -123 42 -159t116 -36q86 0 134 101.5t48 271.5q-94 -68 -197 -68q-180 0 -285.5 140.5t-105.5 361.5zM279 409.5q0 -34.5 1 -69.5t5 -68.5t10 -62.5t18.5 -53.5t28.5 -42t41 -27.5t55 -10q37 0 64.5 14t45 31.5t30 55.5t18.5 62.5t9 79t3 77v84v84 t-3 77.5t-9 79.5t-18.5 62.5t-30 55.5t-45 32t-64.5 14.5q-31 0 -55.5 -10.5t-40.5 -28t-28.5 -42t-18.5 -54t-10 -62.5t-5 -67.5t-1 -70.5v-71v-69.5z" />
<glyph unicode="h" d="M31 1374v99q252 10 319 16q4 -2 4 -110q0 -71 -2 -189l-2 -295q110 68 222 68h6q217 -4 217 -291v-586h84v-90h-383v90h88v608q2 23 0 46.5t-7.5 44t-25 37t-53.5 24.5q-13 3 -27 3q-51 0 -121 -40v-723h88v-90h-389v90h88v1294q4 -4 -51 -4z" />
<glyph unicode="i" horiz-adv-x="522" d="M66 858l2 100h393v-90h-86v-778h86v-90h-387v90h86l2 768h-96zM135 1264q0 59 43 100t101 41q59 0 100 -42t41 -99.5t-41 -99.5t-100 -42q-61 0 -102.5 42.5t-41.5 99.5z" />
<glyph unicode="j" horiz-adv-x="694" d="M27 -285q-3 16 -3 31q0 43 22 72q28 41 73 47q8 1 17 1q33 0 63 -20q37 -24 47 -73q2 -19 2 -34q0 -39 -12 -54q-14 -18 -15 -21q-4 -14 4 -24q8 -8 29 -9q51 4 65 29q20 23 31.5 48.5t15 43t7.5 58.5q1 7 1 22q0 37 -8 120q-10 116 -10 132l2 768h-96l2 100h393v-90h-86 v-778q0 -201 -79.5 -356.5t-231.5 -178.5q-20 -3 -38 -3q-63 0 -114 36q-67 47 -81 133zM332 1257q0 59 43 100.5t100 41.5q59 0 100 -42t41 -99.5t-40.5 -99.5t-100.5 -42q-61 0 -102 42t-41 99z" />
<glyph unicode="k" horiz-adv-x="923" d="M31 1374v99q242 10 313 16l2 -979l1 -1q17 0 81 82q66 83 123 167l57 84h-90v92h342v-92h-86l-262 -338q80 -29 109.5 -42t74.5 -44t65.5 -75t33.5 -112q2 -16 2 -46.5t4 -50t18 -28.5q18 -15 52 -15q10 0 22 1v-92q-61 -23 -131 -23q-33 0 -50.5 4.5t-48 26t-57 78.5 t-49.5 152q-29 104 -45 133q-25 52 -115 52q-23 0 -51 -3v-330h84v-90h-381v90h84v1288z" />
<glyph unicode="l" horiz-adv-x="704" d="M121 -4v108h115v1258h-107v86q240 10 320 22v-1366h110v-108h-438z" />
<glyph unicode="m" horiz-adv-x="1357" d="M25 852v86q143 6 327 23l-2 -66q111 68 228 68q104 0 161 -68q95 72 218 72q28 0 57 -4q76 -10 124 -43t66.5 -84.5t22.5 -84t4 -79.5v-586h84v-90h-383v90h88v608q2 23 0 46.5t-7 44t-24.5 37t-54.5 24.5q-6 1 -13 1q-26 0 -69 -16l-57 -18v-141v-586h84v-90h-383v90h88 v608q2 23 0 46.5t-7.5 44t-25 37t-53.5 24.5q-13 3 -27 3q-51 0 -121 -40v-723h88v-90h-389v90h88v776z" />
<glyph unicode="n" d="M25 852v86q143 6 327 23l-2 -66q110 68 222 68h6q217 -4 217 -291v-586h84v-90h-383v90h88v608q2 23 0 46.5t-7.5 44t-25 37t-53.5 24.5q-13 3 -27 3q-51 0 -121 -40v-723h88v-90h-389v90h88v770z" />
<glyph unicode="o" horiz-adv-x="884" d="M49 479q0 102 21.5 186.5t52.5 134.5t76 88t80.5 55.5t76.5 27.5t56.5 11t27.5 1q182 0 289 -141.5t107 -362.5t-106.5 -361.5t-289.5 -140.5q-180 0 -285.5 140.5t-105.5 361.5zM279 409.5q0 -34.5 1 -69.5t5 -67.5t10 -62.5t18.5 -54.5t28.5 -42t41 -27.5t55 -10 q37 0 64.5 13t45 30.5t30 56.5t18.5 62.5t9 79t3 78v83.5q0 70 -1 98.5t-4 90t-14 89t-28.5 63.5t-48.5 50.5t-74 14.5q-31 0 -55.5 -10.5t-40.5 -28t-28.5 -42t-18.5 -54t-10 -62.5t-5 -67.5t-1 -70.5v-71v-69.5z" />
<glyph unicode="p" horiz-adv-x="915" d="M49 -287h86v1139h-80v96q59 2 154 19q49 12 84 16q8 0 25.5 3t27.5 5v-139q80 121 197 131q11 1 21 1q109 0 203 -112q99 -117 99 -377v-20q-2 -121 -25.5 -214t-57 -145.5t-77.5 -85t-82 -43t-75 -10.5q-125 0 -203 109v-373h86v-90h-383v90zM354 485q-1 -18 -1 -38 q0 -39 3 -85q4 -67 12.5 -126.5t40 -99.5t85.5 -40h7q51 0 91 56q31 41 35 157q0 20 2 56t3 65.5t1 54.5q0 27 -2 85.5t-2 88.5q-4 115 -33 150q-36 47 -88 47h-8q-41 -2 -70 -28.5t-43 -60.5t-22.5 -90t-9.5 -94t-1 -98z" />
<glyph unicode="q" horiz-adv-x="915" d="M57 481v20q0 259 99 377q95 112 204 112q10 0 21 -1q117 -10 197 -131v139q10 -2 27.5 -5t25.5 -3q35 -4 84 -16q94 -16 153 -19v-96h-80v-1139h86v-90h-382v90h86v373q-77 -108 -201 -108h-2q-37 0 -75 10t-82 43t-78 85t-57.5 145t-25.5 214zM291 492q0 -25 1 -54.5 t3 -65.5t2 -57q4 -117 35 -157q41 -56 93 -56h5q53 0 85 40t40 99.5t12 126.5q3 46 3 85q0 20 -1 39q0 59 -1 97t-9 94t-22.5 90t-43 60.5t-69.5 28.5h-8q-52 0 -88 -47q-29 -34 -33 -149q0 -31 -2 -89.5t-2 -84.5z" />
<glyph unicode="r" d="M49 -4v90h88v770l-82 -4v96q59 2 154 19q49 12 84 16q8 0 25.5 3t27.5 5h1q3 0 3 -45v-51q110 68 222 68h6q217 -4 217 -291v-88h-211v110q2 23 0 46.5t-7.5 44t-25 37t-53.5 24.5q-13 3 -27 3q-51 0 -121 -40v-723h88v-90h-389z" />
<glyph unicode="s" horiz-adv-x="796" d="M53 244q2 61 37 96t82 35t81 -32t34 -85q-2 -29 -19 -57q-14 -18 -16 -27q-12 -16 -4 -35q4 -23 36.5 -41t84.5 -18q61 0 107 43q42 40 42 83v7q-2 43 -32.5 76t-107.5 82t-93 61q-70 51 -110 87t-73.5 95.5t-33.5 122.5q2 106 87 176q80 66 181 66h12q111 -4 187 -86v61 h131v-311h-131q-2 41 -11.5 82t-43.5 86t-87 53q-22 3 -40 3q-101 0 -101 -93q0 -31 15.5 -59.5t49 -58t53 -43t58.5 -40t79 -52t78 -57.5t66.5 -62.5t47 -67.5t20.5 -76v-10q-1 -125 -93 -197q-90 -69 -226 -69h-19q-162 2 -247 80q-81 75 -81 173v9z" />
<glyph unicode="t" horiz-adv-x="798" d="M104 866v101h129l3 376h-89v97q104 4 154 12q14 4 45 6t39 4q4 0 17.5 5.5t20.5 6.5h3q8 0 23 -4v-2v-2v-2v-2v-2v-2v-2v-2v-2v-2v-2v-2v-2v-2v-2v-2v-2v-2v-2v-2v-3v-2v-2v-2v-2v-2v-2v-2v-2v-2v-2v-2v-2v-2v-2v-2v-2v-2v-2v-2v-3v-2v-2v-2v-2v-2v-2v-2v-4v-2v-2v-2v-2 v-2v-2v-2v-4v-2v-2v-3v-2v-4v-2v-2v-2v-2v-4v-2v-2v-4v-2v-2v-2v-4v-2v-2v-5v-2v-2v-4v-2v-2v-4v-2v-2v-4v-2v-4v-2v-2v-4v-3v-4v-2v-2v-4v-2v-4v-2v-4v-2v-4v-2v-4v-2v-5v-2v-4v-2v-4v-2v-4v-2v-4v-4v-2v-4v-2v-4v-3v-4v-4v-2v-4v-2v-4v-4v-2v-4v-4v-2v-5v-4v-2v-4v-4v-2 v-4v-4v-2v-4v-4v-4v-2v-5v-4v-2v-4v-4v-4v-4v-2v-4v-4v-4v-2v-5v-4v-4v-4v-2v-4v-4v-4v-4v-4v-2v-5v-4v-4v-4v-4v-18h231v-101h-231v-657q0 -55 104 -74q7 -1 16 -2q29 0 70 17l53 20l60 -92l-33 -29q-33 -27 -105 -49q-45 -14 -93 -15q-28 0 -56 5q-102 14 -168 70.5 t-66 152.5l2 653h-129z" />
<glyph unicode="u" d="M31 840v90q59 2 153 18q14 4 45 6t39 4q2 0 15.5 5.5t26 4.5t28.5 -10l-2 -698q-2 -23 0 -46.5t7 -43.5t24.5 -36.5t54.5 -24.5q13 -3 27 -3q51 0 120 39l4 695h-94v96q104 4 154 12q14 4 45 6t39 4q4 0 17.5 5.5t20.5 6.5h3q7 0 22 -3l2 -875h88v-92h-297l-4 59 q-108 -67 -218 -67h-9q-217 4 -217 291v557h-94z" />
<glyph unicode="v" horiz-adv-x="929" d="M41 860v98h389v-98h-74l187 -561l159 561h-88v98h316v-98h-68l-254 -862l-149 -6l-336 868h-82z" />
<glyph unicode="w" horiz-adv-x="1468" d="M41 860v98h389v-98h-74l187 -561l159 561h-88v98h316v-98h-68l-4 -12l182 -549l160 561h-88v98h315v-98h-67l-254 -862l-150 -6l-198 514l-150 -508l-149 -6l-336 868h-82z" />
<glyph unicode="x" horiz-adv-x="946" d="M41 0v100h72l252 381l-222 385h-77v92h391v-92h-92l133 -235l129 235h-90v92h342v-92h-86l-226 -338l260 -428h78v-100h-393v100h82l-158 265l-143 -265h72v-100h-324z" />
<glyph unicode="y" horiz-adv-x="929" d="M41 860v98h389v-98h-74l187 -561l159 561h-88v98h316v-98h-68l-248 -825q-23 -76 -37 -120t-43.5 -107.5t-61.5 -98.5t-83 -61q-47 -23 -106 -23h-9q-88 2 -145 61q-55 56 -55 138v6q2 63 36 98q33 33 73 33h5q43 0 76 -31.5t33 -81.5q0 -61 -25 -84q-2 -4 -8 -9t-8 -9 q-6 -8 0 -25q6 -12 27 -12h8q30 0 51 25q45 35 84 168q29 109 33 133l-336 825h-82z" />
<glyph unicode="z" horiz-adv-x="946" d="M43 0v100h68l462 766l-276 2q-81 -12 -113 -58q-30 -43 -30 -129v-11h-95v288h795v-92h-59l-451 -766h318q143 4 143 228v12h92v-340h-854z" />
<glyph unicode="{" horiz-adv-x="612" d="M94 680v70q170 18 162 301q-4 86 -4 127q-8 307 256 346l8 -60q-121 -20 -131 -164q-4 -49 2 -83l6 -89v-94q-6 -115 -55.5 -191.5t-155.5 -127.5q106 -51 155.5 -128t55.5 -192v-94l-6 -86q-6 -39 -2 -86q10 -139 131 -160l-8 -59q-264 37 -256 342q0 43 4 125 q8 287 -162 303z" />
<glyph unicode="|" horiz-adv-x="274" d="M94 -264v1814h84v-1814h-84z" />
<glyph unicode="}" horiz-adv-x="612" d="M94 -31q123 20 135 160q2 29 -2 86l-6 86q-2 31 -2 94q6 115 55.5 192t155.5 128q-106 51 -155.5 128t-55.5 191q0 63 2 94q0 16 3 50t3 39q4 53 2 83q-12 143 -135 164l10 60q266 -39 258 -346q-4 -86 -4 -127q-8 -283 158 -301v-70q-166 -16 -158 -303q0 -39 4 -125 q8 -305 -258 -342z" />
<glyph unicode="~" horiz-adv-x="774" d="M94 1278q23 37 29 48t29.5 42t41 41t46 21.5t61.5 9.5q35 0 152 -35q53 -16 84 -16q71 0 96 61h43q-55 -166 -203 -166q-39 0 -137 29q-51 18 -88 20q-61 0 -107 -55h-47z" />
<glyph unicode="&#xa2;" horiz-adv-x="811" d="M49 471q0 131 27.5 229.5t76 153.5t98.5 84t107 39v438h84l-2 -432q129 0 209 -79t86 -173q0 -68 -33.5 -113t-91.5 -45q-53 0 -89 35t-36 80q0 33 17 55q2 4 16 19.5t14 25.5q8 31 -16 60t-74 29v-785q72 0 115 66q35 53 35 129q0 8 2 22.5t2 22.5h147q0 -43 -4 -82 t-22.5 -90t-49 -88t-90 -64.5t-137.5 -30.5l2 -376h-84v381q-152 25 -230.5 158.5t-78.5 330.5zM281 469q0 -90 2 -140t20 -116.5t55 -95.5v729q-37 -33 -55 -106.5t-20 -127t-2 -143.5z" />
<glyph unicode="&#xa5;" horiz-adv-x="1378" d="M41 1343v107h545v-107h-146l277 -518h24l279 518h-150v107h469v-107h-139l-262 -518h205v-147h-281l-35 -70v-119h316v-147h-316v-233h138v-109h-531v109h137v233h-335v147h335v123l-34 66h-301v147h221l-279 518h-137z" />
<glyph unicode="&#xa9;" horiz-adv-x="1282" d="M37 723q0 244 173 425t431 181t430 -180t172 -426q0 -242 -173 -422t-429 -180q-258 0 -431 179t-173 423zM109 723q0 -213 152.5 -371.5t379.5 -158.5q213 0 371.5 152.5t158.5 377.5q0 227 -158.5 380.5t-371.5 153.5q-215 0 -373.5 -153.5t-158.5 -380.5zM340 717 q0 135 81 239.5t226 106.5q115 0 213 -72l33 58h39v-246h-51q-8 90 -68.5 150.5t-142.5 62.5q-98 2 -154.5 -83t-58.5 -212q-2 -119 51 -202t166 -85q102 -2 154.5 57.5t60.5 137.5h51q-2 -27 -12 -56.5t-37 -76.5t-88.5 -78t-147.5 -31q-154 0 -234.5 99.5t-80.5 230.5z " />
<glyph unicode="&#xab;" horiz-adv-x="882" d="M41 512l268 389h189l-265 -389l265 -387h-189zM391 512l271 389h180l-260 -389l260 -387h-180z" />
<glyph unicode="&#xad;" horiz-adv-x="468" d="M59 422v168h349v-168h-349z" />
<glyph unicode="&#xae;" horiz-adv-x="722" d="M94 1183.5q0 112.5 81 189.5t187.5 77t186.5 -77t80 -189.5t-80 -189t-186.5 -76.5t-187.5 76.5t-81 189zM131 1183.5q0 -98.5 68.5 -164t162.5 -65.5q92 0 161 65.5t69 164t-68.5 164t-161.5 65.5q-94 0 -162.5 -65.5t-68.5 -164zM227 1051v32h23q12 0 15 2t5 15v12v6 v133v6v11q-2 14 -5 16t-15 2h-23v33h191q82 0 82 -59q2 -31 -22.5 -49.5t-61.5 -20.5v-2q27 0 39 -10.5t14 -19.5t2 -25v-25v-14q0 -14 16 -15q12 0 13 23v18h20v-18q0 -10 -1 -18.5t-14 -20.5t-40 -12q-63 0 -68 51v20v27v12q-2 4 -6 8q-4 2 -16 2l-4 3h-39v-56v-6v-12 q0 -12 3 -14.5t19 -2.5h19v-32h-146zM332 1204h41q51 0 51 39q0 43 -51 43h-41v-82z" />
<glyph unicode="&#xbb;" horiz-adv-x="882" d="M41 125l256 387l-256 389h178l273 -389l-273 -387h-178zM385 125l262 387l-262 389h186l271 -389l-271 -387h-186z" />
<glyph unicode="&#x401;" horiz-adv-x="1099" d="M59 0v109h138v1230h-138v111h949v-463h-160q-12 174 -36 248t-60.5 92.5t-124.5 18.5h-176v-512h127v153h170v-426h-170v156h-127v-604h186q109 0 149.5 28.5t55.5 96.5q6 33 16 135l12 129h170v-502h-981zM178 1638q-2 53 38 98.5t91 47.5q55 2 100.5 -42t45.5 -97 q0 -51 -43 -95.5t-94.5 -44.5t-93.5 41t-44 92zM631 1638.5q-2 51.5 39 97.5t92 48t97 -42t46 -97q0 -51 -43 -95.5t-96 -44.5q-49 0 -91 41t-44 92.5z" />
<glyph unicode="&#x404;" horiz-adv-x="1083" d="M49 772q0 166 30 293t74 202.5t107.5 124t121.5 67t124 22.5q80 6 145.5 -17.5t155.5 -77.5l31 62h123v-457h-154q-10 86 -26.5 148.5t-47.5 125t-86 88t-131 7.5q-96 -27 -150.5 -163t-31.5 -363h414v-115h-414q-10 -600 268 -619q80 -6 142.5 46.5t56.5 97.5 q-4 14 -17 26q-4 6 -26 29q-31 37 -31 100q0 53 36 97.5t103 46.5q66 4 110 -40t50 -120q12 -172 -132 -296t-329 -116q-63 2 -122.5 17.5t-134.5 66.5t-129 133t-92 233.5t-38 350.5z" />
<glyph unicode="&#x405;" horiz-adv-x="1050" d="M59 317q0 82 45.5 132.5t108.5 48.5q55 0 97 -42t44 -106q0 -70 -41 -121q-12 -10 -18 -20q-6 -12 -6 -23q2 -35 63.5 -72.5t126.5 -35.5q53 2 91 10t79 30.5t61.5 71.5t20.5 125q0 92 -25.5 152.5t-53 87.5t-106.5 81t-128 97q-45 37 -86 72t-75 66.5t-60.5 63.5 t-45 63.5t-27.5 67.5t-9 77q2 137 107.5 241.5t287.5 102.5q160 0 268 -88l25 57h127v-428l-152 -2q-4 72 -14 127t-32.5 107.5t-68 80t-108.5 27.5q-78 0 -127 -35t-64.5 -73.5t-17.5 -81.5q0 -47 24.5 -86t51.5 -61.5t102.5 -76t120.5 -88.5q184 -143 263 -247.5 t81 -229.5q2 -201 -135 -311.5t-354 -106.5q-223 2 -333 107.5t-108 238.5z" />
<glyph unicode="&#x406;" horiz-adv-x="620" d="M45 0v109h137v1230h-137v111h528v-111h-139v-1230h139v-109h-528zM170 1640q0 59 41 99.5t96 40.5t96 -40t41 -100q0 -55 -38.5 -96t-98.5 -41q-55 0 -96 40t-41 97z" />
<glyph unicode="&#x407;" horiz-adv-x="847" d="M59 1638q-2 53 39 98.5t92 47.5q53 2 98.5 -42t45.5 -97q0 -51 -43 -95.5t-94.5 -44.5t-93.5 41t-44 92zM158 0v109h139v1230h-139v111h528v-111h-137v-1230h137v-109h-528zM512 1638.5q-2 51.5 39 97.5t92 48t97 -42t46 -97q0 -51 -43 -95.5t-96 -44.5q-49 0 -91 41 t-44 92.5z" />
<glyph unicode="&#x408;" horiz-adv-x="983" d="M51 289q2 84 56.5 135t117.5 51q51 0 96.5 -34.5t49.5 -102.5q4 -61 -58 -117q-20 -20 -24 -37q-10 -23 7 -45t54 -20q55 2 90 40t48.5 111.5t16.5 128t3 144.5v805h-137v110h530v-110h-137v-1010q0 -150 -108.5 -257.5t-260.5 -103.5q-135 2 -241.5 99.5t-102.5 212.5z " />
<glyph unicode="&#x40e;" horiz-adv-x="1282" d="M41 1337v113h526v-113h-131l309 -682l232 682h-131v113h436v-113h-104l-367 -989q-61 -168 -145 -269.5t-222 -107.5q-125 -8 -218 82t-91 221q2 80 46 124t100 46q59 4 103 -41t48 -102q4 -47 -16 -86q-6 -8 -19.5 -25.5t-19.5 -27.5q-6 -14 -6 -33q4 -18 20.5 -33.5 t42.5 -15.5q45 0 87 51t62.5 98t45.5 119l-471 989h-117zM268 1636q-6 47 36 82t118 33q55 -2 93 -28.5t32 -73.5q0 -20 2 -25q0 -18 123 -18q121 0 121 18q4 6 4 25q-6 47 31.5 73.5t93.5 28.5q76 2 117.5 -33t35.5 -82q-12 -86 -170 -106q-27 -4 -76 -6t-65 -4 q-31 -2 -92.5 -2t-91.5 2q-16 2 -65.5 4t-76.5 6q-158 20 -170 106z" />
<glyph unicode="&#x410;" horiz-adv-x="1361" d="M41 0v104h106l394 1371h241l408 -1371h133v-104h-541v104h142l-74 261h-432l-70 -261h137v-104h-444zM451 481h364l-188 686z" />
<glyph unicode="&#x411;" horiz-adv-x="1142" d="M59 0v109h138v1230h-138v111h893v-424h-149q0 4 -5 30.5t-7 41.5q-14 104 -23 135q-18 57 -51 82.5t-107 25.5h-159v-495q45 2 131 -2q186 -8 262 -39q223 -88 237 -361q6 -113 -24.5 -197.5t-76.5 -129.5t-108.5 -74t-108.5 -36t-89 -7h-615zM451 115q74 -12 131 -8 t94 20t63.5 43t37.5 59.5t19.5 68.5t6.5 73t0 69q-2 63 -7 100.5t-24.5 82.5t-55.5 66.5t-102.5 33.5t-162.5 4v-612z" />
<glyph unicode="&#x412;" horiz-adv-x="1150" d="M59 0v109h138v1230h-138v111h555q184 0 305 -90t119 -258q0 -131 -70.5 -199.5t-205.5 -116.5q154 -23 245 -131t85 -272q-4 -106 -46 -184t-91.5 -115t-117 -57.5t-101.5 -23.5t-68 -3h-609zM457 115q109 -12 179.5 2t106 56t49 93t13.5 131q0 201 -75 278t-273 46v-606 zM457 842q61 -12 96 -13q250 0 225 328q-4 70 -38.5 116t-82 62.5t-101.5 22.5t-99 -6v-510z" />
<glyph unicode="&#x413;" horiz-adv-x="1005" d="M59 0v109h138v1230h-138v111h904v-467h-150l-6 45q-14 135 -25 180q-12 74 -41 99q-33 31 -155 30q-104 0 -135 -4v-1224h139v-109h-531z" />
<glyph unicode="&#x414;" horiz-adv-x="1310" d="M41 119q88 -12 154.5 77t97.5 233t52.5 316.5t20.5 328t-1 265.5h-138v111h977v-111h-137l4 -1220h189v-518h-170q-4 29 -8.5 87t-7.5 85.5t-11 71.5t-22.5 65.5t-36 46.5t-56.5 34t-80 9h-438q-53 0 -92 -17.5t-60.5 -39t-35 -57.5t-16.5 -58.5t-7 -56.5 q-8 -92 -14 -129q0 -6 -2 -20.5t-2 -20.5h-160v518zM408 119h407v1233h-258q-6 -90 -6 -95q-4 -240 -10 -356q-10 -172 -33 -319q-18 -123 -80 -385q-10 -45 -20 -78z" />
<glyph unicode="&#x415;" horiz-adv-x="1099" d="M59 0v109h138v1230h-138v111h949v-463h-160q-12 174 -36 248t-60.5 92.5t-124.5 18.5h-176v-512h127v153h170v-426h-170v156h-127v-604h186q109 0 149.5 28.5t55.5 96.5q6 33 16 135l12 129h170v-502h-981z" />
<glyph unicode="&#x416;" horiz-adv-x="1878" d="M49 1249q-2 96 62.5 165t191.5 67q86 -2 143.5 -29t84 -75t37 -85t14.5 -90q2 -14 18 -178q4 -33 7 -54.5t16.5 -52t35 -48t61.5 -28t93 -5.5v503h-139v111h528v-111h-139v-503q66 -6 110 7t64 45t27.5 61.5t11.5 74.5q8 59 16 178q6 53 16.5 90t37 85t84 75t143.5 29 q127 2 191.5 -66.5t62.5 -165.5q-2 -70 -42 -109.5t-95 -39.5q-51 2 -88 35.5t-39 89.5q-4 41 10 67q14 23 16 31q6 8 0 18q-6 16 -26 17q-27 2 -46.5 -15.5t-28.5 -47t-15.5 -68.5t-6.5 -78t-2 -76q-4 -121 -26 -166q-37 -82 -133 -116q6 -2 22 -7.5t27 -7.5q47 -14 65 -22 q109 -43 153 -151.5t62 -342.5q4 -84 31 -115q41 -43 131 -34v-111q-8 -2 -23.5 -5t-23.5 -5q-82 -18 -113 -19q-49 -2 -88 7.5t-67.5 29t-50 48t-35 63.5t-23.5 74.5t-15 82.5t-10.5 88.5t-7.5 90.5q-8 125 -41 174q-31 45 -93 73.5t-142 14.5v-608h139v-109h-528v109h139 v608q-80 14 -141.5 -13.5t-93.5 -74.5q-33 -49 -41 -174q-6 -51 -9.5 -102.5t-12.5 -100.5t-20.5 -92t-33 -79t-50 -61.5t-72.5 -38t-99 -10.5q-31 0 -113 19q-8 2 -23.5 5t-23.5 5v111q90 -8 131 34q20 23 33 115q16 233 60 342t155 152q20 10 65 22q10 2 26.5 7t20.5 8 q-92 33 -133 116q-18 39 -26 166q-2 37 -2 76t-6.5 78t-14.5 68.5t-27.5 47t-46.5 15.5q-23 0 -28 -17q-4 -10 0 -18q2 -8 16 -31q16 -31 12 -67q-4 -55 -40.5 -89t-88.5 -36q-55 0 -95 40t-42 109z" />
<glyph unicode="&#x417;" horiz-adv-x="1050" d="M59 317q0 82 45.5 132.5t108.5 48.5q55 0 97 -42t44 -106q0 -70 -41 -121q-12 -10 -18 -20q-6 -12 -6 -23q2 -35 63.5 -72.5t126.5 -35.5q96 4 163 83t65 228q-2 362 -390 344v109q96 -2 164 15t102.5 44t54 70t24 75.5t4.5 81.5q-6 233 -179 234q-63 0 -108 -27.5 t-67.5 -80t-33 -107.5t-14.5 -127l-151 2v428h127l24 -57q109 88 268 88q182 2 288 -102.5t108 -241.5q2 -123 -82 -219.5t-215 -129.5q147 -37 251.5 -131t106.5 -268q2 -201 -135 -311.5t-354 -106.5q-223 2 -333 107.5t-108 238.5z" />
<glyph unicode="&#x418;" horiz-adv-x="1320" d="M59 0v109h138v1230h-138v111h527v-111h-140v-811l426 736v75h-137v111h527v-111h-140v-1230h140v-109h-527v109h137v854l-426 -727v-127h140v-109h-527z" />
<glyph unicode="&#x419;" horiz-adv-x="1320" d="M59 0v109h138v1230h-138v111h527v-111h-140v-811l426 736v75h-137v111h527v-111h-140v-1230h140v-109h-527v109h137v854l-426 -727v-127h140v-109h-527zM268 1636q-6 47 36 82t118 33q55 -2 93 -28.5t32 -73.5q0 -20 2 -25q0 -18 123 -18q121 0 121 18q4 6 4 25 q-6 47 31.5 73.5t93.5 28.5q76 2 117.5 -33t35.5 -82q-12 -86 -170 -106q-27 -4 -76 -6t-65 -4q-31 -2 -92.5 -2t-91.5 2q-16 2 -65.5 4t-76.5 6q-158 20 -170 106z" />
<glyph unicode="&#x41a;" horiz-adv-x="1236" d="M59 0v109h138v1230h-138v111h527v-111h-140v-503q63 -4 104.5 11t61 52t25.5 60.5t10 64.5q2 18 7 81.5t10 96.5q4 51 14 89t37.5 86t85 75t141.5 29q127 2 192.5 -66.5t61.5 -165.5q-2 -70 -41 -109.5t-96 -39.5q-49 2 -87 35.5t-42 89.5q0 43 14 67q2 2 7 13.5t7 17.5 q4 12 3 18q-6 16 -31 17q-27 2 -45.5 -15.5t-26.5 -47t-14 -68.5t-6 -78t-2 -76q-4 -117 -29 -166q-37 -82 -131 -116q8 -2 23.5 -7.5t21.5 -7.5q49 -14 67 -22q109 -43 154 -152.5t64 -341.5q4 -86 28 -115q41 -45 131 -34v-111q-90 -35 -157 -29q-49 2 -89 13.5t-68 30 t-49.5 45t-34.5 59.5t-23.5 71.5t-15.5 80.5t-9 88.5t-8 95.5q-14 129 -43 174t-87.5 72.5t-134.5 15.5v-608h140v-109h-527z" />
<glyph unicode="&#x41b;" horiz-adv-x="1429" d="M41 256q2 84 56.5 135t117.5 51q51 0 96 -34.5t49 -102.5q4 -61 -57 -117q-20 -20 -24 -36q-10 -23 7 -45.5t54 -20.5q45 2 77 33t48 69.5t25.5 106t11.5 105.5t4 106q0 63 4 186q4 74 4 109v538h-139v111h993v-111h-137v-1230h137v-109h-528v109h137v1245h-277v-639 q0 -66 -12 -193q-14 -211 -35 -286q-72 -276 -317 -265q-125 2 -212 86t-83 199z" />
<glyph unicode="&#x41c;" horiz-adv-x="1632" d="M59 0v109h138v1230h-138v111h533l215 -926l231 926h533v-111h-139v-1230h139v-109h-533v109h140v1243l-330 -1352h-141l-324 1352v-1243h139v-109h-463z" />
<glyph unicode="&#x41d;" horiz-adv-x="1323" d="M59 0v109h138v1230h-138v111h533v-111h-139v-503h417v503h-139v111h531v-111h-140v-1230h140v-109h-531v109h139v610h-417v-610h139v-109h-533z" />
<glyph unicode="&#x41e;" horiz-adv-x="1179" d="M59 723q0 174 34 311t87 219t125 135.5t141.5 73t143.5 19.5t142.5 -19.5t140 -73t125 -135.5t87 -219t33.5 -311q0 -215 -49 -370.5t-132 -234.5t-168 -113t-179 -34q-74 0 -142.5 19.5t-141.5 72t-126 133t-87 217t-34 310.5zM340 723q0 -80 1 -133t6 -128t15.5 -124 t29 -104.5t44 -88t65.5 -53t91 -20.5t91 23.5t65.5 55t43 91t26.5 104.5t13.5 125t5.5 124t1 128t-1 129t-5.5 125t-13.5 126t-26.5 105.5t-43 91t-65.5 55t-91 23.5t-91 -21.5t-65.5 -54t-44 -88t-29 -104.5t-15.5 -125t-6 -129t-1 -133z" />
<glyph unicode="&#x41f;" horiz-adv-x="1308" d="M59 0v111h140v1228h-140v111h1190v-111h-139v-1228h139v-111h-528v111h139l-2 1230h-407l-2 -1230h139v-111h-529z" />
<glyph unicode="&#x420;" horiz-adv-x="1138" d="M59 0v109h138v1230h-138v111h430h77t81.5 -3t91 -9t84 -20.5t86 -34t68.5 -52.5t60.5 -73.5t36 -99t16.5 -128.5q2 -111 -34 -191.5t-86 -121.5t-123 -65.5t-125 -31t-114 -6.5h-155v-505h137v-109h-531zM453 729q55 -14 100 -10t80 9t61.5 25.5t45 38t30.5 46t19.5 50 t10.5 52.5t4 50.5t1 43.5q0 55 -2 91t-20.5 90.5t-53.5 83t-105.5 45t-170.5 2.5v-617z" />
<glyph unicode="&#x421;" horiz-adv-x="1095" d="M53 735q-4 213 42 370t128 236.5t172 113.5t189 26q137 -10 247 -101l37 56h119v-455h-156q-8 80 -21 140.5t-40 122t-75 92t-115 28.5q-84 -2 -137.5 -63.5t-70 -153.5t-23.5 -201.5t1 -210.5q2 -123 11.5 -214t34 -195.5t80.5 -160.5t138 -56q104 2 176 109.5t78 275.5 h179q-2 -133 -38 -233.5t-85.5 -154t-115 -85t-111.5 -41t-93 -9.5q-59 -2 -117.5 8.5t-138.5 55.5t-139 121.5t-104.5 226t-51.5 352.5z" />
<glyph unicode="&#x422;" horiz-adv-x="1118" d="M49 975v475h1016v-475h-156q-4 59 -12 115q-8 57 -10 73q-14 96 -37 125q-61 76 -174 55v-1234h139v-109h-514v109h139v1234q-115 20 -174 -55q-23 -29 -37 -125q-8 -51 -10 -73q-6 -37 -10 -115h-160z" />
<glyph unicode="&#x423;" horiz-adv-x="1282" d="M41 1337v113h526v-113h-131l309 -682l232 682h-131v113h436v-113h-104l-367 -989q-61 -168 -145 -269.5t-222 -107.5q-125 -8 -218 82t-91 221q2 80 46 124t100 46q59 4 103 -41t48 -102q4 -47 -16 -86q-6 -8 -19.5 -25.5t-19.5 -27.5q-6 -14 -6 -33q4 -18 20.5 -33.5 t42.5 -15.5q45 0 87 51t62.5 98t45.5 119l-471 989h-117z" />
<glyph unicode="&#x424;" horiz-adv-x="1509" d="M59 764q0 117 29 208t76 145t107.5 92t125 49.5t128 16.5t114.5 -7v133h-137v106h506v-106h-136v-133q51 12 115 7t127.5 -16.5t123.5 -49.5t107.5 -92t76 -145t28.5 -208q2 -248 -119 -380t-297 -132q-100 0 -162 16v-159h136v-109h-506v109h137v159q-57 -18 -121 -18 q-92 0 -172 28.5t-145.5 88t-103.5 162t-38 235.5zM338 762q2 -94 19.5 -175t53 -148.5t92 -87t136.5 10.5l-2 801l2 -2q-45 18 -87 20.5t-83 -19t-70.5 -66.5t-46 -130t-14.5 -204zM872 362q160 -49 225.5 59.5t71.5 340.5q8 272 -77 356t-220 43v-799z" />
<glyph unicode="&#x425;" horiz-adv-x="1333" d="M41 0v109h135l350 655l-311 577h-135v109h547v-109h-138l187 -358l178 358h-137v109h463v-109h-136l-270 -530l381 -702h137v-109h-551v109h138l-258 475l-250 -475h137v-109h-467z" />
<glyph unicode="&#x426;" horiz-adv-x="1335" d="M59 0v109h136v1232h-136v109h519v-109h-136v-1235h400v1235h-137v109h518v-109h-138v-1235h201v-509h-156q-4 70 -10 125t-14 96t-19.5 70.5t-24.5 50t-30.5 33t-37 18.5t-43 8t-51.5 2h-58h-783z" />
<glyph unicode="&#x427;" horiz-adv-x="1224" d="M41 1341v109h516v-109h-137v-415v-58.5t4 -53.5t14.5 -46t33 -35.5t56.5 -23.5q59 -12 129 4t121 49v579h-135v109h520v-109h-135v-1232h135v-109h-520v109h135v536q-109 -49 -241 -61q-59 -4 -109.5 2t-85.5 15t-62.5 32.5t-44 39t-28.5 50.5t-17.5 51.5t-8.5 55t-3 48 v46.5v417h-137z" />
<glyph unicode="&#x428;" horiz-adv-x="1767" d="M59 0v106h136v1237h-136v107h504v-107h-135v-1230h328v1230h-135v107h522v-107h-133v-1230h325v1230h-135v107h506v-107h-135v-1237h135v-106h-1647z" />
<glyph unicode="&#x429;" horiz-adv-x="1820" d="M59 0v106h136v1237h-136v107h504v-107h-135v-1230h328v1230h-135v107h522v-107h-133v-1230h325v1230h-135v107h506v-107h-135v-1237h201v-507h-156q-4 90 -13.5 156.5t-22.5 110.5t-30.5 70.5t-40 40t-50 18.5t-60.5 5h-72h-1268z" />
<glyph unicode="&#x42a;" horiz-adv-x="1396" d="M49 975v475h813v-111h-135v-487h133q66 0 114 -4t125 -27.5t125 -65.5t85 -126t37 -203q-4 -426 -480 -426h-528v109h139v1230l-94 -2q-23 0 -41 -3t-33.5 -8t-26 -13t-19.5 -20.5t-15 -29t-11.5 -38t-8.5 -47t-7 -56t-6 -67.5t-6 -80h-160zM723 111q209 -23 279.5 48.5 t70.5 233.5q2 199 -74.5 277t-275.5 47v-606z" />
<glyph unicode="&#x42b;" horiz-adv-x="1677" d="M59 0v109h138v1230h-138v111h525v-111h-140v-487h136q66 0 114.5 -4t125.5 -27.5t125 -65.5t85 -126t37 -203q-4 -426 -481 -426h-527zM444 111q109 -12 179.5 2t106.5 56t49.5 93t13.5 131q0 201 -75 276.5t-274 47.5v-606zM1087 0v109h138v1230h-138v111h529v-111h-137 v-1230h137v-109h-529z" />
<glyph unicode="&#x42c;" horiz-adv-x="1118" d="M59 0v109h138v1230h-138v111h525v-111h-140v-487h136q66 0 114.5 -4t125.5 -27.5t125 -65.5t85 -126t37 -203q-4 -426 -481 -426h-527zM444 111q109 -12 179.5 2t106.5 56t49.5 93t13.5 131q0 201 -75 276.5t-274 47.5v-606z" />
<glyph unicode="&#x42d;" horiz-adv-x="1083" d="M49 383q6 76 50 120t112 40q66 -2 102.5 -46t36.5 -98q0 -61 -33 -100l-28 -29q-2 -4 -15 -26q-6 -45 56.5 -97.5t142.5 -46.5q279 18 268 619h-413v115h413q23 227 -31.5 363t-150.5 163q-76 18 -131 -7.5t-86 -88t-47 -126t-27 -147.5h-155v457h125l30 -62 q86 51 153.5 76t147.5 19q66 -4 124.5 -22.5t122 -67t107.5 -124t73.5 -202.5t29.5 -293q0 -199 -38 -350.5t-92 -233.5t-129 -133t-134.5 -66.5t-122.5 -17.5q-184 -8 -327.5 116t-133.5 296z" />
<glyph unicode="&#x42e;" horiz-adv-x="1761" d="M59 0v109h138v1230h-138v111h527v-111h-140v-495h193q16 160 62.5 279.5t101.5 186t126.5 106.5t128 52.5t113.5 12.5q74 0 143.5 -19.5t142.5 -73t126 -135.5t87 -219t34 -311t-34 -310.5t-87 -218t-126 -134t-142.5 -71t-143.5 -18.5q-125 0 -223 52.5t-155.5 132.5 t-94 184t-49 200.5t-10.5 188.5h-193v-620h140v-109h-527zM924 723q0 -82 1 -133t6 -128t14 -125t27.5 -103.5t44 -87t65.5 -53t91.5 -21.5t91.5 23.5t66.5 55t44 91t26.5 104.5t13 125t5 124t1 128t-1 129t-5 125t-13 126t-26.5 105.5t-44 91t-66.5 55t-91.5 23.5 t-91.5 -21.5t-65.5 -53t-44 -88t-27.5 -105.5t-14 -125t-6 -128t-1 -134z" />
<glyph unicode="&#x42f;" horiz-adv-x="1222" d="M49 0v111q90 -4 113.5 25.5t32.5 115.5l20 190q8 70 25.5 118t78 98.5t162.5 74.5q-33 10 -57 17q-12 6 -49 18t-58 23q-158 80 -161 284q0 76 21.5 136.5t54 99.5t80.5 66.5t89 41t91.5 21.5t76 9t52.5 1h542v-111h-139v-1230h139v-109h-530v109h139v575 q-156 12 -215 -49.5t-76 -171.5l-30 -252q-6 -39 -13.5 -64.5t-29 -67.5t-65.5 -68.5t-107 -35.5q-88 -14 -187 25zM430 1069q0 -35 3 -62.5t21.5 -75.5t51.5 -78t102.5 -47.5t163.5 -4.5v542q-55 14 -100 9.5t-79 -8t-59.5 -22.5t-43 -33.5t-28.5 -41t-18.5 -46 t-10.5 -47.5t-3 -45v-40z" />
<glyph unicode="&#x430;" horiz-adv-x="835" d="M49 201q-4 133 103.5 240.5t339.5 150.5v201q0 80 -99 79q-82 2 -94 -45q-2 -8 6 -41q12 -29 12 -34q6 -18 2 -47q-10 -41 -42.5 -68t-75.5 -25q-49 2 -80 41t-27 95q4 94 99.5 165.5t226.5 69.5q31 0 62.5 -6t73.5 -24.5t72.5 -47t53.5 -82t23 -123.5v-487q0 -39 2 -61 q0 -39 12 -56q26 -18 65 -14v-88q-76 -16 -116 -17q-127 2 -176 105q-90 -100 -209 -105q-80 -2 -155 57.5t-79 166.5zM258 256q-6 -43 1 -72.5t24.5 -42t31 -17.5t25.5 -7q51 -4 101.5 41t50.5 131v188q-80 -14 -150 -66.5t-84 -154.5z" />
<glyph unicode="&#x431;" horiz-adv-x="856" d="M49 549q0 158 11.5 274.5t37 198.5t57 135t85 88t104.5 53.5t129 32.5q106 20 141 43q54 33 54 82h114q41 -217 -217 -285q-133 -27 -184 -45q-205 -74 -205 -311q86 170 270 168q158 -2 261.5 -136t99.5 -374q-4 -139 -38 -239.5t-90 -153.5t-116.5 -76.5t-130.5 -26.5 q-375 -8 -383 572zM292 602q-3 -72 1 -129v-69.5t2 -76.5t6 -78t14.5 -72t24.5 -59.5t37.5 -41t54.5 -15.5q25 0 44.5 9.5t32.5 26t23.5 39t17.5 50t11 57t6 60.5t3 60.5t1 58v53.5q4 59 0 131t-13 133.5t-41 104.5t-85 43t-86 -43t-42 -106.5t-12 -135.5z" />
<glyph unicode="&#x432;" horiz-adv-x="866" d="M49 0v92h86v776h-86v90h430q133 0 210 -64.5t83 -152.5q6 -90 -57.5 -150.5t-151.5 -78.5q111 -14 182.5 -83t69.5 -171q-2 -72 -31.5 -124t-66.5 -76.5t-91.5 -39t-84 -16.5t-62.5 -2h-430zM354 100q20 -2 68 -2q72 4 90 15q72 33 72 153q0 102 -49.5 150.5t-180.5 36.5 v-353zM354 559h64q51 0 84 18.5t45 49t15 49t3 37.5q0 150 -147 147h-64v-301z" />
<glyph unicode="&#x433;" horiz-adv-x="772" d="M49 0v92h86v776h-86v90h672v-385h-135q-8 176 -33 222q-39 80 -193 67h-10v-770h86v-92h-387z" />
<glyph unicode="&#x434;" horiz-adv-x="962" d="M41 100q49 -4 84 10.5t52.5 49.5t22.5 48t11 44l90 616h-115v90h703v-90h-84v-768h106v-395h-129q-2 47 -12 100q-12 106 -39 144q-39 51 -121 51h-276q-72 0 -113 -79t-39 -216h-141v395zM307 100h279v768h-144l-86 -565q-18 -121 -49 -203z" />
<glyph unicode="&#x435;" horiz-adv-x="786" d="M49 418q-4 154 29 269.5t89 177t116.5 90t122.5 28.5q150 2 252 -143.5t79 -397.5h-456q-14 -348 147 -350q63 -2 109.5 54t46.5 171h153q-4 -178 -98 -260t-231 -80q-160 4 -256.5 119t-102.5 322zM281 541h251q6 172 -32.5 252.5t-93.5 83.5q-61 2 -93 -57.5 t-32 -134.5v-144z" />
<glyph unicode="&#x436;" horiz-adv-x="1366" d="M49 805q4 80 57.5 127t133.5 51q53 2 93 -15.5t60.5 -41t32.5 -57t14 -51t4 -36.5q6 -121 11 -143q20 -113 135 -98v327h-86v90h356v-90h-84v-327q113 -12 135 98q4 27 5.5 77t3.5 66q2 25 8 49.5t24.5 65.5t62.5 64.5t109 21.5q80 -4 133.5 -51t59.5 -127q2 -59 -29 -92 t-71.5 -35t-71.5 25.5t-27 76.5q0 27 12 51q8 12 15 19v18q-8 10 -25 15q-25 4 -39 -10.5t-17 -30t-5 -39.5v-69.5t-2 -65.5q-10 -129 -113 -166q121 -18 178.5 -81t55.5 -190q-4 -33 -1 -72.5t23 -52.5q29 -20 76 -14v-92q-55 -23 -129 -23q-31 0 -54.5 6.5t-56 29t-51 80 t-20.5 145.5q0 98 -19 133q-53 92 -170 80v-361h84v-90h-356v90h86v361q-63 6 -107.5 -19.5t-62.5 -60.5q-20 -35 -21 -133q-2 -88 -20.5 -145.5t-50 -80t-55 -29t-54.5 -6.5q-76 0 -131 23v92q51 -4 76 14q27 18 22 125q-2 125 54.5 187.5t181.5 83.5q-100 35 -115 166 q-2 25 -2 65.5v69.5q-2 25 -5 41t-16.5 29.5t-37.5 9.5q-18 -4 -25 -15q-4 -8 0 -18q0 -2 4 -8t6 -11q16 -23 17 -51q2 -47 -28 -75.5t-70 -26.5q-43 2 -73 34.5t-28 92.5z" />
<glyph unicode="&#x437;" horiz-adv-x="796" d="M49 240q2 61 37 96t82 35t81 -32t34 -85q-2 -29 -19 -57q-14 -18 -16 -27q-12 -16 -4 -35q4 -23 36.5 -41t84.5 -18q106 0 135 78q14 31 14 100q4 72 -4 96q-27 109 -215 109v90q57 -6 99 8t61.5 33.5t30 52.5t11.5 49.5t1 40.5q0 16 -2 31.5t-11.5 43.5t-34 45t-61.5 15 q-76 -6 -107.5 -76.5t-33.5 -144.5h-131v311h131v-61q76 82 186 86q109 4 194 -65.5t87 -176.5q2 -90 -55.5 -148t-133.5 -83q33 -6 68 -20.5t73 -41t60.5 -76.5t17.5 -116q-8 -131 -113.5 -207t-254.5 -72q-162 2 -247 81t-81 182z" />
<glyph unicode="&#x438;" horiz-adv-x="925" d="M49 0v92h86v776h-86v90h361v-90h-84v-516l272 469v47h-88v90h367v-90h-86v-776h86v-92h-367v92h88v508l-272 -469v-39h84v-92h-361z" />
<glyph unicode="&#x439;" horiz-adv-x="925" d="M49 0v92h86v776h-86v90h361v-90h-84v-516l272 469v47h-88v90h367v-90h-86v-776h86v-92h-367v92h88v508l-272 -469v-39h84v-92h-361zM199 1303q2 49 36.5 80.5t81.5 29.5q41 -2 68 -29.5t31 -58.5q0 -20 -15 -49q-18 -27 -18 -39q-2 -18 19.5 -37.5t58.5 -19.5t59.5 19.5 t20.5 37.5q-2 14 -19 39q-14 23 -14 49q2 31 27.5 58.5t68.5 29.5q47 2 82 -28.5t37 -81.5q4 -80 -65.5 -144.5t-196.5 -64.5t-197.5 65.5t-64.5 143.5z" />
<glyph unicode="&#x43a;" horiz-adv-x="923" d="M49 0v90h84v778h-84v90h381v-90h-84v-327q113 -12 131 98q4 18 10 143q2 18 4.5 36t14.5 51.5t32.5 57t60.5 41t93 15.5q80 -4 133.5 -51t57.5 -127q2 -59 -28 -92t-73 -35q-39 -2 -69.5 25.5t-28.5 76.5q2 25 16 51q8 12 11 19q2 10 0 18q-2 10 -24.5 14.5t-37 -10 t-16.5 -30t-4 -39.5q0 -16 -1 -62.5t-3 -72.5q-10 -129 -115 -166q123 -18 180.5 -81t54.5 -190q-4 -33 0.5 -71.5t24.5 -53.5q23 -20 74 -14v-92q-61 -23 -131 -23q-31 0 -54.5 7.5t-55.5 30t-50 79t-21 144.5q0 98 -20 133q-16 35 -60 60.5t-106 19.5v-361h84v-90h-381z " />
<glyph unicode="&#x43b;" horiz-adv-x="1019" d="M29 180q6 57 39.5 93t78.5 40q43 0 74 -31.5t31 -76.5q0 -29 -14 -49q-18 -33 -19 -43q-2 -10 1 -18.5t13.5 -15.5t32.5 3q61 20 78.5 108.5t17.5 219.5v458h-83v90h692v-90h-86v-778h86v-90h-387v90h86l2 768h-158v-424q0 -80 -5 -140.5t-21.5 -122.5t-45 -102t-79 -66 t-117.5 -26q-102 -2 -161.5 60.5t-55.5 142.5z" />
<glyph unicode="&#x43c;" horiz-adv-x="1157" d="M49 0v92h86v776h-86v90h410l112 -596l125 596h412v-90h-86v-776h86v-92h-389v92h88v776l-207 -868h-106l-205 868v-776h84v-92h-324z" />
<glyph unicode="&#x43d;" horiz-adv-x="960" d="M49 0v92h86v776h-86v90h385v-90h-84v-307h262v307h-86v90h385v-90h-86v-776h86v-92h-385v92h86v361h-264l2 -361h84v-92h-385z" />
<glyph unicode="&#x43e;" horiz-adv-x="884" d="M49 479q0 102 21.5 186.5t52.5 134.5t76 88t80.5 55.5t76.5 27.5t56.5 11t27.5 1q182 0 289 -141.5t107 -362.5t-106.5 -361.5t-289.5 -140.5q-180 0 -285.5 140.5t-105.5 361.5zM279 409.5q0 -34.5 1 -69.5t5 -67.5t10 -62.5t18.5 -54.5t28.5 -42t41 -27.5t55 -10 q37 0 64.5 13t45 30.5t30 56.5t18.5 62.5t9 79t3 78v83.5q0 70 -1 98.5t-4 90t-14 89t-28.5 63.5t-48.5 50.5t-74 14.5q-31 0 -55.5 -10.5t-40.5 -28t-28.5 -42t-18.5 -54t-10 -62.5t-5 -67.5t-1 -70.5v-71v-69.5z" />
<glyph unicode="&#x43f;" horiz-adv-x="966" d="M49 0v90h84v778h-84v90h869v-90h-84v-778h84v-90h-386v90h84v766h-266v-766h84v-90h-385z" />
<glyph unicode="&#x440;" horiz-adv-x="915" d="M49 -287h86v1139h-80v96q59 2 154 19q49 12 84 16q8 0 25.5 3t27.5 5v-139q80 121 197 131q121 12 224 -110.5t99 -397.5q-2 -121 -25.5 -214t-57 -145.5t-77.5 -85t-82 -43t-75 -10.5q-125 0 -203 109v-373h86v-90h-383v90zM354 485q-2 -55 2 -122.5t12.5 -127t40 -99.5 t85.5 -40q55 -4 98 56q31 41 35 157q0 20 2 56t3 65.5t1 54.5q0 27 -2 85.5t-2 88.5q-4 115 -33 150q-39 51 -96 47q-41 -2 -70 -28.5t-43 -60.5t-22.5 -90t-9.5 -94t-1 -98z" />
<glyph unicode="&#x441;" horiz-adv-x="811" d="M49 471q2 147 37 252.5t93.5 158t113.5 75t117 26.5q141 8 230 -72t95 -180q4 -66 -31.5 -111t-93.5 -47q-53 -2 -89 34t-36 81q0 33 17 55q2 4 14 19.5t16 25.5q8 33 -19.5 63t-80.5 26q-53 -2 -87 -41t-47 -110t-15 -124t-2 -133q0 -55 1 -73.5t4 -70t8 -73t16.5 -59 t27.5 -54t40.5 -31t57.5 -16.5q74 -4 121 66q20 31 35 129q2 6 2 21.5t2 23.5h147q2 -53 -7 -104.5t-37.5 -111t-94 -97t-164.5 -42.5q-190 -8 -291.5 132.5t-99.5 361.5z" />
<glyph unicode="&#x442;" horiz-adv-x="837" d="M41 586v372h756v-372h-131q-6 80 -9.5 144.5t-34 101t-98.5 26.5v-766h84v-92h-381v92h86v766q-70 10 -101.5 -26.5t-33.5 -101t-8 -144.5h-129z" />
<glyph unicode="&#x443;" horiz-adv-x="929" d="M41 860v98h389v-98h-74l187 -561l159 561h-88v98h316v-98h-68l-248 -825q-23 -76 -37 -120t-43.5 -107.5t-61.5 -98.5t-83 -60.5t-115 -23.5q-88 2 -145 60.5t-55 144.5q2 63 36.5 98t77.5 33q43 0 76 -31.5t33 -81.5q0 -61 -25 -84q-2 -4 -8 -9t-8 -9q-6 -8 0 -25 q6 -12 27 -12q35 -4 59 25q45 35 84 168q29 109 33 133l-336 825h-82z" />
<glyph unicode="&#x444;" horiz-adv-x="1193" d="M47 498q2 152 30.5 256t75 150t86.5 62.5t80 16.5q121 0 187 -117v305h-113v99q145 6 293 28v-430q74 113 188 117q262 6 273 -461q4 -168 -20.5 -284.5t-69.5 -169t-86 -73t-88 -20.5q-100 0 -197 105v-369h86v-90h-350v90h84v369q-33 -41 -84 -73t-103 -34 q-39 -2 -73.5 8.5t-72.5 44t-65.5 88t-45 153t-15.5 229.5zM252 481q0 -80 2 -129t12 -113.5t40 -97t77 -35.5q45 -2 84 37t39 142v317q0 244 -129 240q-27 0 -48.5 -13.5t-34.5 -35t-22.5 -50t-12.5 -60.5t-5 -66.5t-2 -69.5v-66zM686 281q0 -98 42 -142.5t87 -40.5 q33 4 57.5 23.5t37 49.5t20.5 67.5t9 78.5t3 82t0 76l-6 156q0 123 -41 168q-33 43 -84 43q-49 0 -87 -47t-38 -136v-378z" />
<glyph unicode="&#x445;" horiz-adv-x="946" d="M41 0v100h72l252 381l-222 385h-77v92h391v-92h-92l133 -235l129 235h-90v92h342v-92h-86l-226 -338l260 -428h78v-100h-393v100h82l-158 265l-143 -265h72v-100h-324z" />
<glyph unicode="&#x446;" horiz-adv-x="989" d="M49 0v92h86v776h-86v90h385v-90h-86v-770h246v770h-88v90h385v-90h-84v-770h133v-405h-133l-6 82q-10 106 -27 141q-14 33 -33.5 52.5t-39 24.5t-41 7t-42.5 0h-569z" />
<glyph unicode="&#x447;" d="M41 868v90h383v-90h-88v-264q-2 -23 0 -46t7 -43.5t24.5 -37t54.5 -24.5q59 -15 147 36v379h-88v90h389v-90h-88v-776h88v-92h-389v92h88v311q-113 -70 -227 -67q-217 4 -217 291v241h-84z" />
<glyph unicode="&#x448;" horiz-adv-x="1353" d="M49 0v92h86v776h-86v90h383v-90h-84v-768h225v768h-86v90h379v-90h-88v-768h228v768h-86v90h383v-90h-86v-776h86v-92h-1254z" />
<glyph unicode="&#x449;" horiz-adv-x="1392" d="M49 0v92h86v776h-86v90h383v-90h-84v-768h225v768h-86v90h379v-90h-88v-768h228v768h-86v90h383v-90h-86v-768h124v-407h-133l-6 82q-10 109 -24 141q-16 35 -36 54.5t-38.5 23.5t-40 6t-41.5 0h-973z" />
<glyph unicode="&#x44a;" horiz-adv-x="1044" d="M41 584v374h606v-90h-84v-301q98 6 172 -2t139.5 -36.5t100.5 -90t37 -155.5q2 -82 -32 -139.5t-74 -84t-107.5 -42t-100 -16.5t-86.5 -1h-346v92h86v776q-98 20 -134 -33t-36 -169v-82h-141zM563 100h70q68 0 88 13q84 39 76 174q-10 113 -74 147q-31 20 -111 21 q-33 0 -49 -2v-353z" />
<glyph unicode="&#x44b;" horiz-adv-x="1224" d="M49 0v92h86v776h-86v90h381v-90h-84v-301q98 6 172 -2t138.5 -36.5t99.5 -90t37 -155.5q2 -59 -14.5 -105.5t-40 -76t-65.5 -50t-73 -31t-79 -15.5t-68.5 -5h-57.5h-346zM346 100h70q66 0 88 13q82 39 74 174q-6 111 -72 147q-33 20 -109 21q-35 0 -51 -2v-353zM793 0v92 h86v776h-86v90h378v-90h-84v-776h84v-92h-378z" />
<glyph unicode="&#x44c;" horiz-adv-x="825" d="M49 0v92h86v776h-86v90h381v-90h-84v-301q98 6 172 -2t138.5 -36.5t99.5 -90t37 -155.5q2 -59 -14.5 -105.5t-40 -76t-65.5 -50t-73 -31t-79 -15.5t-68.5 -5h-57.5h-346zM346 100h70q66 0 88 13q82 39 74 174q-6 111 -72 147q-33 20 -109 21q-35 0 -51 -2v-353z" />
<glyph unicode="&#x44d;" horiz-adv-x="796" d="M49 231q-2 66 35 102t90 36q49 0 74.5 -32t32.5 -71q2 -39 -31 -92q-2 -4 -7 -13t-5 -14q-2 -20 26.5 -40.5t67.5 -26.5q33 -6 61.5 1t64.5 36.5t52 113.5t4 215h-252v103h252q0 20 -4 117q-4 106 -35 155q-37 61 -100 58q-61 -2 -103.5 -66.5t-44.5 -173.5h-133v309h107 l26 -43q74 78 185 78q59 0 115.5 -24.5t107.5 -77t80.5 -151.5t29.5 -230q-2 -246 -109.5 -385.5t-285.5 -137.5q-129 2 -214 72t-87 182z" />
<glyph unicode="&#x44e;" horiz-adv-x="1323" d="M49 0v92h86v776h-86v90h381v-90h-88v-305h145q8 66 32 132.5t67 135t119.5 110.5t175.5 42q180 0 286.5 -141.5t106.5 -362.5t-106.5 -361.5t-286.5 -140.5q-186 0 -290 144.5t-104 333.5h-145v-363h88v-92h-381zM715 479q0 -80 1 -114.5t9 -102t23.5 -99.5t48 -59.5 t82.5 -27.5q41 0 71.5 13t48 49t28.5 64.5t14 89t4.5 89.5t1.5 98.5t-1.5 98t-4.5 90t-14 89t-28.5 63.5t-48 50.5t-71.5 14.5q-49 0 -82 -28t-48.5 -59.5t-23.5 -99t-9 -103.5t-1 -116z" />
<glyph unicode="&#x44f;" horiz-adv-x="892" d="M41 0v96q53 -12 80 23q16 18 20 76q2 53 4 79.5t12.5 63.5t30 58.5t56.5 43t92 35.5q-102 18 -168 86t-59 162q2 55 24.5 98t59 66.5t72.5 40t79 22.5t62.5 7t39.5 1h398v-90h-88v-776h88v-92h-387v92h86v338q-121 14 -170 -92q-10 -23 -14.5 -47.5t-5.5 -64.5t-1 -52 q-10 -178 -159 -197q-68 -8 -152 23zM328 702q0 -113 68.5 -150.5t146.5 -25.5v342q-123 10 -170 -31.5t-45 -134.5z" />
<glyph unicode="&#x451;" horiz-adv-x="786" d="M49 418q-4 154 29 269.5t89 177t116.5 90t122.5 28.5q150 2 252 -143.5t79 -397.5h-456q-14 -348 147 -350q63 -2 109.5 54t46.5 171h153q-4 -178 -98 -260t-231 -80q-160 4 -256.5 119t-102.5 322zM100 1292q-2 47 35 87t82 42q47 2 86 -36.5t39 -86.5q0 -45 -38 -82.5 t-83 -37.5t-81 34.5t-40 79.5zM281 541h251q6 172 -32.5 252.5t-93.5 83.5q-61 2 -93 -57.5t-32 -134.5v-144zM446 1292q-2 47 35 87t82 42t85 -36.5t40 -86.5q0 -45 -37 -82.5t-84 -37.5q-45 0 -81 34.5t-40 79.5z" />
<glyph unicode="&#x454;" horiz-adv-x="796" d="M49 500q0 131 30 230t81 151.5t107.5 77t115.5 24.5q111 0 184 -78l27 43h106v-309h-133q-2 109 -44 173.5t-103 66.5q-63 4 -101 -58q-31 -49 -34 -155q-4 -96 -4 -117h251v-103h-251q-12 -131 4 -215t52 -113.5t64.5 -36.5t61.5 -1q39 6 67.5 26.5t26.5 40.5 q0 4 -5 13.5t-7 13.5q-33 53 -31 92q6 39 31.5 71t75.5 32q53 0 90 -36t34 -102q-2 -113 -87 -182t-214 -72q-178 -2 -285.5 137.5t-109.5 385.5z" />
<glyph unicode="&#x455;" horiz-adv-x="796" d="M53 244q2 61 37 96t82 35t81 -32t34 -85q-2 -29 -19 -57q-14 -18 -16 -27q-12 -16 -4 -35q4 -23 36.5 -41t84.5 -18q61 0 107 43t42 90q-2 43 -32.5 76t-107.5 82t-93 61q-70 51 -110 87t-73.5 95.5t-33.5 122.5q2 106 87 176t193 66q111 -4 187 -86v61h131v-311h-131 q-2 41 -11.5 82t-43.5 86t-87 53q-141 20 -141 -90q0 -31 15.5 -59.5t49 -58t53 -43t58.5 -40t79 -52t78 -57.5t66.5 -62.5t47 -67.5t20.5 -76q4 -133 -92.5 -207t-245.5 -69q-162 2 -247 80.5t-81 181.5z" />
<glyph unicode="&#x456;" horiz-adv-x="522" d="M66 858l2 100h393v-90h-86v-778h86v-90h-387v90h86l2 768h-96zM135 1264q0 59 43 100t101 41q59 0 100 -42t41 -99.5t-41 -99.5t-100 -42q-61 0 -102.5 42.5t-41.5 99.5z" />
<glyph unicode="&#x457;" horiz-adv-x="522" d="M-41 1286q-2 47 35 87t82 42q47 2 86 -37t39 -86t-37 -84t-84 -37q-45 0 -81 35t-40 80zM66 858l2 100h393v-90h-86v-778h86v-90h-387v90h86l2 768h-96zM305 1286q-2 47 35 87t82 42t85 -37t40 -86t-38 -84t-83 -37t-81 35t-40 80z" />
<glyph unicode="&#x458;" horiz-adv-x="694" d="M27 -285q-10 63 18.5 103.5t73.5 46.5q43 6 80 -18.5t47 -73.5q6 -68 -10 -88q-14 -18 -15 -21q-4 -14 4 -24q8 -8 29 -9q51 4 65 29q20 23 31.5 48.5t15 43t7.5 58.5q4 27 -6.5 142.5t-10.5 131.5l2 768h-96l2 100h393v-90h-86v-778q0 -201 -79.5 -356.5t-231.5 -178.5 q-86 -14 -152.5 33t-80.5 133zM332 1257q0 59 43 100.5t100 41.5q59 0 100 -42t41 -99.5t-40.5 -99.5t-100.5 -42q-61 0 -102 42t-41 99z" />
<glyph unicode="&#x45e;" horiz-adv-x="929" d="M41 860v98h389v-98h-74l187 -561l159 561h-88v98h316v-98h-68l-248 -825q-23 -76 -37 -120t-43.5 -107.5t-61.5 -98.5t-83 -60.5t-115 -23.5q-88 2 -145 60.5t-55 144.5q2 63 36.5 98t77.5 33q43 0 76 -31.5t33 -81.5q0 -61 -25 -84q-2 -4 -8 -9t-8 -9q-6 -8 0 -25 q6 -12 27 -12q35 -4 59 25q45 35 84 168q29 109 33 133l-336 825h-82zM217 1303q2 49 37 80.5t82 29.5q41 -2 67.5 -29.5t30.5 -58.5q0 -20 -14 -49q-18 -27 -19 -39q-2 -18 19.5 -37.5t58.5 -19.5t59.5 19.5t20.5 37.5q-2 14 -18 39q-14 23 -15 49q2 31 28 58.5t69 29.5 q47 2 81.5 -28.5t36.5 -81.5q4 -80 -65.5 -144.5t-196.5 -64.5t-197.5 65.5t-64.5 143.5z" />
<glyph unicode="&#x2000;" horiz-adv-x="892" />
<glyph unicode="&#x2001;" horiz-adv-x="1784" />
<glyph unicode="&#x2002;" horiz-adv-x="892" />
<glyph unicode="&#x2003;" horiz-adv-x="1784" />
<glyph unicode="&#x2004;" horiz-adv-x="594" />
<glyph unicode="&#x2005;" horiz-adv-x="446" />
<glyph unicode="&#x2006;" horiz-adv-x="297" />
<glyph unicode="&#x2007;" horiz-adv-x="297" />
<glyph unicode="&#x2008;" horiz-adv-x="223" />
<glyph unicode="&#x2009;" horiz-adv-x="356" />
<glyph unicode="&#x200a;" horiz-adv-x="99" />
<glyph unicode="&#x2010;" horiz-adv-x="468" d="M59 422v168h349v-168h-349z" />
<glyph unicode="&#x2011;" horiz-adv-x="468" d="M59 422v168h349v-168h-349z" />
<glyph unicode="&#x2012;" horiz-adv-x="468" d="M59 422v168h349v-168h-349z" />
<glyph unicode="&#x2013;" horiz-adv-x="1343" d="M66 651v148h1210v-148h-1210z" />
<glyph unicode="&#x2014;" horiz-adv-x="1665" d="M59 455v137h1545v-137h-1545z" />
<glyph unicode="&#x2018;" horiz-adv-x="462" d="M80 1110q-7 195 151 371l121 -58q-27 -33 -65.5 -105.5t-32.5 -96.5q4 -14 14 -21q4 -4 45 -18q31 -14 51.5 -50t20.5 -75q-2 -59 -50 -102.5t-105.5 -41.5t-102.5 48.5t-47 148.5z" />
<glyph unicode="&#x2019;" horiz-adv-x="462" d="M80 1337q0 63 46 104.5t105 39.5q57 -2 104.5 -48.5t49.5 -144.5q2 -201 -156 -375l-118 60q109 158 98 201q-8 14 -16 20q-6 6 -21.5 11t-19.5 9q-33 12 -53.5 48t-18.5 75z" />
<glyph unicode="&#x201c;" horiz-adv-x="1001" d="M145 1110q-6 199 152 371l121 -58q-27 -35 -66 -106.5t-30 -95.5q6 -16 12 -21l43 -18q33 -14 53.5 -49t20.5 -76q-2 -59 -50.5 -102.5t-105.5 -41.5t-102.5 48.5t-47.5 148.5zM551 1110q-2 201 156 371l118 -58q-29 -39 -65.5 -108.5t-30.5 -93.5q4 -14 14 -21 q6 -6 22.5 -11t18.5 -7q33 -14 53.5 -50t18.5 -75q0 -59 -47 -102.5t-104.5 -41.5t-103.5 48.5t-50 148.5z" />
<glyph unicode="&#x201d;" horiz-adv-x="1001" d="M145 1337q0 63 46.5 104.5t105.5 39.5q57 -2 103 -48.5t51 -144.5q2 -201 -156 -375l-119 60q109 158 96 201q-4 12 -14 20q-6 6 -21.5 11t-19.5 9q-33 12 -53.5 48t-18.5 75zM551 1337q2 63 49 104.5t107 39.5q57 -2 102 -48.5t47 -144.5q7 -199 -151 -375l-121 60 q29 39 66.5 107.5t31.5 93.5q-4 12 -14 20q-8 6 -22.5 11t-20.5 9q-31 12 -52.5 48t-21.5 75z" />
<glyph unicode="&#x201e;" horiz-adv-x="1001" d="M139 152q0 63 46 104t106 39q57 -2 103 -48t50 -145q3 -200 -155 -374l-119 59q109 158 96 201q-4 12 -14 20q-6 6 -21.5 11.5t-19.5 9.5q-33 12 -53.5 48t-18.5 75zM545 152q2 63 49 104t106 39q57 -2 102.5 -48t47.5 -145q6 -198 -152 -374l-120 59q29 39 66.5 107.5 t31.5 93.5q-4 12 -14 20q-8 6 -22.5 11.5t-21.5 9.5q-31 12 -52 48t-21 75z" />
<glyph unicode="&#x2022;" horiz-adv-x="1353" d="M481 723q0 84 58.5 139.5t136.5 55.5q80 0 137 -55.5t57 -139.5q0 -82 -58 -137.5t-136 -55.5t-136.5 55.5t-58.5 137.5z" />
<glyph unicode="&#x2026;" horiz-adv-x="1253" d="M80 115q0 59 43 100t100 41q59 0 100.5 -42t41.5 -99.5t-41 -99.5t-101 -42q-61 0 -102 42.5t-41 99.5zM489 115q0 59 43 100t101 41q59 0 100 -42t41 -99.5t-41 -99.5t-100 -42q-61 0 -102.5 42.5t-41.5 99.5zM899 115q0 59 43 100t100 41q59 0 100.5 -42t41.5 -99.5 t-41 -99.5t-101 -42q-61 0 -102 42.5t-41 99.5z" />
<glyph unicode="&#x202f;" horiz-adv-x="356" />
<glyph unicode="&#x2039;" horiz-adv-x="571" d="M41 512l268 389h189l-265 -389l265 -387h-189z" />
<glyph unicode="&#x203a;" horiz-adv-x="565" d="M41 125l256 387l-256 389h178l273 -389l-273 -387h-178z" />
<glyph unicode="&#x205f;" horiz-adv-x="446" />
<glyph unicode="&#x2122;" horiz-adv-x="868" d="M59 1317v133h289v-133h-45q0 6 -2 16t-2 14.5t-1 11.5t-1 9q-4 27 -10 37q-18 23 -51 16v-352h38v-29h-143v29h39v352q-31 6 -49 -16q-6 -10 -10 -37q0 -2 -1 -9t-1 -11q-2 -4 -2.5 -14.5t-2.5 -16.5h-45zM381 1040v29h39v350h-39v31h149l62 -262l63 262h152v-31h-39 v-350h39v-29h-152v29h41v354l-94 -383h-39l-92 383v-354h39v-29h-129z" />
<glyph unicode="&#xe000;" horiz-adv-x="962" d="M0 0v963h963v-963h-963z" />
</font>
</defs>
</svg>
